# File produced by Open Asset Import Library (http://www.assimp.sf.net)
# (assimp v3.1.187496374)

mtllib A-Ansuz.obj.mtl

# 222 vertex positions
v  10.2682 10.9345 0
v  9.56136 11.5577 5
v  10.2682 10.9345 5
v  9.56136 11.5577 0
v  -4.63525 14.2658 0
v  -5.52187 13.9466 5
v  -4.63525 14.2658 5
v  -5.52187 13.9466 0
v  -13.9466 5.52187 0
v  -13.5724 6.38669 5
v  -13.5724 6.38669 0
v  -13.9466 5.52187 5
v  14.8817 -1.88 5
v  14.9704 -0.941857 0
v  14.9704 -0.941857 5
v  14.8817 -1.88 0
v  -6.38669 -13.5724 0
v  -5.52187 -13.9466 5
v  -6.38669 -13.5724 5
v  -5.52187 -13.9466 0
v  13.5724 6.38669 5
v  13.1446 7.22631 0
v  13.1446 7.22631 5
v  13.5724 6.38669 0
v  6.38669 13.5724 0
v  5.52187 13.9466 5
v  6.38669 13.5724 5
v  5.52187 13.9466 0
v  -10.9345 10.2682 0
v  -10.2682 10.9345 5
v  -10.2682 10.9345 0
v  -10.9345 10.2682 5
v  -1.88 14.8817 0
v  -2.81072 14.7343 5
v  -1.88 14.8817 5
v  -2.81072 14.7343 0
v  13.9466 -5.52187 5
v  14.2658 -4.63525 0
v  14.2658 -4.63525 5
v  13.9466 -5.52187 0
v  -10.2682 -10.9345 0
v  -10.9345 -10.2682 5
v  -10.9345 -10.2682 0
v  -10.2682 -10.9345 5
v  -14.7343 -2.81072 0
v  -14.8817 -1.88 5
v  -14.8817 -1.88 0
v  -14.7343 -2.81072 5
v  14.9704 0.941857 0
v  15 0 0
v  14.8817 1.88 0
v  14.7343 -2.81072 0
v  14.7343 2.81072 0
v  14.5287 -3.73035 0
v  14.5287 3.73035 0
v  14.2658 4.63525 0
v  13.9466 5.52187 0
v  13.5724 -6.38669 0
v  13.1446 -7.22631 0
v  12.6649 -8.0374 0
v  12.6649 8.0374 0
v  12.1353 -8.81678 0
v  12.1353 8.81678 0
v  11.5577 -9.56136 0
v  11.5577 9.56136 0
v  10.9345 -10.2682 0
v  10.9345 10.2682 0
v  10.2682 -10.9345 0
v  9.56136 -11.5577 0
v  8.81678 -12.1353 0
v  8.81678 12.1353 0
v  8.0374 -12.6649 0
v  8.0374 12.6649 0
v  7.22631 -13.1446 0
v  7.22631 13.1446 0
v  6.38669 -13.5724 0
v  5.52187 -13.9466 0
v  4.63525 -14.2658 0
v  4.63525 14.2658 0
v  3.73035 -14.5287 0
v  3.73035 14.5287 0
v  2.81072 -14.7343 0
v  2.81072 14.7343 0
v  1.88 -14.8817 0
v  1.88 14.8817 0
v  0.941857 -14.9704 0
v  0.941857 14.9704 0
v  0 -15 0
v  0 15 0
v  -0.941857 -14.9704 0
v  -0.941857 14.9704 0
v  -1.88 -14.8817 0
v  -2.81072 -14.7343 0
v  -3.73035 -14.5287 0
v  -3.73035 14.5287 0
v  -4.63525 -14.2658 0
v  -6.38669 13.5724 0
v  -7.22631 -13.1446 0
v  -7.22631 13.1446 0
v  -8.0374 -12.6649 0
v  -8.0374 12.6649 0
v  -8.81678 -12.1353 0
v  -8.81678 12.1353 0
v  -9.56136 -11.5577 0
v  -9.56136 11.5577 0
v  -11.5577 -9.56136 0
v  -11.5577 9.56136 0
v  -12.1353 -8.81678 0
v  -12.1353 8.81678 0
v  -12.6649 -8.0374 0
v  -12.6649 8.0374 0
v  -13.1446 -7.22631 0
v  -13.1446 7.22631 0
v  -13.5724 -6.38669 0
v  -13.9466 -5.52187 0
v  -14.2658 -4.63525 0
v  -14.2658 4.63525 0
v  -14.5287 -3.73035 0
v  -14.5287 3.73035 0
v  -14.7343 2.81072 0
v  -14.8817 1.88 0
v  -14.9704 -0.941857 0
v  -14.9704 0.941857 0
v  -15 0 0
v  14.7343 2.81072 5
v  14.5287 3.73035 5
v  14.2658 4.63525 5
v  12.1353 8.81678 5
v  11.5577 9.56136 5
v  12.6649 8.0374 5
v  8.0374 12.6649 5
v  8.81678 12.1353 5
v  0 15 5
v  0.941857 14.9704 5
v  7.22631 13.1446 5
v  4.63525 14.2658 5
v  2.81072 14.7343 5
v  3.73035 14.5287 5
v  -14.9704 0.941857 5
v  -15 0 5
v  1.99079 5.39406 5
v  2.83009 1.48413 5
v  2.83009 6.39713 5
v  -1.51996 5.10747 5
v  -1.51996 8.32139 5
v  15 0 5
v  14.9704 0.941857 5
v  14.8817 1.88 5
v  14.7343 -2.81072 5
v  14.5287 -3.73035 5
v  13.9466 5.52187 5
v  13.5724 -6.38669 5
v  1.99079 0.48106 5
v  10.9345 10.2682 5
v  -1.28454 9.82599 5
v  1.88 14.8817 5
v  -0.941857 14.9704 5
v  -2.83009 9.82599 5
v  -3.73035 14.5287 5
v  -6.38669 13.5724 5
v  -7.22631 13.1446 5
v  -8.0374 12.6649 5
v  -8.81678 12.1353 5
v  -9.56136 11.5577 5
v  -11.5577 9.56136 5
v  -12.1353 8.81678 5
v  -12.6649 8.0374 5
v  -13.1446 7.22631 5
v  -14.2658 4.63525 5
v  -14.5287 3.73035 5
v  -14.7343 2.81072 5
v  -14.8817 1.88 5
v  -2.83009 -9.82599 5
v  -14.9704 -0.941857 5
v  -14.5287 -3.73035 5
v  -14.2658 -4.63525 5
v  -13.9466 -5.52187 5
v  -13.5724 -6.38669 5
v  -13.1446 -7.22631 5
v  -12.6649 -8.0374 5
v  -12.1353 -8.81678 5
v  -11.5577 -9.56136 5
v  -9.56136 -11.5577 5
v  -8.81678 -12.1353 5
v  -8.0374 -12.6649 5
v  -7.22631 -13.1446 5
v  -4.63525 -14.2658 5
v  -3.73035 -14.5287 5
v  -2.81072 -14.7343 5
v  -1.51996 -9.82599 5
v  -1.88 -14.8817 5
v  -0.941857 -14.9704 5
v  0 -15 5
v  0.941857 -14.9704 5
v  1.88 -14.8817 5
v  2.81072 -14.7343 5
v  3.73035 -14.5287 5
v  4.63525 -14.2658 5
v  5.52187 -13.9466 5
v  6.38669 -13.5724 5
v  7.22631 -13.1446 5
v  8.0374 -12.6649 5
v  8.81678 -12.1353 5
v  -1.51996 3.40839 5
v  9.56136 -11.5577 5
v  10.2682 -10.9345 5
v  10.9345 -10.2682 5
v  11.5577 -9.56136 5
v  12.1353 -8.81678 5
v  12.6649 -8.0374 5
v  13.1446 -7.22631 5
v  -1.51996 8.32139 2.1
v  2.83009 6.39713 2.1
v  -1.28454 9.82599 2.1
v  1.99079 5.39406 2.1
v  -2.83009 9.82599 2.1
v  -1.51996 5.10747 2.1
v  -1.51996 3.40839 2.1
v  -2.83009 -9.82599 2.1
v  2.83009 1.48413 2.1
v  -1.51996 -9.82599 2.1
v  1.99079 0.48106 2.1

# 0 UV coordinates

# 110 vertex normals
vn 0.661312 0.750111 0
vn -0.338738 0.940881 0
vn -0.917755 0.397148 0
vn 0.995562 -0.0941092 0
vn -0.397148 -0.917755 0
vn 0.891007 0.45399 0
vn 0.397148 0.917755 0
vn -0.707107 0.707107 0
vn -0.156434 0.987688 0
vn 0.940881 -0.338738 0
vn -0.707107 -0.707107 0
vn -0.987688 -0.156434 0
vn 0 0 -1
vn 0.975917 0.218144 0
vn 0.960294 0.278991 0
vn 0.790155 0.612907 0
vn 0.827081 0.562083 0
vn 0.562083 0.827081 0
vn 0.0314109 0.999507 0
vn 0.509042 0.860742 0
vn 0.338738 0.940881 0
vn 0.218144 0.975917 0
vn -0.999507 0.0314109 0
vn 0 0 1
vn -0.940881 0.338738 0
vn -0.975917 0.218144 0
vn -0.790155 0.612907 0
vn -0.0314109 0.999507 0
vn -0.509042 0.860742 0
vn -0.562083 0.827081 0
vn -0.45399 0.891007 0
vn 0.999507 0.0314109 0
vn 0.0314109 -0.999507 0
vn 0.750111 -0.661312 0
vn 0.612907 -0.790155 0
vn -0.338738 -0.940881 0
vn -0.999507 -0.0314109 0
vn -0.827081 -0.562083 0
vn 0.987688 0.156434 0
vn 0.995562 0.0941092 0
vn 0.917755 0.397148 0
vn 0.940881 0.338738 0
vn 0.750111 0.661312 0
vn 0.707107 0.707107 0
vn 0.612907 0.790155 0
vn 0.45399 0.891007 0
vn 0.156434 0.987688 0
vn 0.0941092 0.995562 0
vn 0.278991 0.960294 0
vn -0.987688 0.156434 0
vn -0.995562 0.0941092 0
vn -0.960294 0.278991 0
vn -0.860742 0.509042 0
vn -0.827081 0.562083 0
vn -0.891007 0.45399 0
vn -0.750111 0.661312 0
vn -0.278991 0.960294 0
vn -0.0941092 0.995562 0
vn -0.397148 0.917755 0
vn -0.612907 0.790155 0
vn -0.661312 0.750111 0
vn 0.987688 -0.156434 0
vn 0.860742 -0.509042 0
vn 0.0941092 -0.995562 0
vn 0.338738 -0.940881 0
vn 0.218144 -0.975917 0
vn 0.661312 -0.750111 0
vn 0.509042 -0.860742 0
vn 0.562083 -0.827081 0
vn 0.397148 -0.917755 0
vn -0.0941092 -0.995562 0
vn -0.156434 -0.987688 0
vn -0.0314109 -0.999507 0
vn -0.278991 -0.960294 0
vn -0.509042 -0.860742 0
vn -0.562083 -0.827081 0
vn -0.45399 -0.891007 0
vn -0.612907 -0.790155 0
vn -0.940881 -0.338738 0
vn -0.975917 -0.218144 0
vn -0.960294 -0.278991 0
vn -0.995562 -0.0941092 0
vn -0.860742 -0.509042 0
vn -0.917755 -0.397148 0
vn -0.790155 -0.612907 0
vn 0.860742 0.509042 0
vn -0.218144 0.975917 0
vn 0.960294 -0.278991 0
vn 0.999507 -0.0314109 0
vn 0.891007 -0.45399 0
vn 0.827081 -0.562083 0
vn 0.156434 -0.987688 0
vn 0.278991 -0.960294 0
vn 0.707107 -0.707107 0
vn 0.45399 -0.891007 0
vn -0.218144 -0.975917 0
vn -0.661312 -0.750111 0
vn -0.891007 -0.45399 0
vn -0.750111 -0.661312 0
vn 0.975917 -0.218144 0
vn 0.790155 -0.612907 0
vn 0.917755 -0.397148 0
vn -0.766938 0.641721 0
vn 0.640405 0.768037 0
vn -1 0 0
vn -0.640007 -0.768369 0
vn 0 1 0
vn 1 0 0
vn 0 -1 0
vn -0.640185 -0.768221 0

# Mesh 'OpenSCAD_Model' with 440 faces
g OpenSCAD_Model
usemtl DefaultMaterial
f  1//1 2//1 3//1
f  2//1 1//1 4//1
f  5//2 6//2 7//2
f  6//2 5//2 8//2
f  9//3 10//3 11//3
f  10//3 9//3 12//3
f  13//4 14//4 15//4
f  14//4 13//4 16//4
f  17//5 18//5 19//5
f  18//5 17//5 20//5
f  21//6 22//6 23//6
f  22//6 21//6 24//6
f  25//7 26//7 27//7
f  26//7 25//7 28//7
f  29//8 30//8 31//8
f  30//8 29//8 32//8
f  33//9 34//9 35//9
f  34//9 33//9 36//9
f  37//10 38//10 39//10
f  38//10 37//10 40//10
f  41//11 42//11 43//11
f  42//11 41//11 44//11
f  45//12 46//12 47//12
f  46//12 45//12 48//12
f  14//13 49//13 50//13
f  16//13 49//13 14//13
f  16//13 51//13 49//13
f  52//13 51//13 16//13
f  52//13 53//13 51//13
f  54//13 53//13 52//13
f  54//13 55//13 53//13
f  38//13 55//13 54//13
f  38//13 56//13 55//13
f  40//13 56//13 38//13
f  40//13 57//13 56//13
f  58//13 57//13 40//13
f  58//13 24//13 57//13
f  59//13 24//13 58//13
f  59//13 22//13 24//13
f  60//13 22//13 59//13
f  60//13 61//13 22//13
f  62//13 61//13 60//13
f  62//13 63//13 61//13
f  64//13 63//13 62//13
f  64//13 65//13 63//13
f  66//13 65//13 64//13
f  66//13 67//13 65//13
f  68//13 67//13 66//13
f  68//13 1//13 67//13
f  69//13 1//13 68//13
f  69//13 4//13 1//13
f  70//13 4//13 69//13
f  70//13 71//13 4//13
f  72//13 71//13 70//13
f  72//13 73//13 71//13
f  74//13 73//13 72//13
f  74//13 75//13 73//13
f  76//13 75//13 74//13
f  76//13 25//13 75//13
f  77//13 25//13 76//13
f  77//13 28//13 25//13
f  78//13 28//13 77//13
f  78//13 79//13 28//13
f  80//13 79//13 78//13
f  80//13 81//13 79//13
f  82//13 81//13 80//13
f  82//13 83//13 81//13
f  84//13 83//13 82//13
f  84//13 85//13 83//13
f  86//13 85//13 84//13
f  86//13 87//13 85//13
f  88//13 87//13 86//13
f  88//13 89//13 87//13
f  90//13 89//13 88//13
f  90//13 91//13 89//13
f  92//13 91//13 90//13
f  92//13 33//13 91//13
f  93//13 33//13 92//13
f  93//13 36//13 33//13
f  94//13 36//13 93//13
f  94//13 95//13 36//13
f  96//13 95//13 94//13
f  96//13 5//13 95//13
f  20//13 5//13 96//13
f  20//13 8//13 5//13
f  17//13 8//13 20//13
f  17//13 97//13 8//13
f  98//13 97//13 17//13
f  98//13 99//13 97//13
f  100//13 99//13 98//13
f  100//13 101//13 99//13
f  102//13 101//13 100//13
f  102//13 103//13 101//13
f  104//13 103//13 102//13
f  104//13 105//13 103//13
f  41//13 105//13 104//13
f  41//13 31//13 105//13
f  43//13 31//13 41//13
f  43//13 29//13 31//13
f  106//13 29//13 43//13
f  106//13 107//13 29//13
f  108//13 107//13 106//13
f  108//13 109//13 107//13
f  110//13 109//13 108//13
f  110//13 111//13 109//13
f  112//13 111//13 110//13
f  112//13 113//13 111//13
f  114//13 113//13 112//13
f  114//13 11//13 113//13
f  115//13 11//13 114//13
f  115//13 9//13 11//13
f  116//13 9//13 115//13
f  116//13 117//13 9//13
f  118//13 117//13 116//13
f  118//13 119//13 117//13
f  45//13 119//13 118//13
f  45//13 120//13 119//13
f  47//13 120//13 45//13
f  47//13 121//13 120//13
f  122//13 121//13 47//13
f  122//13 123//13 121//13
f  123//13 122//13 124//13
f  125//14 55//14 126//14
f  55//14 125//14 53//14
f  126//15 56//15 127//15
f  56//15 126//15 55//15
f  128//16 65//16 129//16
f  65//16 128//16 63//16
f  130//17 63//17 128//17
f  63//17 130//17 61//17
f  71//18 131//18 132//18
f  131//18 71//18 73//18
f  87//19 133//19 134//19
f  133//19 87//19 89//19
f  73//20 135//20 131//20
f  135//20 73//20 75//20
f  28//21 136//21 26//21
f  136//21 28//21 79//21
f  81//22 137//22 138//22
f  137//22 81//22 83//22
f  124//23 139//23 123//23
f  139//23 124//23 140//23
f  141//24 142//24 143//24
f  144//24 141//24 145//24
f  141//24 144//24 142//24
f  142//24 146//24 147//24
f  142//24 147//24 148//24
f  146//24 142//24 15//24
f  142//24 148//24 125//24
f  15//24 142//24 13//24
f  142//24 125//24 126//24
f  13//24 142//24 149//24
f  142//24 126//24 127//24
f  149//24 142//24 150//24
f  142//24 127//24 151//24
f  150//24 142//24 39//24
f  142//24 151//24 21//24
f  39//24 142//24 37//24
f  37//24 142//24 152//24
f  153//24 152//24 142//24
f  21//24 143//24 142//24
f  143//24 21//24 23//24
f  143//24 23//24 130//24
f  143//24 130//24 128//24
f  143//24 128//24 129//24
f  143//24 129//24 154//24
f  143//24 154//24 3//24
f  143//24 3//24 2//24
f  143//24 2//24 132//24
f  143//24 132//24 131//24
f  143//24 131//24 135//24
f  143//24 135//24 27//24
f  143//24 27//24 26//24
f  143//24 26//24 136//24
f  143//24 136//24 138//24
f  138//24 155//24 143//24
f  155//24 138//24 137//24
f  155//24 137//24 156//24
f  155//24 156//24 134//24
f  155//24 134//24 133//24
f  155//24 133//24 157//24
f  35//24 155//24 157//24
f  34//24 155//24 35//24
f  34//24 158//24 155//24
f  159//24 158//24 34//24
f  7//24 158//24 159//24
f  6//24 158//24 7//24
f  160//24 158//24 6//24
f  161//24 158//24 160//24
f  162//24 158//24 161//24
f  163//24 158//24 162//24
f  164//24 158//24 163//24
f  30//24 158//24 164//24
f  32//24 158//24 30//24
f  165//24 158//24 32//24
f  166//24 158//24 165//24
f  167//24 158//24 166//24
f  168//24 158//24 167//24
f  10//24 158//24 168//24
f  12//24 158//24 10//24
f  169//24 158//24 12//24
f  170//24 158//24 169//24
f  171//24 158//24 170//24
f  172//24 158//24 171//24
f  139//24 158//24 172//24
f  140//24 158//24 139//24
f  158//24 140//24 173//24
f  173//24 140//24 174//24
f  173//24 174//24 46//24
f  173//24 46//24 48//24
f  173//24 48//24 175//24
f  173//24 175//24 176//24
f  173//24 176//24 177//24
f  173//24 177//24 178//24
f  173//24 178//24 179//24
f  173//24 179//24 180//24
f  173//24 180//24 181//24
f  173//24 181//24 182//24
f  173//24 182//24 42//24
f  173//24 42//24 44//24
f  173//24 44//24 183//24
f  173//24 183//24 184//24
f  173//24 184//24 185//24
f  173//24 185//24 186//24
f  173//24 186//24 19//24
f  173//24 19//24 18//24
f  173//24 18//24 187//24
f  173//24 187//24 188//24
f  173//24 188//24 189//24
f  190//24 189//24 191//24
f  173//24 189//24 190//24
f  190//24 191//24 192//24
f  193//24 190//24 192//24
f  194//24 190//24 193//24
f  195//24 190//24 194//24
f  196//24 190//24 195//24
f  197//24 190//24 196//24
f  198//24 190//24 197//24
f  199//24 190//24 198//24
f  200//24 190//24 199//24
f  201//24 190//24 200//24
f  202//24 190//24 201//24
f  190//24 203//24 153//24
f  203//24 190//24 202//24
f  190//24 153//24 204//24
f  205//24 153//24 203//24
f  206//24 153//24 205//24
f  207//24 153//24 206//24
f  208//24 153//24 207//24
f  209//24 153//24 208//24
f  210//24 153//24 209//24
f  152//24 153//24 211//24
f  211//24 153//24 210//24
f  117//25 12//25 9//25
f  12//25 117//25 169//25
f  120//26 170//26 119//26
f  170//26 120//26 171//26
f  109//27 165//27 107//27
f  165//27 109//27 166//27
f  89//28 157//28 133//28
f  157//28 89//28 91//28
f  99//29 162//29 161//29
f  162//29 99//29 101//29
f  101//30 163//30 162//30
f  163//30 101//30 103//30
f  97//31 161//31 160//31
f  161//31 97//31 99//31
f  146//32 49//32 147//32
f  49//32 146//32 50//32
f  88//33 194//33 193//33
f  194//33 88//33 86//33
f  207//34 64//34 208//34
f  64//34 207//34 66//34
f  70//35 205//35 203//35
f  205//35 70//35 69//35
f  20//36 187//36 18//36
f  187//36 20//36 96//36
f  122//37 140//37 124//37
f  140//37 122//37 174//37
f  108//38 180//38 110//38
f  180//38 108//38 181//38
f  148//39 53//39 125//39
f  53//39 148//39 51//39
f  147//40 51//40 148//40
f  51//40 147//40 49//40
f  151//41 24//41 21//41
f  24//41 151//41 57//41
f  127//42 57//42 151//42
f  57//42 127//42 56//42
f  129//43 67//43 154//43
f  67//43 129//43 65//43
f  154//44 1//44 3//44
f  1//44 154//44 67//44
f  4//45 132//45 2//45
f  132//45 4//45 71//45
f  75//46 27//46 135//46
f  27//46 75//46 25//46
f  83//47 156//47 137//47
f  156//47 83//47 85//47
f  85//48 134//48 156//48
f  134//48 85//48 87//48
f  79//49 138//49 136//49
f  138//49 79//49 81//49
f  121//50 171//50 120//50
f  171//50 121//50 172//50
f  123//51 172//51 121//51
f  172//51 123//51 139//51
f  119//52 169//52 117//52
f  169//52 119//52 170//52
f  113//53 167//53 111//53
f  167//53 113//53 168//53
f  111//54 166//54 109//54
f  166//54 111//54 167//54
f  11//55 168//55 113//55
f  168//55 11//55 10//55
f  107//56 32//56 29//56
f  32//56 107//56 165//56
f  95//57 7//57 159//57
f  7//57 95//57 5//57
f  91//58 35//58 157//58
f  35//58 91//58 33//58
f  8//59 160//59 6//59
f  160//59 8//59 97//59
f  103//60 164//60 163//60
f  164//60 103//60 105//60
f  105//61 30//61 164//61
f  30//61 105//61 31//61
f  149//62 16//62 13//62
f  16//62 149//62 52//62
f  210//63 59//63 211//63
f  59//63 210//63 60//63
f  86//64 195//64 194//64
f  195//64 86//64 84//64
f  78//65 199//65 198//65
f  199//65 78//65 77//65
f  82//66 197//66 196//66
f  197//66 82//66 80//66
f  69//67 206//67 205//67
f  206//67 69//67 68//67
f  74//68 202//68 201//68
f  202//68 74//68 72//68
f  72//69 203//69 202//69
f  203//69 72//69 70//69
f  77//70 200//70 199//70
f  200//70 77//70 76//70
f  92//71 192//71 191//71
f  192//71 92//71 90//71
f  93//72 191//72 189//72
f  191//72 93//72 92//72
f  90//73 193//73 192//73
f  193//73 90//73 88//73
f  96//74 188//74 187//74
f  188//74 96//74 94//74
f  100//75 186//75 185//75
f  186//75 100//75 98//75
f  102//76 185//76 184//76
f  185//76 102//76 100//76
f  98//77 19//77 186//77
f  19//77 98//77 17//77
f  104//78 184//78 183//78
f  184//78 104//78 102//78
f  115//79 176//79 116//79
f  176//79 115//79 177//79
f  118//80 48//80 45//80
f  48//80 118//80 175//80
f  116//81 175//81 118//81
f  175//81 116//81 176//81
f  47//82 174//82 122//82
f  174//82 47//82 46//82
f  110//83 179//83 112//83
f  179//83 110//83 180//83
f  114//84 177//84 115//84
f  177//84 114//84 178//84
f  106//85 181//85 108//85
f  181//85 106//85 182//85
f  23//86 61//86 130//86
f  61//86 23//86 22//86
f  36//87 159//87 34//87
f  159//87 36//87 95//87
f  39//88 54//88 150//88
f  54//88 39//88 38//88
f  15//89 50//89 146//89
f  50//89 15//89 14//89
f  211//90 58//90 152//90
f  58//90 211//90 59//90
f  209//91 60//91 210//91
f  60//91 209//91 62//91
f  84//92 196//92 195//92
f  196//92 84//92 82//92
f  80//93 198//93 197//93
f  198//93 80//93 78//93
f  206//94 66//94 207//94
f  66//94 206//94 68//94
f  76//95 201//95 200//95
f  201//95 76//95 74//95
f  94//96 189//96 188//96
f  189//96 94//96 93//96
f  41//97 183//97 44//97
f  183//97 41//97 104//97
f  112//98 178//98 114//98
f  178//98 112//98 179//98
f  43//99 182//99 106//99
f  182//99 43//99 42//99
f  150//100 52//100 149//100
f  52//100 150//100 54//100
f  208//101 62//101 209//101
f  62//101 208//101 64//101
f  152//102 40//102 37//102
f  40//102 152//102 58//102
f  212//24 213//24 214//24
f  213//24 212//24 215//24
f  216//24 217//24 212//24
f  216//24 212//24 214//24
f  217//24 216//24 218//24
f  218//24 216//24 219//24
f  218//24 220//24 217//24
f  218//24 219//24 221//24
f  220//24 218//24 222//24
f  215//103 143//103 213//103
f  143//103 215//103 141//103
f  215//104 145//104 141//104
f  145//104 215//104 212//104
f  217//105 145//105 212//105
f  145//105 217//105 144//105
f  217//106 142//106 144//106
f  142//106 217//106 220//106
f  222//103 142//103 220//103
f  142//103 222//103 153//103
f  222//104 204//104 153//104
f  204//104 222//104 218//104
f  221//105 204//105 218//105
f  204//105 221//105 190//105
f  221//107 173//107 190//107
f  173//107 221//107 219//107
f  173//108 216//108 158//108
f  216//108 173//108 219//108
f  216//109 155//109 158//109
f  155//109 216//109 214//109
f  214//110 143//110 155//110
f  143//110 214//110 213//110

