# File produced by Open Asset Import Library (http://www.assimp.sf.net)
# (assimp v3.1.187496374)

mtllib F-Fehu.obj.mtl

# 224 vertex positions
v  14.8817 1.88 5
v  14.7343 2.81072 0
v  14.7343 2.81072 5
v  14.8817 1.88 0
v  15 0 5
v  14.9704 0.941857 0
v  14.9704 0.941857 5
v  15 0 0
v  -15 0 0
v  -14.9704 0.941857 5
v  -14.9704 0.941857 0
v  -15 0 5
v  0.941857 14.9704 0
v  0 15 5
v  0.941857 14.9704 5
v  0 15 0
v  -0.941857 -14.9704 0
v  0 -15 5
v  -0.941857 -14.9704 5
v  0 -15 0
v  10.9345 10.2682 5
v  10.2682 10.9345 0
v  10.2682 10.9345 5
v  10.9345 10.2682 0
v  -9.56136 11.5577 0
v  -10.2682 10.9345 5
v  -9.56136 11.5577 5
v  -10.2682 10.9345 0
v  -4.63525 14.2658 0
v  -5.52187 13.9466 5
v  -4.63525 14.2658 5
v  -5.52187 13.9466 0
v  13.9466 5.52187 5
v  13.5724 6.38669 0
v  13.5724 6.38669 5
v  13.9466 5.52187 0
v  6.38669 13.5724 0
v  5.52187 13.9466 5
v  6.38669 13.5724 5
v  5.52187 13.9466 0
v  8.81678 12.1353 0
v  8.0374 12.6649 5
v  8.81678 12.1353 5
v  8.0374 12.6649 0
v  -13.9466 5.52187 0
v  -13.5724 6.38669 5
v  -13.5724 6.38669 0
v  -13.9466 5.52187 5
v  -11.5577 9.56136 0
v  -10.9345 10.2682 5
v  -10.9345 10.2682 0
v  -11.5577 9.56136 5
v  -1.88 14.8817 0
v  -2.81072 14.7343 5
v  -1.88 14.8817 5
v  -2.81072 14.7343 0
v  14.5287 -3.73035 5
v  14.7343 -2.81072 0
v  14.7343 -2.81072 5
v  14.5287 -3.73035 0
v  -11.5577 -9.56136 0
v  -12.1353 -8.81678 5
v  -12.1353 -8.81678 0
v  -11.5577 -9.56136 5
v  -13.9466 -5.52187 0
v  -14.2658 -4.63525 5
v  -14.2658 -4.63525 0
v  -13.9466 -5.52187 5
v  14.5287 3.73035 0
v  14.5287 3.73035 5
v  14.2658 4.63525 0
v  14.2658 4.63525 5
v  12.6649 8.0374 5
v  12.1353 8.81678 0
v  12.1353 8.81678 5
v  12.6649 8.0374 0
v  11.5577 9.56136 0
v  11.5577 9.56136 5
v  13.1446 7.22631 0
v  13.1446 7.22631 5
v  4.63525 14.2658 0
v  3.73035 14.5287 5
v  4.63525 14.2658 5
v  3.73035 14.5287 0
v  1.88 14.8817 0
v  1.88 14.8817 5
v  7.22631 13.1446 5
v  7.22631 13.1446 0
v  9.56136 11.5577 5
v  9.56136 11.5577 0
v  -14.5287 3.73035 0
v  -14.2658 4.63525 5
v  -14.2658 4.63525 0
v  -14.5287 3.73035 5
v  -12.1353 8.81678 0
v  -12.1353 8.81678 5
v  -14.8817 1.88 5
v  -14.8817 1.88 0
v  -7.22631 13.1446 0
v  -8.0374 12.6649 5
v  -7.22631 13.1446 5
v  -8.0374 12.6649 0
v  -6.38669 13.5724 0
v  -6.38669 13.5724 5
v  -8.81678 12.1353 5
v  -8.81678 12.1353 0
v  -3.73035 14.5287 0
v  -3.73035 14.5287 5
v  -0.941857 14.9704 5
v  -0.941857 14.9704 0
v  0.941857 -14.9704 0
v  1.88 -14.8817 5
v  0.941857 -14.9704 5
v  1.88 -14.8817 0
v  8.81678 -12.1353 0
v  9.56136 -11.5577 5
v  8.81678 -12.1353 5
v  9.56136 -11.5577 0
v  10.2682 -10.9345 5
v  10.9345 -10.2682 0
v  10.9345 -10.2682 5
v  10.2682 -10.9345 0
v  8.0374 -12.6649 0
v  8.0374 -12.6649 5
v  12.1353 -8.81678 5
v  12.6649 -8.0374 0
v  12.6649 -8.0374 5
v  12.1353 -8.81678 0
v  -4.63525 -14.2658 0
v  -3.73035 -14.5287 5
v  -4.63525 -14.2658 5
v  -3.73035 -14.5287 0
v  -6.38669 -13.5724 0
v  -5.52187 -13.9466 5
v  -6.38669 -13.5724 5
v  -5.52187 -13.9466 0
v  -12.6649 -8.0374 0
v  -13.1446 -7.22631 5
v  -13.1446 -7.22631 0
v  -12.6649 -8.0374 5
v  -14.9704 -0.941857 0
v  -14.9704 -0.941857 5
v  14.9704 -0.941857 0
v  14.8817 -1.88 0
v  14.2658 -4.63525 0
v  13.9466 -5.52187 0
v  13.5724 -6.38669 0
v  13.1446 -7.22631 0
v  11.5577 -9.56136 0
v  7.22631 -13.1446 0
v  6.38669 -13.5724 0
v  5.52187 -13.9466 0
v  4.63525 -14.2658 0
v  3.73035 -14.5287 0
v  2.81072 -14.7343 0
v  2.81072 14.7343 0
v  -1.88 -14.8817 0
v  -2.81072 -14.7343 0
v  -7.22631 -13.1446 0
v  -8.0374 -12.6649 0
v  -8.81678 -12.1353 0
v  -9.56136 -11.5577 0
v  -10.2682 -10.9345 0
v  -10.9345 -10.2682 0
v  -12.6649 8.0374 0
v  -13.1446 7.22631 0
v  -13.5724 -6.38669 0
v  -14.5287 -3.73035 0
v  -14.7343 -2.81072 0
v  -14.7343 2.81072 0
v  -14.8817 -1.88 0
v  2.81072 14.7343 5
v  -12.6649 8.0374 5
v  -13.1446 7.22631 5
v  -14.7343 2.81072 5
v  -3.01433 9.82599 5
v  -4.32446 9.82599 5
v  3.40327 9.63152 5
v  -3.01433 3.21392 5
v  -4.32446 -9.82599 5
v  -14.8817 -1.88 5
v  -14.7343 -2.81072 5
v  -14.5287 -3.73035 5
v  -13.5724 -6.38669 5
v  -10.9345 -10.2682 5
v  -10.2682 -10.9345 5
v  -9.56136 -11.5577 5
v  -8.81678 -12.1353 5
v  -8.0374 -12.6649 5
v  -7.22631 -13.1446 5
v  -3.01433 -9.82599 5
v  -2.81072 -14.7343 5
v  -1.88 -14.8817 5
v  2.81072 -14.7343 5
v  3.73035 -14.5287 5
v  4.63525 -14.2658 5
v  5.52187 -13.9466 5
v  6.38669 -13.5724 5
v  7.22631 -13.1446 5
v  -3.01433 -3.54145 5
v  11.5577 -9.56136 5
v  4.32446 3.79733 5
v  13.1446 -7.22631 5
v  13.5724 -6.38669 5
v  13.9466 -5.52187 5
v  14.2658 -4.63525 5
v  14.8817 -1.88 5
v  14.9704 -0.941857 5
v  4.32446 8.71033 5
v  3.40327 4.71852 5
v  -3.01433 1.37154 5
v  -3.01433 -1.69908 5
v  -4.32446 9.82599 2.1
v  -3.01433 3.21392 2.1
v  -3.01433 9.82599 2.1
v  -3.01433 1.37154 2.1
v  -3.01433 -1.69908 2.1
v  -4.32446 -9.82599 2.1
v  4.32446 8.71033 2.1
v  3.40327 9.63152 2.1
v  -3.01433 -3.54145 2.1
v  4.32446 3.79733 2.1
v  3.40327 4.71852 2.1
v  -3.01433 -9.82599 2.1

# 0 UV coordinates

# 107 vertex normals
vn 0.987688 0.156434 0
vn 0.999507 0.0314109 0
vn -0.999507 0.0314109 0
vn 0.0314109 0.999507 0
vn -0.0314109 -0.999507 0
vn 0.707107 0.707107 0
vn -0.661312 0.750111 0
vn -0.338738 0.940881 0
vn 0.917755 0.397148 0
vn 0.397148 0.917755 0
vn 0.562083 0.827081 0
vn -0.917755 0.397148 0
vn -0.750111 0.661312 0
vn -0.156434 0.987688 0
vn 0.975917 -0.218144 0
vn -0.790155 -0.612907 0
vn -0.940881 -0.338738 0
vn 0.975917 0.218144 0
vn 0.960294 0.278991 0
vn 0.827081 0.562083 0
vn 0.790155 0.612907 0
vn 0.891007 0.45399 0
vn 0.278991 0.960294 0
vn 0.338738 0.940881 0
vn 0.0941092 0.995562 0
vn 0.509042 0.860742 0
vn 0.661312 0.750111 0
vn -0.960294 0.278991 0
vn -0.790155 0.612907 0
vn -0.940881 0.338738 0
vn -0.995562 0.0941092 0
vn -0.509042 0.860742 0
vn -0.45399 0.891007 0
vn -0.562083 0.827081 0
vn -0.278991 0.960294 0
vn -0.0314109 0.999507 0
vn 0.0941092 -0.995562 0
vn 0.0314109 -0.999507 0
vn 0.612907 -0.790155 0
vn 0.707107 -0.707107 0
vn 0.562083 -0.827081 0
vn 0.827081 -0.562083 0
vn -0.278991 -0.960294 0
vn -0.397148 -0.917755 0
vn -0.338738 -0.940881 0
vn -0.860742 -0.509042 0
vn -0.827081 -0.562083 0
vn -0.999507 -0.0314109 0
vn 0 0 -1
vn 0.995562 0.0941092 0
vn 0.218144 0.975917 0
vn 0.612907 0.790155 0
vn -0.827081 0.562083 0
vn -0.891007 0.45399 0
vn -0.860742 0.509042 0
vn -0.975917 0.218144 0
vn -0.987688 0.156434 0
vn 0 0 1
vn -0.218144 0.975917 0
vn 0.999507 -0.0314109 0
vn 0.218144 -0.975917 0
vn 0.338738 -0.940881 0
vn 0.278991 -0.960294 0
vn 0.661312 -0.750111 0
vn 0.397148 -0.917755 0
vn 0.509042 -0.860742 0
vn 0.45399 -0.891007 0
vn 0.750111 -0.661312 0
vn 0.790155 -0.612907 0
vn 0.891007 -0.45399 0
vn 0.940881 -0.338738 0
vn 0.917755 -0.397148 0
vn 0.960294 -0.278991 0
vn -0.612907 -0.790155 0
vn -0.707107 -0.707107 0
vn -0.661312 -0.750111 0
vn -0.562083 -0.827081 0
vn -0.45399 -0.891007 0
vn -0.509042 -0.860742 0
vn -0.0941092 -0.995562 0
vn -0.156434 -0.987688 0
vn -0.750111 -0.661312 0
vn -0.917755 -0.397148 0
vn -0.891007 -0.45399 0
vn -0.975917 -0.218144 0
vn -0.995562 -0.0941092 0
vn -0.987688 -0.156434 0
vn 0.940881 0.338738 0
vn 0.750111 0.661312 0
vn 0.860742 0.509042 0
vn 0.156434 0.987688 0
vn 0.45399 0.891007 0
vn -0.707107 0.707107 0
vn -0.397148 0.917755 0
vn -0.612907 0.790155 0
vn -0.0941092 0.995562 0
vn 0.987688 -0.156434 0
vn 0.156434 -0.987688 0
vn 0.860742 -0.509042 0
vn -0.218144 -0.975917 0
vn -0.960294 -0.278991 0
vn 0.995562 -0.0941092 0
vn 0.707107 -0.707106 0
vn -1 0 0
vn 0 1 0
vn 1 0 0
vn 0 -1 0

# Mesh 'OpenSCAD_Model' with 444 faces
g OpenSCAD_Model
usemtl DefaultMaterial
f  1//1 2//1 3//1
f  2//1 1//1 4//1
f  5//2 6//2 7//2
f  6//2 5//2 8//2
f  9//3 10//3 11//3
f  10//3 9//3 12//3
f  13//4 14//4 15//4
f  14//4 13//4 16//4
f  17//5 18//5 19//5
f  18//5 17//5 20//5
f  21//6 22//6 23//6
f  22//6 21//6 24//6
f  25//7 26//7 27//7
f  26//7 25//7 28//7
f  29//8 30//8 31//8
f  30//8 29//8 32//8
f  33//9 34//9 35//9
f  34//9 33//9 36//9
f  37//10 38//10 39//10
f  38//10 37//10 40//10
f  41//11 42//11 43//11
f  42//11 41//11 44//11
f  45//12 46//12 47//12
f  46//12 45//12 48//12
f  49//13 50//13 51//13
f  50//13 49//13 52//13
f  53//14 54//14 55//14
f  54//14 53//14 56//14
f  57//15 58//15 59//15
f  58//15 57//15 60//15
f  61//16 62//16 63//16
f  62//16 61//16 64//16
f  65//17 66//17 67//17
f  66//17 65//17 68//17
f  3//18 69//18 70//18
f  69//18 3//18 2//18
f  70//19 71//19 72//19
f  71//19 70//19 69//19
f  73//20 74//20 75//20
f  74//20 73//20 76//20
f  75//21 77//21 78//21
f  77//21 75//21 74//21
f  35//22 79//22 80//22
f  79//22 35//22 34//22
f  81//23 82//23 83//23
f  82//23 81//23 84//23
f  40//24 83//24 38//24
f  83//24 40//24 81//24
f  85//25 15//25 86//25
f  15//25 85//25 13//25
f  44//26 87//26 42//26
f  87//26 44//26 88//26
f  22//27 89//27 23//27
f  89//27 22//27 90//27
f  91//28 92//28 93//28
f  92//28 91//28 94//28
f  95//29 52//29 49//29
f  52//29 95//29 96//29
f  93//30 48//30 45//30
f  48//30 93//30 92//30
f  11//31 97//31 98//31
f  97//31 11//31 10//31
f  99//32 100//32 101//32
f  100//32 99//32 102//32
f  103//33 101//33 104//33
f  101//33 103//33 99//33
f  102//34 105//34 100//34
f  105//34 102//34 106//34
f  107//35 31//35 108//35
f  31//35 107//35 29//35
f  16//36 109//36 14//36
f  109//36 16//36 110//36
f  111//37 112//37 113//37
f  112//37 111//37 114//37
f  20//38 113//38 18//38
f  113//38 20//38 111//38
f  115//39 116//39 117//39
f  116//39 115//39 118//39
f  119//40 120//40 121//40
f  120//40 119//40 122//40
f  123//41 117//41 124//41
f  117//41 123//41 115//41
f  125//42 126//42 127//42
f  126//42 125//42 128//42
f  129//43 130//43 131//43
f  130//43 129//43 132//43
f  133//44 134//44 135//44
f  134//44 133//44 136//44
f  136//45 131//45 134//45
f  131//45 136//45 129//45
f  137//46 138//46 139//46
f  138//46 137//46 140//46
f  63//47 140//47 137//47
f  140//47 63//47 62//47
f  141//48 12//48 9//48
f  12//48 141//48 142//48
f  143//49 6//49 8//49
f  144//49 6//49 143//49
f  144//49 4//49 6//49
f  58//49 4//49 144//49
f  58//49 2//49 4//49
f  60//49 2//49 58//49
f  60//49 69//49 2//49
f  145//49 69//49 60//49
f  145//49 71//49 69//49
f  146//49 71//49 145//49
f  146//49 36//49 71//49
f  147//49 36//49 146//49
f  147//49 34//49 36//49
f  148//49 34//49 147//49
f  148//49 79//49 34//49
f  126//49 79//49 148//49
f  126//49 76//49 79//49
f  128//49 76//49 126//49
f  128//49 74//49 76//49
f  149//49 74//49 128//49
f  149//49 77//49 74//49
f  120//49 77//49 149//49
f  120//49 24//49 77//49
f  122//49 24//49 120//49
f  122//49 22//49 24//49
f  118//49 22//49 122//49
f  118//49 90//49 22//49
f  115//49 90//49 118//49
f  115//49 41//49 90//49
f  123//49 41//49 115//49
f  123//49 44//49 41//49
f  150//49 44//49 123//49
f  150//49 88//49 44//49
f  151//49 88//49 150//49
f  151//49 37//49 88//49
f  152//49 37//49 151//49
f  152//49 40//49 37//49
f  153//49 40//49 152//49
f  153//49 81//49 40//49
f  154//49 81//49 153//49
f  154//49 84//49 81//49
f  155//49 84//49 154//49
f  155//49 156//49 84//49
f  114//49 156//49 155//49
f  114//49 85//49 156//49
f  111//49 85//49 114//49
f  111//49 13//49 85//49
f  20//49 13//49 111//49
f  20//49 16//49 13//49
f  17//49 16//49 20//49
f  17//49 110//49 16//49
f  157//49 110//49 17//49
f  157//49 53//49 110//49
f  158//49 53//49 157//49
f  158//49 56//49 53//49
f  132//49 56//49 158//49
f  132//49 107//49 56//49
f  129//49 107//49 132//49
f  129//49 29//49 107//49
f  136//49 29//49 129//49
f  136//49 32//49 29//49
f  133//49 32//49 136//49
f  133//49 103//49 32//49
f  159//49 103//49 133//49
f  159//49 99//49 103//49
f  160//49 99//49 159//49
f  160//49 102//49 99//49
f  161//49 102//49 160//49
f  161//49 106//49 102//49
f  162//49 106//49 161//49
f  162//49 25//49 106//49
f  163//49 25//49 162//49
f  163//49 28//49 25//49
f  164//49 28//49 163//49
f  164//49 51//49 28//49
f  61//49 51//49 164//49
f  61//49 49//49 51//49
f  63//49 49//49 61//49
f  63//49 95//49 49//49
f  137//49 95//49 63//49
f  137//49 165//49 95//49
f  139//49 165//49 137//49
f  139//49 166//49 165//49
f  167//49 166//49 139//49
f  167//49 47//49 166//49
f  65//49 47//49 167//49
f  65//49 45//49 47//49
f  67//49 45//49 65//49
f  67//49 93//49 45//49
f  168//49 93//49 67//49
f  168//49 91//49 93//49
f  169//49 91//49 168//49
f  169//49 170//49 91//49
f  171//49 170//49 169//49
f  171//49 98//49 170//49
f  141//49 98//49 171//49
f  141//49 11//49 98//49
f  11//49 141//49 9//49
f  7//50 4//50 1//50
f  4//50 7//50 6//50
f  84//51 172//51 82//51
f  172//51 84//51 156//51
f  90//52 43//52 89//52
f  43//52 90//52 41//52
f  165//53 96//53 95//53
f  96//53 165//53 173//53
f  47//54 174//54 166//54
f  174//54 47//54 46//54
f  166//55 173//55 165//55
f  173//55 166//55 174//55
f  170//56 94//56 91//56
f  94//56 170//56 175//56
f  98//57 175//57 170//57
f  175//57 98//57 97//57
f  108//58 176//58 54//58
f  31//58 176//58 108//58
f  176//58 55//58 54//58
f  176//58 109//58 55//58
f  176//58 14//58 109//58
f  176//58 31//58 177//58
f  14//58 176//58 178//58
f  178//58 176//58 179//58
f  30//58 177//58 31//58
f  104//58 177//58 30//58
f  101//58 177//58 104//58
f  100//58 177//58 101//58
f  105//58 177//58 100//58
f  27//58 177//58 105//58
f  26//58 177//58 27//58
f  50//58 177//58 26//58
f  52//58 177//58 50//58
f  96//58 177//58 52//58
f  173//58 177//58 96//58
f  174//58 177//58 173//58
f  46//58 177//58 174//58
f  48//58 177//58 46//58
f  92//58 177//58 48//58
f  94//58 177//58 92//58
f  175//58 177//58 94//58
f  97//58 177//58 175//58
f  10//58 177//58 97//58
f  12//58 177//58 10//58
f  177//58 12//58 180//58
f  180//58 12//58 142//58
f  180//58 142//58 181//58
f  180//58 181//58 182//58
f  180//58 182//58 183//58
f  180//58 183//58 66//58
f  180//58 66//58 68//58
f  180//58 68//58 184//58
f  180//58 184//58 138//58
f  180//58 138//58 140//58
f  180//58 140//58 62//58
f  180//58 62//58 64//58
f  180//58 64//58 185//58
f  180//58 185//58 186//58
f  180//58 186//58 187//58
f  180//58 187//58 188//58
f  180//58 188//58 189//58
f  180//58 189//58 190//58
f  180//58 190//58 135//58
f  180//58 135//58 134//58
f  131//58 191//58 180//58
f  180//58 134//58 131//58
f  191//58 131//58 130//58
f  191//58 130//58 192//58
f  193//58 191//58 192//58
f  19//58 191//58 193//58
f  18//58 191//58 19//58
f  113//58 191//58 18//58
f  112//58 191//58 113//58
f  194//58 191//58 112//58
f  195//58 191//58 194//58
f  196//58 191//58 195//58
f  197//58 191//58 196//58
f  198//58 191//58 197//58
f  199//58 191//58 198//58
f  191//58 199//58 200//58
f  124//58 200//58 199//58
f  117//58 200//58 124//58
f  116//58 200//58 117//58
f  200//58 201//58 202//58
f  201//58 200//58 121//58
f  121//58 200//58 119//58
f  119//58 200//58 116//58
f  125//58 202//58 201//58
f  127//58 202//58 125//58
f  203//58 202//58 127//58
f  204//58 202//58 203//58
f  205//58 202//58 204//58
f  206//58 202//58 205//58
f  57//58 202//58 206//58
f  59//58 202//58 57//58
f  207//58 202//58 59//58
f  208//58 202//58 207//58
f  5//58 202//58 208//58
f  202//58 5//58 7//58
f  202//58 7//58 1//58
f  202//58 1//58 3//58
f  202//58 3//58 70//58
f  202//58 70//58 72//58
f  202//58 72//58 33//58
f  202//58 33//58 35//58
f  202//58 35//58 80//58
f  202//58 80//58 73//58
f  202//58 73//58 75//58
f  209//58 75//58 78//58
f  75//58 209//58 202//58
f  209//58 78//58 21//58
f  209//58 21//58 23//58
f  209//58 23//58 89//58
f  209//58 89//58 43//58
f  209//58 43//58 42//58
f  209//58 42//58 87//58
f  178//58 87//58 39//58
f  87//58 178//58 209//58
f  178//58 39//58 38//58
f  178//58 38//58 83//58
f  178//58 83//58 82//58
f  172//58 178//58 82//58
f  86//58 178//58 172//58
f  15//58 178//58 86//58
f  14//58 178//58 15//58
f  209//58 210//58 202//58
f  211//58 210//58 209//58
f  210//58 211//58 212//58
f  56//59 108//59 54//59
f  108//59 56//59 107//59
f  208//60 8//60 5//60
f  8//60 208//60 143//60
f  155//61 195//61 194//61
f  195//61 155//61 154//61
f  153//62 197//62 196//62
f  197//62 153//62 152//62
f  154//63 196//63 195//63
f  196//63 154//63 153//63
f  118//64 119//64 116//64
f  119//64 118//64 122//64
f  152//65 198//65 197//65
f  198//65 152//65 151//65
f  150//66 124//66 199//66
f  124//66 150//66 123//66
f  151//67 199//67 198//67
f  199//67 151//67 150//67
f  121//68 149//68 201//68
f  149//68 121//68 120//68
f  201//69 128//69 125//69
f  128//69 201//69 149//69
f  203//70 147//70 204//70
f  147//70 203//70 148//70
f  205//71 145//71 206//71
f  145//71 205//71 146//71
f  204//72 146//72 205//72
f  146//72 204//72 147//72
f  206//73 60//73 57//73
f  60//73 206//73 145//73
f  162//74 188//74 187//74
f  188//74 162//74 161//74
f  163//75 185//75 164//75
f  185//75 163//75 186//75
f  163//76 187//76 186//76
f  187//76 163//76 162//76
f  161//77 189//77 188//77
f  189//77 161//77 160//77
f  159//78 135//78 190//78
f  135//78 159//78 133//78
f  160//79 190//79 189//79
f  190//79 160//79 159//79
f  157//80 19//80 193//80
f  19//80 157//80 17//80
f  158//81 193//81 192//81
f  193//81 158//81 157//81
f  164//82 64//82 61//82
f  64//82 164//82 185//82
f  167//83 68//83 65//83
f  68//83 167//83 184//83
f  139//84 184//84 167//84
f  184//84 139//84 138//84
f  168//85 182//85 169//85
f  182//85 168//85 183//85
f  171//86 142//86 141//86
f  142//86 171//86 181//86
f  169//87 181//87 171//87
f  181//87 169//87 182//87
f  72//88 36//88 33//88
f  36//88 72//88 71//88
f  78//89 24//89 21//89
f  24//89 78//89 77//89
f  80//90 76//90 73//90
f  76//90 80//90 79//90
f  156//91 86//91 172//91
f  86//91 156//91 85//91
f  88//92 39//92 87//92
f  39//92 88//92 37//92
f  51//93 26//93 28//93
f  26//93 51//93 50//93
f  32//94 104//94 30//94
f  104//94 32//94 103//94
f  106//95 27//95 105//95
f  27//95 106//95 25//95
f  110//96 55//96 109//96
f  55//96 110//96 53//96
f  59//97 144//97 207//97
f  144//97 59//97 58//97
f  114//98 194//98 112//98
f  194//98 114//98 155//98
f  127//99 148//99 203//99
f  148//99 127//99 126//99
f  132//100 192//100 130//100
f  192//100 132//100 158//100
f  67//101 183//101 168//101
f  183//101 67//101 66//101
f  207//102 143//102 208//102
f  143//102 207//102 144//102
f  213//58 214//58 215//58
f  214//58 213//58 216//58
f  216//58 213//58 217//58
f  218//58 217//58 213//58
f  214//58 219//58 220//58
f  219//58 214//58 216//58
f  217//58 218//58 221//58
f  217//58 222//58 223//58
f  222//58 217//58 221//58
f  221//58 218//58 224//58
f  179//103 220//103 178//103
f  220//103 179//103 214//103
f  219//75 178//75 220//75
f  178//75 219//75 209//75
f  216//93 209//93 219//93
f  209//93 216//93 211//93
f  217//104 211//104 216//104
f  211//104 217//104 212//104
f  212//40 223//40 210//40
f  223//40 212//40 217//40
f  222//75 210//75 223//75
f  210//75 222//75 202//75
f  222//93 200//93 202//93
f  200//93 222//93 221//93
f  224//104 200//104 221//104
f  200//104 224//104 191//104
f  224//105 180//105 191//105
f  180//105 224//105 218//105
f  180//106 213//106 177//106
f  213//106 180//106 218//106
f  213//107 176//107 177//107
f  176//107 213//107 215//107
f  214//104 176//104 215//104
f  176//104 214//104 179//104

