# File produced by Open Asset Import Library (http://www.assimp.sf.net)
# (assimp v3.1.187496374)

mtllib I-Isa.obj.mtl

# 208 vertex positions
v  15 0 5
v  14.9704 0.941857 0
v  14.9704 0.941857 5
v  15 0 0
v  -15 0 0
v  -14.9704 0.941857 5
v  -14.9704 0.941857 0
v  -15 0 5
v  0.941857 14.9704 0
v  0 15 5
v  0.941857 14.9704 5
v  0 15 0
v  -0.941857 -14.9704 0
v  0 -15 5
v  -0.941857 -14.9704 5
v  0 -15 0
v  10.9345 10.2682 5
v  10.2682 10.9345 0
v  10.2682 10.9345 5
v  10.9345 10.2682 0
v  -9.56136 11.5577 0
v  -10.2682 10.9345 5
v  -9.56136 11.5577 5
v  -10.2682 10.9345 0
v  -4.63525 14.2658 0
v  -5.52187 13.9466 5
v  -4.63525 14.2658 5
v  -5.52187 13.9466 0
v  13.9466 5.52187 5
v  13.5724 6.38669 0
v  13.5724 6.38669 5
v  13.9466 5.52187 0
v  6.38669 13.5724 0
v  5.52187 13.9466 5
v  6.38669 13.5724 5
v  5.52187 13.9466 0
v  8.81678 12.1353 0
v  8.0374 12.6649 5
v  8.81678 12.1353 5
v  8.0374 12.6649 0
v  -13.9466 5.52187 0
v  -13.5724 6.38669 5
v  -13.5724 6.38669 0
v  -13.9466 5.52187 5
v  -11.5577 9.56136 0
v  -10.9345 10.2682 5
v  -10.9345 10.2682 0
v  -11.5577 9.56136 5
v  -1.88 14.8817 0
v  -2.81072 14.7343 5
v  -1.88 14.8817 5
v  -2.81072 14.7343 0
v  14.5287 -3.73035 5
v  14.7343 -2.81072 0
v  14.7343 -2.81072 5
v  14.5287 -3.73035 0
v  -11.5577 -9.56136 0
v  -12.1353 -8.81678 5
v  -12.1353 -8.81678 0
v  -11.5577 -9.56136 5
v  -14.8817 -1.88 0
v  -14.9704 -0.941857 5
v  -14.9704 -0.941857 0
v  -14.8817 -1.88 5
v  14.9704 -0.941857 0
v  14.8817 -1.88 0
v  14.8817 1.88 0
v  14.7343 2.81072 0
v  14.5287 3.73035 0
v  14.2658 -4.63525 0
v  14.2658 4.63525 0
v  13.9466 -5.52187 0
v  13.5724 -6.38669 0
v  13.1446 -7.22631 0
v  13.1446 7.22631 0
v  12.6649 -8.0374 0
v  12.6649 8.0374 0
v  12.1353 -8.81678 0
v  12.1353 8.81678 0
v  11.5577 -9.56136 0
v  11.5577 9.56136 0
v  10.9345 -10.2682 0
v  10.2682 -10.9345 0
v  9.56136 -11.5577 0
v  9.56136 11.5577 0
v  8.81678 -12.1353 0
v  8.0374 -12.6649 0
v  7.22631 -13.1446 0
v  7.22631 13.1446 0
v  6.38669 -13.5724 0
v  5.52187 -13.9466 0
v  4.63525 -14.2658 0
v  4.63525 14.2658 0
v  3.73035 -14.5287 0
v  3.73035 14.5287 0
v  2.81072 -14.7343 0
v  2.81072 14.7343 0
v  1.88 -14.8817 0
v  1.88 14.8817 0
v  0.941857 -14.9704 0
v  -0.941857 14.9704 0
v  -1.88 -14.8817 0
v  -2.81072 -14.7343 0
v  -3.73035 -14.5287 0
v  -3.73035 14.5287 0
v  -4.63525 -14.2658 0
v  -5.52187 -13.9466 0
v  -6.38669 -13.5724 0
v  -6.38669 13.5724 0
v  -7.22631 -13.1446 0
v  -7.22631 13.1446 0
v  -8.0374 -12.6649 0
v  -8.0374 12.6649 0
v  -8.81678 -12.1353 0
v  -8.81678 12.1353 0
v  -9.56136 -11.5577 0
v  -10.2682 -10.9345 0
v  -10.9345 -10.2682 0
v  -12.1353 8.81678 0
v  -12.6649 -8.0374 0
v  -12.6649 8.0374 0
v  -13.1446 -7.22631 0
v  -13.1446 7.22631 0
v  -13.5724 -6.38669 0
v  -13.9466 -5.52187 0
v  -14.2658 -4.63525 0
v  -14.2658 4.63525 0
v  -14.5287 -3.73035 0
v  -14.5287 3.73035 0
v  -14.7343 -2.81072 0
v  -14.7343 2.81072 0
v  -14.8817 1.88 0
v  14.7343 2.81072 5
v  14.5287 3.73035 5
v  14.2658 4.63525 5
v  12.6649 8.0374 5
v  12.1353 8.81678 5
v  11.5577 9.56136 5
v  13.1446 7.22631 5
v  3.73035 14.5287 5
v  4.63525 14.2658 5
v  7.22631 13.1446 5
v  9.56136 11.5577 5
v  -14.2658 4.63525 5
v  -14.5287 3.73035 5
v  -12.1353 8.81678 5
v  0.654395 9.81595 5
v  14.8817 1.88 5
v  0.654395 -9.81595 5
v  2.81072 14.7343 5
v  1.88 14.8817 5
v  -0.654395 9.81595 5
v  -0.941857 14.9704 5
v  -3.73035 14.5287 5
v  -6.38669 13.5724 5
v  -7.22631 13.1446 5
v  -8.0374 12.6649 5
v  -8.81678 12.1353 5
v  -12.6649 8.0374 5
v  -13.1446 7.22631 5
v  -14.7343 2.81072 5
v  -14.8817 1.88 5
v  -0.654395 -9.81595 5
v  -14.7343 -2.81072 5
v  -14.5287 -3.73035 5
v  -14.2658 -4.63525 5
v  -13.9466 -5.52187 5
v  -13.5724 -6.38669 5
v  -13.1446 -7.22631 5
v  -12.6649 -8.0374 5
v  -10.9345 -10.2682 5
v  -10.2682 -10.9345 5
v  -9.56136 -11.5577 5
v  -8.81678 -12.1353 5
v  -8.0374 -12.6649 5
v  -7.22631 -13.1446 5
v  -6.38669 -13.5724 5
v  -5.52187 -13.9466 5
v  -4.63525 -14.2658 5
v  -3.73035 -14.5287 5
v  -2.81072 -14.7343 5
v  -1.88 -14.8817 5
v  0.941857 -14.9704 5
v  1.88 -14.8817 5
v  2.81072 -14.7343 5
v  3.73035 -14.5287 5
v  4.63525 -14.2658 5
v  5.52187 -13.9466 5
v  6.38669 -13.5724 5
v  7.22631 -13.1446 5
v  8.0374 -12.6649 5
v  8.81678 -12.1353 5
v  9.56136 -11.5577 5
v  10.2682 -10.9345 5
v  10.9345 -10.2682 5
v  11.5577 -9.56136 5
v  12.1353 -8.81678 5
v  12.6649 -8.0374 5
v  13.1446 -7.22631 5
v  13.5724 -6.38669 5
v  13.9466 -5.52187 5
v  14.2658 -4.63525 5
v  14.8817 -1.88 5
v  14.9704 -0.941857 5
v  -0.654395 9.81595 2.1
v  0.654395 -9.81595 2.1
v  0.654395 9.81595 2.1
v  -0.654395 -9.81595 2.1

# 0 UV coordinates

# 106 vertex normals
vn 0.999507 0.0314109 0
vn -0.999507 0.0314109 0
vn 0.0314109 0.999507 0
vn -0.0314109 -0.999507 0
vn 0.707107 0.707107 0
vn -0.661312 0.750111 0
vn -0.338738 0.940881 0
vn 0.917755 0.397148 0
vn 0.397148 0.917755 0
vn 0.562083 0.827081 0
vn -0.917755 0.397148 0
vn -0.750111 0.661312 0
vn -0.156434 0.987688 0
vn 0.975917 -0.218144 0
vn -0.790155 -0.612907 0
vn -0.995562 -0.0941092 0
vn 0 0 -1
vn 0.975917 0.218144 0
vn 0.960294 0.278991 0
vn 0.827081 0.562083 0
vn 0.790155 0.612907 0
vn 0.891007 0.45399 0
vn 0.278991 0.960294 0
vn 0.338738 0.940881 0
vn 0.509042 0.860742 0
vn 0.612907 0.790155 0
vn -0.960294 0.278991 0
vn -0.790155 0.612907 0
vn -0.940881 0.338738 0
vn 0 0 1
vn -0.509042 0.860742 0
vn -0.45399 0.891007 0
vn -0.562083 0.827081 0
vn -0.278991 0.960294 0
vn -0.0314109 0.999507 0
vn 0.0941092 -0.995562 0
vn 0.0314109 -0.999507 0
vn 0.612907 -0.790155 0
vn 0.707107 -0.707107 0
vn 0.562083 -0.827081 0
vn 0.827081 -0.562083 0
vn -0.278991 -0.960294 0
vn -0.397148 -0.917755 0
vn -0.338738 -0.940881 0
vn -0.860742 -0.509042 0
vn -0.827081 -0.562083 0
vn -0.940881 -0.338738 0
vn -0.999507 -0.0314109 0
vn 0.987688 0.156434 0
vn 0.995562 0.0941092 0
vn 0.218144 0.975917 0
vn 0.156434 0.987688 0
vn 0.0941092 0.995562 0
vn 0.661312 0.750111 0
vn -0.827081 0.562083 0
vn -0.860742 0.509042 0
vn -0.975917 0.218144 0
vn -0.987688 0.156434 0
vn -0.995562 0.0941092 0
vn -0.612907 0.790155 0
vn -0.218144 0.975917 0
vn 0.999507 -0.0314109 0
vn 0.218144 -0.975917 0
vn 0.338738 -0.940881 0
vn 0.661312 -0.750111 0
vn 0.397148 -0.917755 0
vn 0.509042 -0.860742 0
vn 0.750111 -0.661312 0
vn 0.790155 -0.612907 0
vn 0.891007 -0.45399 0
vn 0.940881 -0.338738 0
vn 0.917755 -0.397148 0
vn 0.960294 -0.278991 0
vn -0.612907 -0.790155 0
vn -0.707107 -0.707107 0
vn -0.661312 -0.750111 0
vn -0.562083 -0.827081 0
vn -0.45399 -0.891007 0
vn -0.509042 -0.860742 0
vn -0.0941092 -0.995562 0
vn -0.156434 -0.987688 0
vn -0.750111 -0.661312 0
vn -0.917755 -0.397148 0
vn -0.891007 -0.45399 0
vn -0.975917 -0.218144 0
vn 0.940881 0.338738 0
vn 0.750111 0.661312 0
vn 0.860742 0.509042 0
vn 0.45399 0.891007 0
vn -0.707107 0.707107 0
vn -0.891007 0.45399 0
vn -0.397148 0.917755 0
vn -0.0941092 0.995562 0
vn 0.987688 -0.156434 0
vn 0.156434 -0.987688 0
vn 0.278991 -0.960294 0
vn 0.45399 -0.891007 0
vn 0.860742 -0.509042 0
vn -0.218144 -0.975917 0
vn -0.960294 -0.278991 0
vn -0.987688 -0.156434 0
vn 0.995562 -0.0941092 0
vn 0 -1 0
vn 0 1 0
vn -1 0 0
vn 1 0 0

# Mesh 'OpenSCAD_Model' with 412 faces
g OpenSCAD_Model
usemtl DefaultMaterial
f  1//1 2//1 3//1
f  2//1 1//1 4//1
f  5//2 6//2 7//2
f  6//2 5//2 8//2
f  9//3 10//3 11//3
f  10//3 9//3 12//3
f  13//4 14//4 15//4
f  14//4 13//4 16//4
f  17//5 18//5 19//5
f  18//5 17//5 20//5
f  21//6 22//6 23//6
f  22//6 21//6 24//6
f  25//7 26//7 27//7
f  26//7 25//7 28//7
f  29//8 30//8 31//8
f  30//8 29//8 32//8
f  33//9 34//9 35//9
f  34//9 33//9 36//9
f  37//10 38//10 39//10
f  38//10 37//10 40//10
f  41//11 42//11 43//11
f  42//11 41//11 44//11
f  45//12 46//12 47//12
f  46//12 45//12 48//12
f  49//13 50//13 51//13
f  50//13 49//13 52//13
f  53//14 54//14 55//14
f  54//14 53//14 56//14
f  57//15 58//15 59//15
f  58//15 57//15 60//15
f  61//16 62//16 63//16
f  62//16 61//16 64//16
f  65//17 2//17 4//17
f  66//17 2//17 65//17
f  66//17 67//17 2//17
f  54//17 67//17 66//17
f  54//17 68//17 67//17
f  56//17 68//17 54//17
f  56//17 69//17 68//17
f  70//17 69//17 56//17
f  70//17 71//17 69//17
f  72//17 71//17 70//17
f  72//17 32//17 71//17
f  73//17 32//17 72//17
f  73//17 30//17 32//17
f  74//17 30//17 73//17
f  74//17 75//17 30//17
f  76//17 75//17 74//17
f  76//17 77//17 75//17
f  78//17 77//17 76//17
f  78//17 79//17 77//17
f  80//17 79//17 78//17
f  80//17 81//17 79//17
f  82//17 81//17 80//17
f  82//17 20//17 81//17
f  83//17 20//17 82//17
f  83//17 18//17 20//17
f  84//17 18//17 83//17
f  84//17 85//17 18//17
f  86//17 85//17 84//17
f  86//17 37//17 85//17
f  87//17 37//17 86//17
f  87//17 40//17 37//17
f  88//17 40//17 87//17
f  88//17 89//17 40//17
f  90//17 89//17 88//17
f  90//17 33//17 89//17
f  91//17 33//17 90//17
f  91//17 36//17 33//17
f  92//17 36//17 91//17
f  92//17 93//17 36//17
f  94//17 93//17 92//17
f  94//17 95//17 93//17
f  96//17 95//17 94//17
f  96//17 97//17 95//17
f  98//17 97//17 96//17
f  98//17 99//17 97//17
f  100//17 99//17 98//17
f  100//17 9//17 99//17
f  16//17 9//17 100//17
f  16//17 12//17 9//17
f  13//17 12//17 16//17
f  13//17 101//17 12//17
f  102//17 101//17 13//17
f  102//17 49//17 101//17
f  103//17 49//17 102//17
f  103//17 52//17 49//17
f  104//17 52//17 103//17
f  104//17 105//17 52//17
f  106//17 105//17 104//17
f  106//17 25//17 105//17
f  107//17 25//17 106//17
f  107//17 28//17 25//17
f  108//17 28//17 107//17
f  108//17 109//17 28//17
f  110//17 109//17 108//17
f  110//17 111//17 109//17
f  112//17 111//17 110//17
f  112//17 113//17 111//17
f  114//17 113//17 112//17
f  114//17 115//17 113//17
f  116//17 115//17 114//17
f  116//17 21//17 115//17
f  117//17 21//17 116//17
f  117//17 24//17 21//17
f  118//17 24//17 117//17
f  118//17 47//17 24//17
f  57//17 47//17 118//17
f  57//17 45//17 47//17
f  59//17 45//17 57//17
f  59//17 119//17 45//17
f  120//17 119//17 59//17
f  120//17 121//17 119//17
f  122//17 121//17 120//17
f  122//17 123//17 121//17
f  124//17 123//17 122//17
f  124//17 43//17 123//17
f  125//17 43//17 124//17
f  125//17 41//17 43//17
f  126//17 41//17 125//17
f  126//17 127//17 41//17
f  128//17 127//17 126//17
f  128//17 129//17 127//17
f  130//17 129//17 128//17
f  130//17 131//17 129//17
f  61//17 131//17 130//17
f  61//17 132//17 131//17
f  63//17 132//17 61//17
f  63//17 7//17 132//17
f  7//17 63//17 5//17
f  133//18 69//18 134//18
f  69//18 133//18 68//18
f  134//19 71//19 135//19
f  71//19 134//19 69//19
f  136//20 79//20 137//20
f  79//20 136//20 77//20
f  137//21 81//21 138//21
f  81//21 137//21 79//21
f  31//22 75//22 139//22
f  75//22 31//22 30//22
f  93//23 140//23 141//23
f  140//23 93//23 95//23
f  36//24 141//24 34//24
f  141//24 36//24 93//24
f  40//25 142//25 38//25
f  142//25 40//25 89//25
f  85//26 39//26 143//26
f  39//26 85//26 37//26
f  129//27 144//27 127//27
f  144//27 129//27 145//27
f  119//28 48//28 45//28
f  48//28 119//28 146//28
f  127//29 44//29 41//29
f  44//29 127//29 144//29
f  147//30 1//30 3//30
f  147//30 3//30 148//30
f  149//30 1//30 147//30
f  147//30 148//30 133//30
f  147//30 133//30 134//30
f  147//30 134//30 135//30
f  147//30 135//30 29//30
f  147//30 29//30 31//30
f  147//30 31//30 139//30
f  147//30 139//30 136//30
f  147//30 136//30 137//30
f  147//30 137//30 138//30
f  147//30 138//30 17//30
f  147//30 17//30 19//30
f  147//30 19//30 143//30
f  147//30 143//30 39//30
f  147//30 39//30 38//30
f  147//30 38//30 142//30
f  147//30 142//30 35//30
f  147//30 35//30 34//30
f  147//30 34//30 141//30
f  147//30 141//30 140//30
f  147//30 140//30 150//30
f  147//30 150//30 151//30
f  147//30 151//30 11//30
f  10//30 147//30 11//30
f  10//30 152//30 147//30
f  153//30 152//30 10//30
f  51//30 152//30 153//30
f  50//30 152//30 51//30
f  154//30 152//30 50//30
f  27//30 152//30 154//30
f  26//30 152//30 27//30
f  155//30 152//30 26//30
f  156//30 152//30 155//30
f  157//30 152//30 156//30
f  158//30 152//30 157//30
f  23//30 152//30 158//30
f  22//30 152//30 23//30
f  46//30 152//30 22//30
f  48//30 152//30 46//30
f  146//30 152//30 48//30
f  159//30 152//30 146//30
f  160//30 152//30 159//30
f  42//30 152//30 160//30
f  44//30 152//30 42//30
f  144//30 152//30 44//30
f  145//30 152//30 144//30
f  161//30 152//30 145//30
f  162//30 152//30 161//30
f  6//30 152//30 162//30
f  8//30 152//30 6//30
f  152//30 8//30 163//30
f  163//30 8//30 62//30
f  163//30 62//30 64//30
f  163//30 64//30 164//30
f  163//30 164//30 165//30
f  163//30 165//30 166//30
f  163//30 166//30 167//30
f  163//30 167//30 168//30
f  163//30 168//30 169//30
f  163//30 169//30 170//30
f  163//30 170//30 58//30
f  163//30 58//30 60//30
f  163//30 60//30 171//30
f  163//30 171//30 172//30
f  163//30 172//30 173//30
f  163//30 173//30 174//30
f  163//30 174//30 175//30
f  163//30 175//30 176//30
f  163//30 176//30 177//30
f  163//30 177//30 178//30
f  163//30 178//30 179//30
f  163//30 179//30 180//30
f  163//30 180//30 181//30
f  163//30 181//30 182//30
f  163//30 182//30 15//30
f  163//30 15//30 14//30
f  163//30 14//30 149//30
f  149//30 14//30 183//30
f  184//30 149//30 183//30
f  185//30 149//30 184//30
f  186//30 149//30 185//30
f  187//30 149//30 186//30
f  188//30 149//30 187//30
f  189//30 149//30 188//30
f  190//30 149//30 189//30
f  191//30 149//30 190//30
f  192//30 149//30 191//30
f  193//30 149//30 192//30
f  194//30 149//30 193//30
f  195//30 149//30 194//30
f  196//30 149//30 195//30
f  197//30 149//30 196//30
f  198//30 149//30 197//30
f  199//30 149//30 198//30
f  200//30 149//30 199//30
f  201//30 149//30 200//30
f  202//30 149//30 201//30
f  53//30 149//30 202//30
f  55//30 149//30 53//30
f  203//30 149//30 55//30
f  204//30 149//30 203//30
f  1//30 149//30 204//30
f  111//31 157//31 156//31
f  157//31 111//31 113//31
f  109//32 156//32 155//32
f  156//32 109//32 111//32
f  113//33 158//33 157//33
f  158//33 113//33 115//33
f  105//34 27//34 154//34
f  27//34 105//34 25//34
f  12//35 153//35 10//35
f  153//35 12//35 101//35
f  100//36 184//36 183//36
f  184//36 100//36 98//36
f  16//37 183//37 14//37
f  183//37 16//37 100//37
f  86//38 193//38 192//38
f  193//38 86//38 84//38
f  194//39 82//39 195//39
f  82//39 194//39 83//39
f  87//40 192//40 191//40
f  192//40 87//40 86//40
f  197//41 76//41 198//41
f  76//41 197//41 78//41
f  106//42 180//42 179//42
f  180//42 106//42 104//42
f  108//43 178//43 177//43
f  178//43 108//43 107//43
f  107//44 179//44 178//44
f  179//44 107//44 106//44
f  120//45 169//45 122//45
f  169//45 120//45 170//45
f  59//46 170//46 120//46
f  170//46 59//46 58//46
f  125//47 166//47 126//47
f  166//47 125//47 167//47
f  63//48 8//48 5//48
f  8//48 63//48 62//48
f  148//49 68//49 133//49
f  68//49 148//49 67//49
f  3//50 67//50 148//50
f  67//50 3//50 2//50
f  95//51 150//51 140//51
f  150//51 95//51 97//51
f  97//52 151//52 150//52
f  151//52 97//52 99//52
f  99//53 11//53 151//53
f  11//53 99//53 9//53
f  18//54 143//54 19//54
f  143//54 18//54 85//54
f  121//55 146//55 119//55
f  146//55 121//55 159//55
f  123//56 159//56 121//56
f  159//56 123//56 160//56
f  131//57 145//57 129//57
f  145//57 131//57 161//57
f  132//58 161//58 131//58
f  161//58 132//58 162//58
f  7//59 162//59 132//59
f  162//59 7//59 6//59
f  115//60 23//60 158//60
f  23//60 115//60 21//60
f  52//61 154//61 50//61
f  154//61 52//61 105//61
f  204//62 4//62 1//62
f  4//62 204//62 65//62
f  96//63 186//63 185//63
f  186//63 96//63 94//63
f  92//64 188//64 187//64
f  188//64 92//64 91//64
f  84//65 194//65 193//65
f  194//65 84//65 83//65
f  91//66 189//66 188//66
f  189//66 91//66 90//66
f  88//67 191//67 190//67
f  191//67 88//67 87//67
f  195//68 80//68 196//68
f  80//68 195//68 82//68
f  196//69 78//69 197//69
f  78//69 196//69 80//69
f  199//70 73//70 200//70
f  73//70 199//70 74//70
f  201//71 70//71 202//71
f  70//71 201//71 72//71
f  200//72 72//72 201//72
f  72//72 200//72 73//72
f  202//73 56//73 53//73
f  56//73 202//73 70//73
f  116//74 174//74 173//74
f  174//74 116//74 114//74
f  117//75 171//75 118//75
f  171//75 117//75 172//75
f  117//76 173//76 172//76
f  173//76 117//76 116//76
f  114//77 175//77 174//77
f  175//77 114//77 112//77
f  110//78 177//78 176//78
f  177//78 110//78 108//78
f  112//79 176//79 175//79
f  176//79 112//79 110//79
f  102//80 15//80 182//80
f  15//80 102//80 13//80
f  103//81 182//81 181//81
f  182//81 103//81 102//81
f  118//82 60//82 57//82
f  60//82 118//82 171//82
f  124//83 167//83 125//83
f  167//83 124//83 168//83
f  122//84 168//84 124//84
f  168//84 122//84 169//84
f  128//85 164//85 130//85
f  164//85 128//85 165//85
f  135//86 32//86 29//86
f  32//86 135//86 71//86
f  138//87 20//87 17//87
f  20//87 138//87 81//87
f  139//88 77//88 136//88
f  77//88 139//88 75//88
f  89//89 35//89 142//89
f  35//89 89//89 33//89
f  47//90 22//90 24//90
f  22//90 47//90 46//90
f  43//91 160//91 123//91
f  160//91 43//91 42//91
f  28//92 155//92 26//92
f  155//92 28//92 109//92
f  101//93 51//93 153//93
f  51//93 101//93 49//93
f  55//94 66//94 203//94
f  66//94 55//94 54//94
f  98//95 185//95 184//95
f  185//95 98//95 96//95
f  94//96 187//96 186//96
f  187//96 94//96 92//96
f  90//97 190//97 189//97
f  190//97 90//97 88//97
f  198//98 74//98 199//98
f  74//98 198//98 76//98
f  104//99 181//99 180//99
f  181//99 104//99 103//99
f  126//100 165//100 128//100
f  165//100 126//100 166//100
f  130//101 64//101 61//101
f  64//101 130//101 164//101
f  203//102 65//102 204//102
f  65//102 203//102 66//102
f  205//30 206//30 207//30
f  206//30 205//30 208//30
f  205//103 147//103 152//103
f  147//103 205//103 207//103
f  206//104 163//104 149//104
f  163//104 206//104 208//104
f  206//105 147//105 207//105
f  147//105 206//105 149//105
f  163//106 205//106 152//106
f  205//106 163//106 208//106

