# File produced by Open Asset Import Library (http://www.assimp.sf.net)
# (assimp v3.1.187496374)

mtllib L-Laguz.obj.mtl

# 216 vertex positions
v  15 0 5
v  14.9704 0.941857 0
v  14.9704 0.941857 5
v  15 0 0
v  -15 0 0
v  -14.9704 0.941857 5
v  -14.9704 0.941857 0
v  -15 0 5
v  0.941857 14.9704 0
v  0 15 5
v  0.941857 14.9704 5
v  0 15 0
v  10.9345 10.2682 5
v  10.2682 10.9345 0
v  10.2682 10.9345 5
v  10.9345 10.2682 0
v  -9.56136 11.5577 0
v  -10.2682 10.9345 5
v  -9.56136 11.5577 5
v  -10.2682 10.9345 0
v  -4.63525 14.2658 0
v  -5.52187 13.9466 5
v  -4.63525 14.2658 5
v  -5.52187 13.9466 0
v  13.9466 5.52187 5
v  13.5724 6.38669 0
v  13.5724 6.38669 5
v  13.9466 5.52187 0
v  6.38669 13.5724 0
v  5.52187 13.9466 5
v  6.38669 13.5724 5
v  5.52187 13.9466 0
v  8.81678 12.1353 0
v  8.0374 12.6649 5
v  8.81678 12.1353 5
v  8.0374 12.6649 0
v  -13.9466 5.52187 0
v  -13.5724 6.38669 5
v  -13.5724 6.38669 0
v  -13.9466 5.52187 5
v  -11.5577 9.56136 0
v  -10.9345 10.2682 5
v  -10.9345 10.2682 0
v  -11.5577 9.56136 5
v  -1.88 14.8817 0
v  -2.81072 14.7343 5
v  -1.88 14.8817 5
v  -2.81072 14.7343 0
v  14.5287 -3.73035 5
v  14.7343 -2.81072 0
v  14.7343 -2.81072 5
v  14.5287 -3.73035 0
v  -11.5577 -9.56136 0
v  -12.1353 -8.81678 5
v  -12.1353 -8.81678 0
v  -11.5577 -9.56136 5
v  -14.8817 -1.88 0
v  -14.9704 -0.941857 5
v  -14.9704 -0.941857 0
v  -14.8817 -1.88 5
v  14.9704 -0.941857 0
v  14.8817 -1.88 0
v  14.8817 1.88 0
v  14.7343 2.81072 0
v  14.5287 3.73035 0
v  14.2658 -4.63525 0
v  14.2658 4.63525 0
v  13.9466 -5.52187 0
v  13.5724 -6.38669 0
v  13.1446 -7.22631 0
v  13.1446 7.22631 0
v  12.6649 -8.0374 0
v  12.6649 8.0374 0
v  12.1353 -8.81678 0
v  12.1353 8.81678 0
v  11.5577 -9.56136 0
v  11.5577 9.56136 0
v  10.9345 -10.2682 0
v  10.2682 -10.9345 0
v  9.56136 -11.5577 0
v  9.56136 11.5577 0
v  8.81678 -12.1353 0
v  8.0374 -12.6649 0
v  7.22631 -13.1446 0
v  7.22631 13.1446 0
v  6.38669 -13.5724 0
v  5.52187 -13.9466 0
v  4.63525 -14.2658 0
v  4.63525 14.2658 0
v  3.73035 -14.5287 0
v  3.73035 14.5287 0
v  2.81072 -14.7343 0
v  2.81072 14.7343 0
v  1.88 -14.8817 0
v  1.88 14.8817 0
v  0.941857 -14.9704 0
v  0 -15 0
v  -0.941857 -14.9704 0
v  -0.941857 14.9704 0
v  -1.88 -14.8817 0
v  -2.81072 -14.7343 0
v  -3.73035 -14.5287 0
v  -3.73035 14.5287 0
v  -4.63525 -14.2658 0
v  -5.52187 -13.9466 0
v  -6.38669 -13.5724 0
v  -6.38669 13.5724 0
v  -7.22631 -13.1446 0
v  -7.22631 13.1446 0
v  -8.0374 -12.6649 0
v  -8.0374 12.6649 0
v  -8.81678 -12.1353 0
v  -8.81678 12.1353 0
v  -9.56136 -11.5577 0
v  -10.2682 -10.9345 0
v  -10.9345 -10.2682 0
v  -12.1353 8.81678 0
v  -12.6649 -8.0374 0
v  -12.6649 8.0374 0
v  -13.1446 -7.22631 0
v  -13.1446 7.22631 0
v  -13.5724 -6.38669 0
v  -13.9466 -5.52187 0
v  -14.2658 -4.63525 0
v  -14.2658 4.63525 0
v  -14.5287 -3.73035 0
v  -14.5287 3.73035 0
v  -14.7343 -2.81072 0
v  -14.7343 2.81072 0
v  -14.8817 1.88 0
v  14.7343 2.81072 5
v  14.5287 3.73035 5
v  14.2658 4.63525 5
v  12.6649 8.0374 5
v  12.1353 8.81678 5
v  11.5577 9.56136 5
v  13.1446 7.22631 5
v  3.73035 14.5287 5
v  4.63525 14.2658 5
v  7.22631 13.1446 5
v  9.56136 11.5577 5
v  -14.2658 4.63525 5
v  -14.5287 3.73035 5
v  -12.1353 8.81678 5
v  3.80152 4.39694 5
v  14.8817 1.88 5
v  14.9704 -0.941857 5
v  2.92621 3.41985 5
v  -2.06107 9.60814 5
v  2.81072 14.7343 5
v  1.88 14.8817 5
v  -2.25445 9.77099 5
v  -0.941857 14.9704 5
v  -3.73035 14.5287 5
v  -3.80152 9.77099 5
v  -6.38669 13.5724 5
v  -7.22631 13.1446 5
v  -8.0374 12.6649 5
v  -8.81678 12.1353 5
v  -12.6649 8.0374 5
v  -13.1446 7.22631 5
v  -14.7343 2.81072 5
v  -14.8817 1.88 5
v  -3.80152 -9.77099 5
v  -14.7343 -2.81072 5
v  -14.5287 -3.73035 5
v  -14.2658 -4.63525 5
v  -13.9466 -5.52187 5
v  -13.5724 -6.38669 5
v  -13.1446 -7.22631 5
v  -12.6649 -8.0374 5
v  -10.9345 -10.2682 5
v  -10.2682 -10.9345 5
v  -9.56136 -11.5577 5
v  -8.81678 -12.1353 5
v  -8.0374 -12.6649 5
v  -7.22631 -13.1446 5
v  -6.38669 -13.5724 5
v  -5.52187 -13.9466 5
v  -4.63525 -14.2658 5
v  -3.73035 -14.5287 5
v  -2.49873 -9.77099 5
v  -2.81072 -14.7343 5
v  -1.88 -14.8817 5
v  -0.941857 -14.9704 5
v  0 -15 5
v  0.941857 -14.9704 5
v  1.88 -14.8817 5
v  2.81072 -14.7343 5
v  3.73035 -14.5287 5
v  4.63525 -14.2658 5
v  5.52187 -13.9466 5
v  6.38669 -13.5724 5
v  7.22631 -13.1446 5
v  8.0374 -12.6649 5
v  9.56136 -11.5577 5
v  8.81678 -12.1353 5
v  -2.49873 8.24427 5
v  10.2682 -10.9345 5
v  10.9345 -10.2682 5
v  11.5577 -9.56136 5
v  12.1353 -8.81678 5
v  12.6649 -8.0374 5
v  13.1446 -7.22631 5
v  13.5724 -6.38669 5
v  13.9466 -5.52187 5
v  14.2658 -4.63525 5
v  14.8817 -1.88 5
v  -2.49873 8.24427 2.1
v  3.80152 4.39694 2.1
v  -2.06107 9.60814 2.1
v  -2.25445 9.77099 2.1
v  2.92621 3.41985 2.1
v  -3.80152 9.77099 2.1
v  -3.80152 -9.77099 2.1
v  -2.49873 -9.77099 2.1

# 0 UV coordinates

# 110 vertex normals
vn 0.999507 0.0314109 0
vn -0.999507 0.0314109 0
vn 0.0314109 0.999507 0
vn 0.707107 0.707107 0
vn -0.661312 0.750111 0
vn -0.338738 0.940881 0
vn 0.917755 0.397148 0
vn 0.397148 0.917755 0
vn 0.562083 0.827081 0
vn -0.917755 0.397148 0
vn -0.750111 0.661312 0
vn -0.156434 0.987688 0
vn 0.975917 -0.218144 0
vn -0.790155 -0.612907 0
vn -0.995562 -0.0941092 0
vn 0 0 -1
vn 0.975917 0.218144 0
vn 0.960294 0.278991 0
vn 0.827081 0.562083 0
vn 0.790155 0.612907 0
vn 0.891007 0.45399 0
vn 0.278991 0.960294 0
vn 0.338738 0.940881 0
vn 0.509042 0.860742 0
vn 0.612907 0.790155 0
vn -0.960294 0.278991 0
vn -0.790155 0.612907 0
vn -0.940881 0.338738 0
vn 0 0 1
vn -0.509042 0.860742 0
vn -0.45399 0.891007 0
vn -0.562083 0.827081 0
vn -0.278991 0.960294 0
vn -0.0314109 0.999507 0
vn 0.0941092 -0.995562 0
vn 0.0314109 -0.999507 0
vn 0.612907 -0.790155 0
vn 0.707107 -0.707107 0
vn 0.562083 -0.827081 0
vn 0.827081 -0.562083 0
vn -0.278991 -0.960294 0
vn -0.397148 -0.917755 0
vn -0.338738 -0.940881 0
vn -0.860742 -0.509042 0
vn -0.827081 -0.562083 0
vn -0.940881 -0.338738 0
vn -0.999507 -0.0314109 0
vn 0.987688 0.156434 0
vn 0.995562 0.0941092 0
vn 0.218144 0.975917 0
vn 0.0941092 0.995562 0
vn 0.661312 0.750111 0
vn -0.707107 0.707107 0
vn -0.827081 0.562083 0
vn -0.891007 0.45399 0
vn -0.860742 0.509042 0
vn -0.975917 0.218144 0
vn -0.995562 0.0941092 0
vn -0.397148 0.917755 0
vn -0.0941092 0.995562 0
vn 0.995562 -0.0941092 0
vn 0.999507 -0.0314109 0
vn 0.218144 -0.975917 0
vn 0.338738 -0.940881 0
vn 0.278991 -0.960294 0
vn 0.661312 -0.750111 0
vn 0.397148 -0.917755 0
vn 0.509042 -0.860742 0
vn 0.45399 -0.891007 0
vn 0.750111 -0.661312 0
vn 0.790155 -0.612907 0
vn 0.891007 -0.45399 0
vn 0.940881 -0.338738 0
vn 0.917755 -0.397148 0
vn 0.960294 -0.278991 0
vn -0.612907 -0.790155 0
vn -0.707107 -0.707107 0
vn -0.661312 -0.750111 0
vn -0.562083 -0.827081 0
vn -0.45399 -0.891007 0
vn -0.509042 -0.860742 0
vn -0.0941092 -0.995562 0
vn -0.156434 -0.987688 0
vn -0.0314109 -0.999507 0
vn -0.917755 -0.397148 0
vn -0.891007 -0.45399 0
vn -0.975917 -0.218144 0
vn 0.940881 0.338738 0
vn 0.750111 0.661312 0
vn 0.860742 0.509042 0
vn 0.156434 0.987688 0
vn 0.45399 0.891007 0
vn -0.987688 0.156434 0
vn -0.612907 0.790155 0
vn -0.218144 0.975917 0
vn 0.987688 -0.156434 0
vn 0.156434 -0.987688 0
vn 0.860742 -0.509042 0
vn -0.218144 -0.975917 0
vn -0.750111 -0.661312 0
vn -0.960294 -0.278991 0
vn -0.987688 -0.156434 0
vn -0.664364 -0.747409 0
vn -0.744836 0.667248 0
vn 0.664538 0.747255 0
vn -1 0 0
vn 0 1 0
vn 1 0 0
vn 0 -1 0
vn -0.644139 -0.764909 0

# Mesh 'OpenSCAD_Model' with 428 faces
g OpenSCAD_Model
usemtl DefaultMaterial
f  1//1 2//1 3//1
f  2//1 1//1 4//1
f  5//2 6//2 7//2
f  6//2 5//2 8//2
f  9//3 10//3 11//3
f  10//3 9//3 12//3
f  13//4 14//4 15//4
f  14//4 13//4 16//4
f  17//5 18//5 19//5
f  18//5 17//5 20//5
f  21//6 22//6 23//6
f  22//6 21//6 24//6
f  25//7 26//7 27//7
f  26//7 25//7 28//7
f  29//8 30//8 31//8
f  30//8 29//8 32//8
f  33//9 34//9 35//9
f  34//9 33//9 36//9
f  37//10 38//10 39//10
f  38//10 37//10 40//10
f  41//11 42//11 43//11
f  42//11 41//11 44//11
f  45//12 46//12 47//12
f  46//12 45//12 48//12
f  49//13 50//13 51//13
f  50//13 49//13 52//13
f  53//14 54//14 55//14
f  54//14 53//14 56//14
f  57//15 58//15 59//15
f  58//15 57//15 60//15
f  61//16 2//16 4//16
f  62//16 2//16 61//16
f  62//16 63//16 2//16
f  50//16 63//16 62//16
f  50//16 64//16 63//16
f  52//16 64//16 50//16
f  52//16 65//16 64//16
f  66//16 65//16 52//16
f  66//16 67//16 65//16
f  68//16 67//16 66//16
f  68//16 28//16 67//16
f  69//16 28//16 68//16
f  69//16 26//16 28//16
f  70//16 26//16 69//16
f  70//16 71//16 26//16
f  72//16 71//16 70//16
f  72//16 73//16 71//16
f  74//16 73//16 72//16
f  74//16 75//16 73//16
f  76//16 75//16 74//16
f  76//16 77//16 75//16
f  78//16 77//16 76//16
f  78//16 16//16 77//16
f  79//16 16//16 78//16
f  79//16 14//16 16//16
f  80//16 14//16 79//16
f  80//16 81//16 14//16
f  82//16 81//16 80//16
f  82//16 33//16 81//16
f  83//16 33//16 82//16
f  83//16 36//16 33//16
f  84//16 36//16 83//16
f  84//16 85//16 36//16
f  86//16 85//16 84//16
f  86//16 29//16 85//16
f  87//16 29//16 86//16
f  87//16 32//16 29//16
f  88//16 32//16 87//16
f  88//16 89//16 32//16
f  90//16 89//16 88//16
f  90//16 91//16 89//16
f  92//16 91//16 90//16
f  92//16 93//16 91//16
f  94//16 93//16 92//16
f  94//16 95//16 93//16
f  96//16 95//16 94//16
f  96//16 9//16 95//16
f  97//16 9//16 96//16
f  97//16 12//16 9//16
f  98//16 12//16 97//16
f  98//16 99//16 12//16
f  100//16 99//16 98//16
f  100//16 45//16 99//16
f  101//16 45//16 100//16
f  101//16 48//16 45//16
f  102//16 48//16 101//16
f  102//16 103//16 48//16
f  104//16 103//16 102//16
f  104//16 21//16 103//16
f  105//16 21//16 104//16
f  105//16 24//16 21//16
f  106//16 24//16 105//16
f  106//16 107//16 24//16
f  108//16 107//16 106//16
f  108//16 109//16 107//16
f  110//16 109//16 108//16
f  110//16 111//16 109//16
f  112//16 111//16 110//16
f  112//16 113//16 111//16
f  114//16 113//16 112//16
f  114//16 17//16 113//16
f  115//16 17//16 114//16
f  115//16 20//16 17//16
f  116//16 20//16 115//16
f  116//16 43//16 20//16
f  53//16 43//16 116//16
f  53//16 41//16 43//16
f  55//16 41//16 53//16
f  55//16 117//16 41//16
f  118//16 117//16 55//16
f  118//16 119//16 117//16
f  120//16 119//16 118//16
f  120//16 121//16 119//16
f  122//16 121//16 120//16
f  122//16 39//16 121//16
f  123//16 39//16 122//16
f  123//16 37//16 39//16
f  124//16 37//16 123//16
f  124//16 125//16 37//16
f  126//16 125//16 124//16
f  126//16 127//16 125//16
f  128//16 127//16 126//16
f  128//16 129//16 127//16
f  57//16 129//16 128//16
f  57//16 130//16 129//16
f  59//16 130//16 57//16
f  59//16 7//16 130//16
f  7//16 59//16 5//16
f  131//17 65//17 132//17
f  65//17 131//17 64//17
f  132//18 67//18 133//18
f  67//18 132//18 65//18
f  134//19 75//19 135//19
f  75//19 134//19 73//19
f  135//20 77//20 136//20
f  77//20 135//20 75//20
f  27//21 71//21 137//21
f  71//21 27//21 26//21
f  89//22 138//22 139//22
f  138//22 89//22 91//22
f  32//23 139//23 30//23
f  139//23 32//23 89//23
f  36//24 140//24 34//24
f  140//24 36//24 85//24
f  81//25 35//25 141//25
f  35//25 81//25 33//25
f  127//26 142//26 125//26
f  142//26 127//26 143//26
f  117//27 44//27 41//27
f  44//27 117//27 144//27
f  125//28 40//28 37//28
f  40//28 125//28 142//28
f  145//29 1//29 3//29
f  145//29 3//29 146//29
f  1//29 145//29 147//29
f  145//29 146//29 131//29
f  148//29 147//29 145//29
f  145//29 131//29 132//29
f  145//29 132//29 133//29
f  145//29 133//29 25//29
f  145//29 25//29 27//29
f  145//29 27//29 137//29
f  145//29 137//29 134//29
f  145//29 134//29 135//29
f  145//29 135//29 136//29
f  145//29 136//29 13//29
f  145//29 13//29 15//29
f  145//29 15//29 141//29
f  145//29 141//29 35//29
f  145//29 35//29 34//29
f  145//29 34//29 140//29
f  145//29 140//29 31//29
f  145//29 31//29 30//29
f  145//29 30//29 139//29
f  139//29 149//29 145//29
f  149//29 139//29 138//29
f  149//29 138//29 150//29
f  149//29 150//29 151//29
f  149//29 151//29 11//29
f  149//29 11//29 10//29
f  10//29 152//29 149//29
f  152//29 10//29 153//29
f  152//29 153//29 47//29
f  46//29 152//29 47//29
f  154//29 152//29 46//29
f  154//29 155//29 152//29
f  23//29 155//29 154//29
f  22//29 155//29 23//29
f  156//29 155//29 22//29
f  157//29 155//29 156//29
f  158//29 155//29 157//29
f  159//29 155//29 158//29
f  19//29 155//29 159//29
f  18//29 155//29 19//29
f  42//29 155//29 18//29
f  44//29 155//29 42//29
f  144//29 155//29 44//29
f  160//29 155//29 144//29
f  161//29 155//29 160//29
f  38//29 155//29 161//29
f  40//29 155//29 38//29
f  142//29 155//29 40//29
f  143//29 155//29 142//29
f  162//29 155//29 143//29
f  163//29 155//29 162//29
f  6//29 155//29 163//29
f  8//29 155//29 6//29
f  155//29 8//29 164//29
f  164//29 8//29 58//29
f  164//29 58//29 60//29
f  164//29 60//29 165//29
f  164//29 165//29 166//29
f  164//29 166//29 167//29
f  164//29 167//29 168//29
f  164//29 168//29 169//29
f  164//29 169//29 170//29
f  164//29 170//29 171//29
f  164//29 171//29 54//29
f  164//29 54//29 56//29
f  164//29 56//29 172//29
f  164//29 172//29 173//29
f  164//29 173//29 174//29
f  164//29 174//29 175//29
f  164//29 175//29 176//29
f  164//29 176//29 177//29
f  164//29 177//29 178//29
f  164//29 178//29 179//29
f  164//29 179//29 180//29
f  164//29 180//29 181//29
f  164//29 181//29 182//29
f  182//29 181//29 183//29
f  182//29 183//29 184//29
f  185//29 182//29 184//29
f  186//29 182//29 185//29
f  187//29 182//29 186//29
f  188//29 182//29 187//29
f  189//29 182//29 188//29
f  190//29 182//29 189//29
f  191//29 182//29 190//29
f  192//29 182//29 191//29
f  193//29 182//29 192//29
f  194//29 182//29 193//29
f  195//29 182//29 194//29
f  182//29 196//29 148//29
f  196//29 182//29 197//29
f  197//29 182//29 195//29
f  182//29 148//29 198//29
f  199//29 148//29 196//29
f  200//29 148//29 199//29
f  201//29 148//29 200//29
f  202//29 148//29 201//29
f  203//29 148//29 202//29
f  204//29 148//29 203//29
f  205//29 148//29 204//29
f  206//29 148//29 205//29
f  207//29 148//29 206//29
f  49//29 148//29 207//29
f  51//29 148//29 49//29
f  147//29 148//29 208//29
f  208//29 148//29 51//29
f  109//30 158//30 157//30
f  158//30 109//30 111//30
f  107//31 157//31 156//31
f  157//31 107//31 109//31
f  111//32 159//32 158//32
f  159//32 111//32 113//32
f  103//33 23//33 154//33
f  23//33 103//33 21//33
f  12//34 153//34 10//34
f  153//34 12//34 99//34
f  96//35 188//35 187//35
f  188//35 96//35 94//35
f  97//36 187//36 186//36
f  187//36 97//36 96//36
f  82//37 196//37 197//37
f  196//37 82//37 80//37
f  199//38 78//38 200//38
f  78//38 199//38 79//38
f  83//39 197//39 195//39
f  197//39 83//39 82//39
f  202//40 72//40 203//40
f  72//40 202//40 74//40
f  104//41 181//41 180//41
f  181//41 104//41 102//41
f  106//42 179//42 178//42
f  179//42 106//42 105//42
f  105//43 180//43 179//43
f  180//43 105//43 104//43
f  118//44 170//44 120//44
f  170//44 118//44 171//44
f  55//45 171//45 118//45
f  171//45 55//45 54//45
f  123//46 167//46 124//46
f  167//46 123//46 168//46
f  59//47 8//47 5//47
f  8//47 59//47 58//47
f  146//48 64//48 131//48
f  64//48 146//48 63//48
f  3//49 63//49 146//49
f  63//49 3//49 2//49
f  91//50 150//50 138//50
f  150//50 91//50 93//50
f  95//51 11//51 151//51
f  11//51 95//51 9//51
f  14//52 141//52 15//52
f  141//52 14//52 81//52
f  43//53 18//53 20//53
f  18//53 43//53 42//53
f  119//54 144//54 117//54
f  144//54 119//54 160//54
f  39//55 161//55 121//55
f  161//55 39//55 38//55
f  121//56 160//56 119//56
f  160//56 121//56 161//56
f  129//57 143//57 127//57
f  143//57 129//57 162//57
f  7//58 163//58 130//58
f  163//58 7//58 6//58
f  24//59 156//59 22//59
f  156//59 24//59 107//59
f  99//60 47//60 153//60
f  47//60 99//60 45//60
f  208//61 61//61 147//61
f  61//61 208//61 62//61
f  147//62 4//62 1//62
f  4//62 147//62 61//62
f  92//63 190//63 189//63
f  190//63 92//63 90//63
f  88//64 192//64 191//64
f  192//64 88//64 87//64
f  90//65 191//65 190//65
f  191//65 90//65 88//65
f  80//66 199//66 196//66
f  199//66 80//66 79//66
f  87//67 193//67 192//67
f  193//67 87//67 86//67
f  84//68 195//68 194//68
f  195//68 84//68 83//68
f  86//69 194//69 193//69
f  194//69 86//69 84//69
f  200//70 76//70 201//70
f  76//70 200//70 78//70
f  201//71 74//71 202//71
f  74//71 201//71 76//71
f  204//72 69//72 205//72
f  69//72 204//72 70//72
f  206//73 66//73 207//73
f  66//73 206//73 68//73
f  205//74 68//74 206//74
f  68//74 205//74 69//74
f  207//75 52//75 49//75
f  52//75 207//75 66//75
f  114//76 175//76 174//76
f  175//76 114//76 112//76
f  115//77 172//77 116//77
f  172//77 115//77 173//77
f  115//78 174//78 173//78
f  174//78 115//78 114//78
f  112//79 176//79 175//79
f  176//79 112//79 110//79
f  108//80 178//80 177//80
f  178//80 108//80 106//80
f  110//81 177//81 176//81
f  177//81 110//81 108//81
f  100//82 185//82 184//82
f  185//82 100//82 98//82
f  101//83 184//83 183//83
f  184//83 101//83 100//83
f  98//84 186//84 185//84
f  186//84 98//84 97//84
f  122//85 168//85 123//85
f  168//85 122//85 169//85
f  120//86 169//86 122//86
f  169//86 120//86 170//86
f  126//87 165//87 128//87
f  165//87 126//87 166//87
f  133//88 28//88 25//88
f  28//88 133//88 67//88
f  136//89 16//89 13//89
f  16//89 136//89 77//89
f  137//90 73//90 134//90
f  73//90 137//90 71//90
f  93//91 151//91 150//91
f  151//91 93//91 95//91
f  85//92 31//92 140//92
f  31//92 85//92 29//92
f  130//93 162//93 129//93
f  162//93 130//93 163//93
f  113//94 19//94 159//94
f  19//94 113//94 17//94
f  48//95 154//95 46//95
f  154//95 48//95 103//95
f  51//96 62//96 208//96
f  62//96 51//96 50//96
f  94//97 189//97 188//97
f  189//97 94//97 92//97
f  203//98 70//98 204//98
f  70//98 203//98 72//98
f  102//99 183//99 181//99
f  183//99 102//99 101//99
f  116//100 56//100 53//100
f  56//100 116//100 172//100
f  124//101 166//101 126//101
f  166//101 124//101 167//101
f  128//102 60//102 57//102
f  60//102 128//102 165//102
f  209//29 210//29 211//29
f  209//29 211//29 212//29
f  210//29 209//29 213//29
f  214//29 209//29 212//29
f  215//29 209//29 214//29
f  209//29 215//29 216//29
f  211//103 145//103 149//103
f  145//103 211//103 210//103
f  213//104 145//104 210//104
f  145//104 213//104 148//104
f  213//105 198//105 148//105
f  198//105 213//105 209//105
f  216//106 198//106 209//106
f  198//106 216//106 182//106
f  216//107 164//107 182//107
f  164//107 216//107 215//107
f  164//108 214//108 155//108
f  214//108 164//108 215//108
f  214//109 152//109 155//109
f  152//109 214//109 212//109
f  212//110 149//110 152//110
f  149//110 212//110 211//110

