# File produced by Open Asset Import Library (http://www.assimp.sf.net)
# (assimp v3.1.187496374)

mtllib N-Nauthiz.obj.mtl

# 224 vertex positions
v  15 0 5
v  14.9704 0.941857 0
v  14.9704 0.941857 5
v  15 0 0
v  -15 0 0
v  -14.9704 0.941857 5
v  -14.9704 0.941857 0
v  -15 0 5
v  0.941857 14.9704 0
v  0 15 5
v  0.941857 14.9704 5
v  0 15 0
v  10.9345 10.2682 5
v  10.2682 10.9345 0
v  10.2682 10.9345 5
v  10.9345 10.2682 0
v  -9.56136 11.5577 0
v  -10.2682 10.9345 5
v  -9.56136 11.5577 5
v  -10.2682 10.9345 0
v  -4.63525 14.2658 0
v  -5.52187 13.9466 5
v  -4.63525 14.2658 5
v  -5.52187 13.9466 0
v  13.9466 5.52187 5
v  13.5724 6.38669 0
v  13.5724 6.38669 5
v  13.9466 5.52187 0
v  11.5577 9.56136 5
v  11.5577 9.56136 0
v  7.22631 13.1446 0
v  6.38669 13.5724 5
v  7.22631 13.1446 5
v  6.38669 13.5724 0
v  -12.6649 8.0374 0
v  -12.1353 8.81678 5
v  -12.1353 8.81678 0
v  -12.6649 8.0374 5
v  -11.5577 9.56136 5
v  -11.5577 9.56136 0
v  -8.81678 12.1353 0
v  -8.81678 12.1353 5
v  -0.941857 14.9704 0
v  -1.88 14.8817 5
v  -0.941857 14.9704 5
v  -1.88 14.8817 0
v  13.1446 -7.22631 5
v  13.5724 -6.38669 0
v  13.5724 -6.38669 5
v  13.1446 -7.22631 0
v  2.81072 -14.7343 0
v  3.73035 -14.5287 5
v  2.81072 -14.7343 5
v  3.73035 -14.5287 0
v  9.56136 -11.5577 0
v  10.2682 -10.9345 5
v  9.56136 -11.5577 5
v  10.2682 -10.9345 0
v  -5.52187 -13.9466 0
v  -4.63525 -14.2658 5
v  -5.52187 -13.9466 5
v  -4.63525 -14.2658 0
v  -11.5577 -9.56136 0
v  -12.1353 -8.81678 5
v  -12.1353 -8.81678 0
v  -11.5577 -9.56136 5
v  -12.6649 -8.0374 5
v  -12.6649 -8.0374 0
v  14.9704 -0.941857 0
v  14.8817 -1.88 0
v  14.8817 1.88 0
v  14.7343 -2.81072 0
v  14.7343 2.81072 0
v  14.5287 -3.73035 0
v  14.5287 3.73035 0
v  14.2658 -4.63525 0
v  14.2658 4.63525 0
v  13.9466 -5.52187 0
v  13.1446 7.22631 0
v  12.6649 -8.0374 0
v  12.6649 8.0374 0
v  12.1353 -8.81678 0
v  12.1353 8.81678 0
v  11.5577 -9.56136 0
v  10.9345 -10.2682 0
v  9.56136 11.5577 0
v  8.81678 -12.1353 0
v  8.81678 12.1353 0
v  8.0374 -12.6649 0
v  8.0374 12.6649 0
v  7.22631 -13.1446 0
v  6.38669 -13.5724 0
v  5.52187 -13.9466 0
v  5.52187 13.9466 0
v  4.63525 -14.2658 0
v  4.63525 14.2658 0
v  3.73035 14.5287 0
v  2.81072 14.7343 0
v  1.88 -14.8817 0
v  1.88 14.8817 0
v  0.941857 -14.9704 0
v  0 -15 0
v  -0.941857 -14.9704 0
v  -1.88 -14.8817 0
v  -2.81072 -14.7343 0
v  -2.81072 14.7343 0
v  -3.73035 -14.5287 0
v  -3.73035 14.5287 0
v  -6.38669 -13.5724 0
v  -6.38669 13.5724 0
v  -7.22631 -13.1446 0
v  -7.22631 13.1446 0
v  -8.0374 -12.6649 0
v  -8.0374 12.6649 0
v  -8.81678 -12.1353 0
v  -9.56136 -11.5577 0
v  -10.2682 -10.9345 0
v  -10.9345 -10.2682 0
v  -10.9345 10.2682 0
v  -13.1446 -7.22631 0
v  -13.1446 7.22631 0
v  -13.5724 -6.38669 0
v  -13.5724 6.38669 0
v  -13.9466 -5.52187 0
v  -13.9466 5.52187 0
v  -14.2658 -4.63525 0
v  -14.2658 4.63525 0
v  -14.5287 -3.73035 0
v  -14.5287 3.73035 0
v  -14.7343 -2.81072 0
v  -14.7343 2.81072 0
v  -14.8817 -1.88 0
v  -14.8817 1.88 0
v  -14.9704 -0.941857 0
v  14.7343 2.81072 5
v  14.5287 3.73035 5
v  14.2658 4.63525 5
v  12.1353 8.81678 5
v  13.1446 7.22631 5
v  2.81072 14.7343 5
v  3.73035 14.5287 5
v  4.63525 14.2658 5
v  5.52187 13.9466 5
v  8.0374 12.6649 5
v  8.81678 12.1353 5
v  -14.5287 3.73035 5
v  -14.7343 2.81072 5
v  -13.9466 5.52187 5
v  -14.2658 4.63525 5
v  -3.86503 2.67894 5
v  -0.654395 -9.81595 5
v  -0.654395 1.21676 5
v  -3.33333 3.86503 5
v  -13.1446 7.22631 5
v  -13.5724 6.38669 5
v  -13.1446 -7.22631 5
v  -13.5724 -6.38669 5
v  -13.9466 -5.52187 5
v  -14.2658 -4.63525 5
v  -14.5287 -3.73035 5
v  -14.8817 1.88 5
v  -14.7343 -2.81072 5
v  -14.8817 -1.88 5
v  -14.9704 -0.941857 5
v  -1.88 -14.8817 5
v  -0.941857 -14.9704 5
v  -2.81072 -14.7343 5
v  -3.73035 -14.5287 5
v  -6.38669 -13.5724 5
v  -7.22631 -13.1446 5
v  -8.0374 -12.6649 5
v  -8.81678 -12.1353 5
v  -9.56136 -11.5577 5
v  -10.2682 -10.9345 5
v  -10.9345 -10.2682 5
v  0 -15 5
v  0.654395 -9.81595 5
v  0.941857 -14.9704 5
v  1.88 -14.8817 5
v  4.63525 -14.2658 5
v  5.52187 -13.9466 5
v  6.38669 -13.5724 5
v  7.22631 -13.1446 5
v  8.0374 -12.6649 5
v  8.81678 -12.1353 5
v  3.33333 -0.593042 5
v  0.654395 0.623721 5
v  10.9345 -10.2682 5
v  11.5577 -9.56136 5
v  12.1353 -8.81678 5
v  12.6649 -8.0374 5
v  13.9466 -5.52187 5
v  14.2658 -4.63525 5
v  14.5287 -3.73035 5
v  14.7343 -2.81072 5
v  3.86503 0.593042 5
v  14.8817 -1.88 5
v  14.9704 -0.941857 5
v  14.8817 1.88 5
v  12.6649 8.0374 5
v  0.654395 9.81595 5
v  0.654395 2.05521 5
v  9.56136 11.5577 5
v  1.88 14.8817 5
v  -0.654395 9.81595 5
v  -2.81072 14.7343 5
v  -3.73035 14.5287 5
v  -6.38669 13.5724 5
v  -7.22631 13.1446 5
v  -8.0374 12.6649 5
v  -10.9345 10.2682 5
v  -0.654395 2.64826 5
v  -3.86503 2.67894 2.1
v  -0.654395 2.64826 2.1
v  -3.33333 3.86503 2.1
v  -0.654395 1.21676 2.1
v  0.654395 2.05521 2.1
v  0.654395 9.81595 2.1
v  -0.654395 9.81595 2.1
v  0.654395 0.623721 2.1
v  -0.654395 -9.81595 2.1
v  3.86503 0.593042 2.1
v  0.654395 -9.81595 2.1
v  3.33333 -0.593042 2.1

# 0 UV coordinates

# 112 vertex normals
vn 0.999507 0.0314109 0
vn -0.999507 0.0314109 0
vn 0.0314109 0.999507 0
vn 0.707107 0.707107 0
vn -0.661312 0.750111 0
vn -0.338738 0.940881 0
vn 0.917755 0.397148 0
vn 0.750111 0.661312 0
vn 0.45399 0.891007 0
vn -0.827081 0.562083 0
vn -0.790155 0.612907 0
vn -0.612907 0.790155 0
vn -0.0941092 0.995562 0
vn 0.891007 -0.45399 0
vn 0.218144 -0.975917 0
vn 0.661312 -0.750111 0
vn -0.338738 -0.940881 0
vn -0.790155 -0.612907 0
vn -0.827081 -0.562083 0
vn 0 0 -1
vn 0.975917 0.218144 0
vn 0.960294 0.278991 0
vn 0.790155 0.612907 0
vn 0.891007 0.45399 0
vn 0.218144 0.975917 0
vn 0.338738 0.940881 0
vn 0.562083 0.827081 0
vn -0.975917 0.218144 0
vn -0.940881 0.338738 0
vn 0 0 1
vn -0.509042 0.860742 0
vn -0.0314109 0.999507 0
vn 0.0314109 -0.999507 0
vn 0.612907 -0.790155 0
vn 0.987688 -0.156434 0
vn -0.612907 -0.790155 0
vn -0.917755 -0.397148 0
vn -0.999507 -0.0314109 0
vn 0.987688 0.156434 0
vn 0.995562 0.0941092 0
vn 0.827081 0.562083 0
vn 0.860742 0.509042 0
vn 0.278991 0.960294 0
vn 0.156434 0.987688 0
vn 0.0941092 0.995562 0
vn 0.397148 0.917755 0
vn 0.509042 0.860742 0
vn 0.612907 0.790155 0
vn 0.661312 0.750111 0
vn -0.750111 0.661312 0
vn -0.860742 0.509042 0
vn -0.917755 0.397148 0
vn -0.960294 0.278991 0
vn -0.987688 0.156434 0
vn -0.995562 0.0941092 0
vn -0.397148 0.917755 0
vn -0.562083 0.827081 0
vn -0.45399 0.891007 0
vn -0.218144 0.975917 0
vn -0.278991 0.960294 0
vn -0.156434 0.987688 0
vn 0.995562 -0.0941092 0
vn 0.999507 -0.0314109 0
vn 0.0941092 -0.995562 0
vn 0.338738 -0.940881 0
vn 0.707107 -0.707107 0
vn 0.509042 -0.860742 0
vn 0.397148 -0.917755 0
vn 0.562083 -0.827081 0
vn 0.750111 -0.661312 0
vn 0.827081 -0.562083 0
vn 0.940881 -0.338738 0
vn 0.960294 -0.278991 0
vn -0.707107 -0.707107 0
vn -0.661312 -0.750111 0
vn -0.397148 -0.917755 0
vn -0.45399 -0.891007 0
vn -0.562083 -0.827081 0
vn -0.278991 -0.960294 0
vn -0.156434 -0.987688 0
vn -0.0314109 -0.999507 0
vn -0.860742 -0.509042 0
vn -0.975917 -0.218144 0
vn -0.940881 -0.338738 0
vn -0.995562 -0.0941092 0
vn 0.940881 0.338738 0
vn -0.707107 0.707107 0
vn -0.891007 0.45399 0
vn 0.975917 -0.218144 0
vn 0.156434 -0.987688 0
vn 0.278991 -0.960294 0
vn 0.45399 -0.891007 0
vn 0.860742 -0.509042 0
vn 0.790155 -0.612907 0
vn 0.917755 -0.397148 0
vn -0.509042 -0.860742 0
vn -0.218144 -0.975917 0
vn -0.0941092 -0.995562 0
vn -0.750111 -0.661312 0
vn -0.891007 -0.45399 0
vn -0.960294 -0.278991 0
vn -0.987688 -0.156434 0
vn -0.414458 -0.910068 0
vn -0.912509 0.409057 0
vn 0.41354 0.910486 0
vn -1 0 0
vn 0 1 0
vn 1 0 0
vn 0.414459 0.910068 0
vn 0.91251 -0.409055 0
vn -0.413541 -0.910485 0
vn 0 -1 0

# Mesh 'OpenSCAD_Model' with 444 faces
g OpenSCAD_Model
usemtl DefaultMaterial
f  1//1 2//1 3//1
f  2//1 1//1 4//1
f  5//2 6//2 7//2
f  6//2 5//2 8//2
f  9//3 10//3 11//3
f  10//3 9//3 12//3
f  13//4 14//4 15//4
f  14//4 13//4 16//4
f  17//5 18//5 19//5
f  18//5 17//5 20//5
f  21//6 22//6 23//6
f  22//6 21//6 24//6
f  25//7 26//7 27//7
f  26//7 25//7 28//7
f  29//8 16//8 13//8
f  16//8 29//8 30//8
f  31//9 32//9 33//9
f  32//9 31//9 34//9
f  35//10 36//10 37//10
f  36//10 35//10 38//10
f  37//11 39//11 40//11
f  39//11 37//11 36//11
f  41//12 19//12 42//12
f  19//12 41//12 17//12
f  43//13 44//13 45//13
f  44//13 43//13 46//13
f  47//14 48//14 49//14
f  48//14 47//14 50//14
f  51//15 52//15 53//15
f  52//15 51//15 54//15
f  55//16 56//16 57//16
f  56//16 55//16 58//16
f  59//17 60//17 61//17
f  60//17 59//17 62//17
f  63//18 64//18 65//18
f  64//18 63//18 66//18
f  65//19 67//19 68//19
f  67//19 65//19 64//19
f  69//20 2//20 4//20
f  70//20 2//20 69//20
f  70//20 71//20 2//20
f  72//20 71//20 70//20
f  72//20 73//20 71//20
f  74//20 73//20 72//20
f  74//20 75//20 73//20
f  76//20 75//20 74//20
f  76//20 77//20 75//20
f  78//20 77//20 76//20
f  78//20 28//20 77//20
f  48//20 28//20 78//20
f  48//20 26//20 28//20
f  50//20 26//20 48//20
f  50//20 79//20 26//20
f  80//20 79//20 50//20
f  80//20 81//20 79//20
f  82//20 81//20 80//20
f  82//20 83//20 81//20
f  84//20 83//20 82//20
f  84//20 30//20 83//20
f  85//20 30//20 84//20
f  85//20 16//20 30//20
f  58//20 16//20 85//20
f  58//20 14//20 16//20
f  55//20 14//20 58//20
f  55//20 86//20 14//20
f  87//20 86//20 55//20
f  87//20 88//20 86//20
f  89//20 88//20 87//20
f  89//20 90//20 88//20
f  91//20 90//20 89//20
f  91//20 31//20 90//20
f  92//20 31//20 91//20
f  92//20 34//20 31//20
f  93//20 34//20 92//20
f  93//20 94//20 34//20
f  95//20 94//20 93//20
f  95//20 96//20 94//20
f  54//20 96//20 95//20
f  54//20 97//20 96//20
f  51//20 97//20 54//20
f  51//20 98//20 97//20
f  99//20 98//20 51//20
f  99//20 100//20 98//20
f  101//20 100//20 99//20
f  101//20 9//20 100//20
f  102//20 9//20 101//20
f  102//20 12//20 9//20
f  103//20 12//20 102//20
f  103//20 43//20 12//20
f  104//20 43//20 103//20
f  104//20 46//20 43//20
f  105//20 46//20 104//20
f  105//20 106//20 46//20
f  107//20 106//20 105//20
f  107//20 108//20 106//20
f  62//20 108//20 107//20
f  62//20 21//20 108//20
f  59//20 21//20 62//20
f  59//20 24//20 21//20
f  109//20 24//20 59//20
f  109//20 110//20 24//20
f  111//20 110//20 109//20
f  111//20 112//20 110//20
f  113//20 112//20 111//20
f  113//20 114//20 112//20
f  115//20 114//20 113//20
f  115//20 41//20 114//20
f  116//20 41//20 115//20
f  116//20 17//20 41//20
f  117//20 17//20 116//20
f  117//20 20//20 17//20
f  118//20 20//20 117//20
f  118//20 119//20 20//20
f  63//20 119//20 118//20
f  63//20 40//20 119//20
f  65//20 40//20 63//20
f  65//20 37//20 40//20
f  68//20 37//20 65//20
f  68//20 35//20 37//20
f  120//20 35//20 68//20
f  120//20 121//20 35//20
f  122//20 121//20 120//20
f  122//20 123//20 121//20
f  124//20 123//20 122//20
f  124//20 125//20 123//20
f  126//20 125//20 124//20
f  126//20 127//20 125//20
f  128//20 127//20 126//20
f  128//20 129//20 127//20
f  130//20 129//20 128//20
f  130//20 131//20 129//20
f  132//20 131//20 130//20
f  132//20 133//20 131//20
f  134//20 133//20 132//20
f  134//20 7//20 133//20
f  7//20 134//20 5//20
f  135//21 75//21 136//21
f  75//21 135//21 73//21
f  136//22 77//22 137//22
f  77//22 136//22 75//22
f  138//23 30//23 29//23
f  30//23 138//23 83//23
f  27//24 79//24 139//24
f  79//24 27//24 26//24
f  97//25 140//25 141//25
f  140//25 97//25 98//25
f  94//26 142//26 143//26
f  142//26 94//26 96//26
f  88//27 144//27 145//27
f  144//27 88//27 90//27
f  131//28 146//28 129//28
f  146//28 131//28 147//28
f  127//29 148//29 125//29
f  148//29 127//29 149//29
f  150//30 151//30 152//30
f  64//30 151//30 150//30
f  153//30 38//30 150//30
f  154//30 150//30 38//30
f  150//30 67//30 64//30
f  155//30 150//30 154//30
f  150//30 156//30 67//30
f  148//30 150//30 155//30
f  150//30 157//30 156//30
f  149//30 150//30 148//30
f  150//30 158//30 157//30
f  146//30 150//30 149//30
f  150//30 159//30 158//30
f  147//30 150//30 146//30
f  150//30 160//30 159//30
f  161//30 150//30 147//30
f  150//30 162//30 160//30
f  6//30 150//30 161//30
f  150//30 163//30 162//30
f  8//30 150//30 6//30
f  150//30 164//30 163//30
f  150//30 8//30 164//30
f  151//30 165//30 166//30
f  151//30 167//30 165//30
f  151//30 168//30 167//30
f  151//30 60//30 168//30
f  151//30 61//30 60//30
f  151//30 169//30 61//30
f  151//30 170//30 169//30
f  151//30 171//30 170//30
f  151//30 172//30 171//30
f  151//30 173//30 172//30
f  151//30 174//30 173//30
f  151//30 175//30 174//30
f  151//30 66//30 175//30
f  151//30 64//30 66//30
f  151//30 176//30 177//30
f  176//30 151//30 166//30
f  177//30 176//30 178//30
f  179//30 177//30 178//30
f  53//30 177//30 179//30
f  52//30 177//30 53//30
f  180//30 177//30 52//30
f  181//30 177//30 180//30
f  182//30 177//30 181//30
f  183//30 177//30 182//30
f  184//30 177//30 183//30
f  185//30 177//30 184//30
f  57//30 177//30 185//30
f  56//30 177//30 57//30
f  177//30 56//30 186//30
f  177//30 186//30 187//30
f  188//30 186//30 56//30
f  189//30 186//30 188//30
f  190//30 186//30 189//30
f  191//30 186//30 190//30
f  47//30 186//30 191//30
f  49//30 186//30 47//30
f  192//30 186//30 49//30
f  193//30 186//30 192//30
f  194//30 186//30 193//30
f  195//30 196//30 194//30
f  186//30 194//30 196//30
f  197//30 196//30 195//30
f  198//30 196//30 197//30
f  1//30 196//30 198//30
f  196//30 1//30 3//30
f  196//30 3//30 199//30
f  196//30 199//30 135//30
f  196//30 135//30 136//30
f  196//30 136//30 137//30
f  196//30 137//30 25//30
f  196//30 25//30 27//30
f  196//30 27//30 139//30
f  196//30 139//30 200//30
f  196//30 200//30 138//30
f  196//30 138//30 29//30
f  196//30 29//30 13//30
f  196//30 13//30 15//30
f  15//30 201//30 196//30
f  196//30 201//30 202//30
f  201//30 15//30 203//30
f  201//30 203//30 145//30
f  201//30 145//30 144//30
f  201//30 144//30 33//30
f  201//30 33//30 32//30
f  201//30 32//30 143//30
f  201//30 143//30 142//30
f  201//30 142//30 141//30
f  201//30 141//30 140//30
f  201//30 140//30 204//30
f  201//30 204//30 11//30
f  10//30 201//30 11//30
f  10//30 205//30 201//30
f  45//30 205//30 10//30
f  44//30 205//30 45//30
f  206//30 205//30 44//30
f  207//30 205//30 206//30
f  23//30 205//30 207//30
f  22//30 205//30 23//30
f  208//30 205//30 22//30
f  209//30 205//30 208//30
f  210//30 205//30 209//30
f  205//30 210//30 153//30
f  42//30 153//30 210//30
f  19//30 153//30 42//30
f  18//30 153//30 19//30
f  211//30 153//30 18//30
f  39//30 153//30 211//30
f  36//30 153//30 39//30
f  38//30 153//30 36//30
f  205//30 153//30 212//30
f  112//31 210//31 209//31
f  210//31 112//31 114//31
f  12//32 45//32 10//32
f  45//32 12//32 43//32
f  102//33 178//33 176//33
f  178//33 102//33 101//33
f  87//34 57//34 185//34
f  57//34 87//34 55//34
f  195//35 70//35 197//35
f  70//35 195//35 72//35
f  116//36 172//36 173//36
f  172//36 116//36 115//36
f  122//37 158//37 124//37
f  158//37 122//37 157//37
f  134//38 8//38 5//38
f  8//38 134//38 164//38
f  199//39 73//39 135//39
f  73//39 199//39 71//39
f  3//40 71//40 199//40
f  71//40 3//40 2//40
f  200//41 83//41 138//41
f  83//41 200//41 81//41
f  139//42 81//42 200//42
f  81//42 139//42 79//42
f  96//43 141//43 142//43
f  141//43 96//43 97//43
f  98//44 204//44 140//44
f  204//44 98//44 100//44
f  100//45 11//45 204//45
f  11//45 100//45 9//45
f  34//46 143//46 32//46
f  143//46 34//46 94//46
f  90//47 33//47 144//47
f  33//47 90//47 31//47
f  86//48 145//48 203//48
f  145//48 86//48 88//48
f  14//49 203//49 15//49
f  203//49 14//49 86//49
f  40//50 211//50 119//50
f  211//50 40//50 39//50
f  121//51 38//51 35//51
f  38//51 121//51 154//51
f  125//52 155//52 123//52
f  155//52 125//52 148//52
f  129//53 149//53 127//53
f  149//53 129//53 146//53
f  133//54 147//54 131//54
f  147//54 133//54 161//54
f  7//55 161//55 133//55
f  161//55 7//55 6//55
f  24//56 208//56 22//56
f  208//56 24//56 110//56
f  114//57 42//57 210//57
f  42//57 114//57 41//57
f  110//58 209//58 208//58
f  209//58 110//58 112//58
f  106//59 207//59 206//59
f  207//59 106//59 108//59
f  108//60 23//60 207//60
f  23//60 108//60 21//60
f  46//61 206//61 44//61
f  206//61 46//61 106//61
f  197//62 69//62 198//62
f  69//62 197//62 70//62
f  198//63 4//63 1//63
f  4//63 198//63 69//63
f  101//64 179//64 178//64
f  179//64 101//64 99//64
f  95//65 181//65 180//65
f  181//65 95//65 93//65
f  56//66 85//66 188//66
f  85//66 56//66 58//66
f  91//67 184//67 183//67
f  184//67 91//67 89//67
f  93//68 182//68 181//68
f  182//68 93//68 92//68
f  89//69 185//69 184//69
f  185//69 89//69 87//69
f  188//70 84//70 189//70
f  84//70 188//70 85//70
f  190//71 80//71 191//71
f  80//71 190//71 82//71
f  192//72 76//72 193//72
f  76//72 192//72 78//72
f  193//73 74//73 194//73
f  74//73 193//73 76//73
f  117//74 175//74 118//74
f  175//74 117//74 174//74
f  117//75 173//75 174//75
f  173//75 117//75 116//75
f  109//76 61//76 169//76
f  61//76 109//76 59//76
f  111//77 169//77 170//77
f  169//77 111//77 109//77
f  115//78 171//78 172//78
f  171//78 115//78 113//78
f  62//79 168//79 60//79
f  168//79 62//79 107//79
f  105//80 165//80 167//80
f  165//80 105//80 104//80
f  103//81 176//81 166//81
f  176//81 103//81 102//81
f  68//82 156//82 120//82
f  156//82 68//82 67//82
f  128//83 162//83 130//83
f  162//83 128//83 160//83
f  124//84 159//84 126//84
f  159//84 124//84 158//84
f  132//85 164//85 134//85
f  164//85 132//85 163//85
f  137//86 28//86 25//86
f  28//86 137//86 77//86
f  119//87 18//87 20//87
f  18//87 119//87 211//87
f  123//88 154//88 121//88
f  154//88 123//88 155//88
f  194//89 72//89 195//89
f  72//89 194//89 74//89
f  99//90 53//90 179//90
f  53//90 99//90 51//90
f  54//91 180//91 52//91
f  180//91 54//91 95//91
f  92//92 183//92 182//92
f  183//92 92//92 91//92
f  191//93 50//93 47//93
f  50//93 191//93 80//93
f  189//94 82//94 190//94
f  82//94 189//94 84//94
f  49//95 78//95 192//95
f  78//95 49//95 48//95
f  113//96 170//96 171//96
f  170//96 113//96 111//96
f  107//97 167//97 168//97
f  167//97 107//97 105//97
f  104//98 166//98 165//98
f  166//98 104//98 103//98
f  118//99 66//99 63//99
f  66//99 118//99 175//99
f  120//100 157//100 122//100
f  157//100 120//100 156//100
f  126//101 160//101 128//101
f  160//101 126//101 159//101
f  130//102 163//102 132//102
f  163//102 130//102 162//102
f  213//30 214//30 215//30
f  214//30 213//30 216//30
f  214//30 217//30 218//30
f  216//30 217//30 214//30
f  214//30 218//30 219//30
f  217//30 216//30 220//30
f  221//30 220//30 216//30
f  220//30 222//30 217//30
f  220//30 221//30 223//30
f  222//30 220//30 224//30
f  217//103 196//103 202//103
f  196//103 217//103 222//103
f  224//104 196//104 222//104
f  196//104 224//104 186//104
f  224//105 187//105 186//105
f  187//105 224//105 220//105
f  223//106 187//106 220//106
f  187//106 223//106 177//106
f  223//107 151//107 177//107
f  151//107 223//107 221//107
f  151//108 216//108 152//108
f  216//108 151//108 221//108
f  216//109 150//109 152//109
f  150//109 216//109 213//109
f  150//110 215//110 153//110
f  215//110 150//110 213//110
f  215//111 212//111 153//111
f  212//111 215//111 214//111
f  212//108 219//108 205//108
f  219//108 212//108 214//108
f  219//112 201//112 205//112
f  201//112 219//112 218//112
f  217//106 201//106 218//106
f  201//106 217//106 202//106

