# File produced by Open Asset Import Library (http://www.assimp.sf.net)
# (assimp v3.1.187496374)

mtllib NG2-Inguz.obj.mtl

# 240 vertex positions
v  -0.0352778 5.41514 2.1
v  5.04472 8.99583 2.1
v  4.24215 9.78958 2.1
v  0.758472 4.60375 2.1
v  -0.829028 4.60375 2.1
v  -5.22111 9.07521 2.1
v  -4.40972 9.86896 2.1
v  3.80118 -0.105833 2.1
v  5.38868 -0.105833 2.1
v  -0.0352778 3.79236 2.1
v  -3.81 -0.0705556 2.1
v  -5.38868 -0.0705556 2.1
v  -0.829028 -4.7625 2.1
v  -0.0352778 -3.95993 2.1
v  0.749653 -4.77132 2.1
v  -0.0440972 -5.57389 2.1
v  -5.04472 -9.00465 2.1
v  4.93889 -9.08403 2.1
v  4.1275 -9.86896 2.1
v  -4.24215 -9.7984 2.1
v  -0.0352778 5.41514 5
v  4.24215 9.78958 5
v  5.04472 8.99583 5
v  0.758472 4.60375 5
v  5.38868 -0.105833 5
v  0.749653 -4.77132 5
v  4.93889 -9.08403 5
v  4.1275 -9.86896 5
v  -0.0440972 -5.57389 5
v  -4.24215 -9.7984 5
v  -5.04472 -9.00465 5
v  -0.829028 -4.7625 5
v  -5.38868 -0.0705556 5
v  -0.829028 4.60375 5
v  -5.22111 9.07521 5
v  -4.40972 9.86896 5
v  -3.81 -0.0705556 5
v  -0.0352778 -3.95993 5
v  3.80118 -0.105833 5
v  -0.0352778 3.79236 5
v  14.7343 2.81072 5
v  14.5287 3.73035 0
v  14.5287 3.73035 5
v  14.7343 2.81072 0
v  -15 0 0
v  -14.9704 0.941857 5
v  -14.9704 0.941857 0
v  -15 0 5
v  0.941857 14.9704 0
v  0 15 5
v  0.941857 14.9704 5
v  0 15 0
v  -4.63525 14.2658 0
v  -5.52187 13.9466 5
v  -4.63525 14.2658 5
v  -5.52187 13.9466 0
v  -12.1353 -8.81678 0
v  -12.6649 -8.0374 5
v  -12.6649 -8.0374 0
v  -12.1353 -8.81678 5
v  14.2658 4.63525 0
v  14.2658 4.63525 5
v  11.5577 9.56136 5
v  10.9345 10.2682 0
v  10.9345 10.2682 5
v  11.5577 9.56136 0
v  7.22631 13.1446 0
v  6.38669 13.5724 5
v  7.22631 13.1446 5
v  6.38669 13.5724 0
v  -12.6649 8.0374 0
v  -12.1353 8.81678 5
v  -12.1353 8.81678 0
v  -12.6649 8.0374 5
v  -11.5577 9.56136 5
v  -11.5577 9.56136 0
v  -8.81678 12.1353 0
v  -9.56136 11.5577 5
v  -8.81678 12.1353 5
v  -9.56136 11.5577 0
v  13.1446 -7.22631 5
v  13.5724 -6.38669 0
v  13.5724 -6.38669 5
v  13.1446 -7.22631 0
v  2.81072 -14.7343 0
v  3.73035 -14.5287 5
v  2.81072 -14.7343 5
v  3.73035 -14.5287 0
v  9.56136 -11.5577 0
v  10.2682 -10.9345 5
v  9.56136 -11.5577 5
v  10.2682 -10.9345 0
v  14.7343 -2.81072 5
v  14.8817 -1.88 0
v  14.8817 -1.88 5
v  14.7343 -2.81072 0
v  -5.52187 -13.9466 0
v  -4.63525 -14.2658 5
v  -5.52187 -13.9466 5
v  -4.63525 -14.2658 0
v  13.5724 6.38669 5
v  13.1446 7.22631 0
v  13.1446 7.22631 5
v  13.5724 6.38669 0
v  12.1353 8.81678 5
v  12.1353 8.81678 0
v  3.73035 14.5287 0
v  2.81072 14.7343 5
v  3.73035 14.5287 5
v  2.81072 14.7343 0
v  5.52187 13.9466 0
v  4.63525 14.2658 5
v  5.52187 13.9466 5
v  4.63525 14.2658 0
v  1.88 14.8817 0
v  1.88 14.8817 5
v  9.56136 11.5577 0
v  8.81678 12.1353 5
v  9.56136 11.5577 5
v  8.81678 12.1353 0
v  8.0374 12.6649 5
v  8.0374 12.6649 0
v  -14.7343 2.81072 0
v  -14.5287 3.73035 5
v  -14.5287 3.73035 0
v  -14.7343 2.81072 5
v  -14.2658 4.63525 0
v  -13.9466 5.52187 5
v  -13.9466 5.52187 0
v  -14.2658 4.63525 5
v  -14.8817 1.88 5
v  -14.8817 1.88 0
v  -7.22631 13.1446 0
v  -8.0374 12.6649 5
v  -7.22631 13.1446 5
v  -8.0374 12.6649 0
v  -0.941857 14.9704 5
v  -0.941857 14.9704 0
v  -3.73035 14.5287 0
v  -3.73035 14.5287 5
v  14.9704 -0.941857 5
v  15 0 0
v  15 0 5
v  14.9704 -0.941857 0
v  0 -15 0
v  0.941857 -14.9704 5
v  0 -15 5
v  0.941857 -14.9704 0
v  8.81678 -12.1353 0
v  8.81678 -12.1353 5
v  -0.941857 -14.9704 0
v  -0.941857 -14.9704 5
v  -9.56136 -11.5577 0
v  -8.81678 -12.1353 5
v  -9.56136 -11.5577 5
v  -8.81678 -12.1353 0
v  -10.9345 -10.2682 0
v  -11.5577 -9.56136 5
v  -11.5577 -9.56136 0
v  -10.9345 -10.2682 5
v  -13.5724 -6.38669 0
v  -13.9466 -5.52187 5
v  -13.9466 -5.52187 0
v  -13.5724 -6.38669 5
v  -14.9704 -0.941857 0
v  -14.9704 -0.941857 5
v  14.9704 0.941857 0
v  14.8817 1.88 0
v  14.5287 -3.73035 0
v  14.2658 -4.63525 0
v  13.9466 -5.52187 0
v  13.9466 5.52187 0
v  12.6649 -8.0374 0
v  12.6649 8.0374 0
v  12.1353 -8.81678 0
v  11.5577 -9.56136 0
v  10.9345 -10.2682 0
v  10.2682 10.9345 0
v  8.0374 -12.6649 0
v  7.22631 -13.1446 0
v  6.38669 -13.5724 0
v  5.52187 -13.9466 0
v  4.63525 -14.2658 0
v  1.88 -14.8817 0
v  -1.88 -14.8817 0
v  -1.88 14.8817 0
v  -2.81072 -14.7343 0
v  -2.81072 14.7343 0
v  -3.73035 -14.5287 0
v  -6.38669 -13.5724 0
v  -6.38669 13.5724 0
v  -7.22631 -13.1446 0
v  -8.0374 -12.6649 0
v  -10.2682 -10.9345 0
v  -10.2682 10.9345 0
v  -10.9345 10.2682 0
v  -13.1446 -7.22631 0
v  -13.1446 7.22631 0
v  -13.5724 6.38669 0
v  -14.2658 -4.63525 0
v  -14.5287 -3.73035 0
v  -14.7343 -2.81072 0
v  -14.8817 -1.88 0
v  14.9704 0.941857 5
v  14.8817 1.88 5
v  13.9466 5.52187 5
v  10.2682 10.9345 5
v  12.6649 8.0374 5
v  -10.2682 10.9345 5
v  -10.9345 10.2682 5
v  -13.1446 7.22631 5
v  -13.5724 6.38669 5
v  -14.8817 -1.88 5
v  -14.7343 -2.81072 5
v  -14.5287 -3.73035 5
v  -14.2658 -4.63525 5
v  -13.1446 -7.22631 5
v  -10.2682 -10.9345 5
v  -8.0374 -12.6649 5
v  -7.22631 -13.1446 5
v  -6.38669 -13.5724 5
v  -3.73035 -14.5287 5
v  -2.81072 -14.7343 5
v  -1.88 -14.8817 5
v  1.88 -14.8817 5
v  4.63525 -14.2658 5
v  5.52187 -13.9466 5
v  6.38669 -13.5724 5
v  7.22631 -13.1446 5
v  8.0374 -12.6649 5
v  10.9345 -10.2682 5
v  11.5577 -9.56136 5
v  12.1353 -8.81678 5
v  12.6649 -8.0374 5
v  13.9466 -5.52187 5
v  14.2658 -4.63525 5
v  14.5287 -3.73035 5
v  -1.88 14.8817 5
v  -2.81072 14.7343 5
v  -6.38669 13.5724 5

# 0 UV coordinates

# 122 vertex normals
vn 0 0 1
vn 0.714991 -0.699134 0
vn -0.703189 -0.711003 0
vn -0.715677 0.698432 0
vn -0.71309 -0.701072 0
vn -0.709115 0.705093 0
vn -0.7173 -0.696764 0
vn -0.695291 0.718728 0
vn 0.717342 0.696721 0
vn -0.709325 0.704882 0
vn 0.703189 0.711003 0
vn 0.709315 -0.704891 0
vn 0.717145 0.696924 0
vn 0.715831 -0.698273 0
vn 0.71341 0.700746 0
vn 0.699294 -0.714834 0
vn -0.713436 -0.700721 0
vn -0.717605 -0.696451 0
vn 0.708727 -0.705483 0
vn -0.715224 0.698895 0
vn 0.712728 0.70144 0
vn 0.975917 0.218144 0
vn -0.999507 0.0314109 0
vn 0.0314109 0.999507 0
vn -0.338738 0.940881 0
vn -0.827081 -0.562083 0
vn 0.960294 0.278991 0
vn 0.750111 0.661312 0
vn 0.45399 0.891007 0
vn -0.827081 0.562083 0
vn -0.790155 0.612907 0
vn -0.612907 0.790155 0
vn 0.891007 -0.45399 0
vn 0.218144 -0.975917 0
vn 0.661312 -0.750111 0
vn 0.987688 -0.156434 0
vn -0.338738 -0.940881 0
vn 0.891007 0.45399 0
vn 0.790155 0.612907 0
vn 0.218144 0.975917 0
vn 0.338738 0.940881 0
vn 0.0941092 0.995562 0
vn 0.612907 0.790155 0
vn 0.562083 0.827081 0
vn -0.975917 0.218144 0
vn -0.940881 0.338738 0
vn -0.995562 0.0941092 0
vn -0.509042 0.860742 0
vn -0.562083 0.827081 0
vn -0.0314109 0.999507 0
vn -0.278991 0.960294 0
vn 0.999507 -0.0314109 0
vn 0.0314109 -0.999507 0
vn 0.612907 -0.790155 0
vn -0.0314109 -0.999507 0
vn -0.612907 -0.790155 0
vn -0.750111 -0.661312 0
vn -0.917755 -0.397148 0
vn -0.999507 -0.0314109 0
vn 0 0 -1
vn 0.995562 0.0941092 0
vn 0.987688 0.156434 0
vn 0.917755 0.397148 0
vn 0.940881 0.338738 0
vn 0.707107 0.707107 0
vn 0.860742 0.509042 0
vn 0.827081 0.562083 0
vn 0.278991 0.960294 0
vn 0.156434 0.987688 0
vn 0.397148 0.917755 0
vn 0.509042 0.860742 0
vn 0.661312 0.750111 0
vn -0.707107 0.707107 0
vn -0.750111 0.661312 0
vn -0.860742 0.509042 0
vn -0.917755 0.397148 0
vn -0.891007 0.45399 0
vn -0.960294 0.278991 0
vn -0.987688 0.156434 0
vn -0.661312 0.750111 0
vn -0.397148 0.917755 0
vn -0.45399 0.891007 0
vn -0.218144 0.975917 0
vn -0.0941092 0.995562 0
vn -0.156434 0.987688 0
vn 0.999507 0.0314109 0
vn 0.995562 -0.0941092 0
vn 0.0941092 -0.995562 0
vn 0.338738 -0.940881 0
vn 0.509042 -0.860742 0
vn 0.397148 -0.917755 0
vn 0.750111 -0.661312 0
vn 0.827081 -0.562083 0
vn 0.940881 -0.338738 0
vn 0.960294 -0.278991 0
vn -0.707107 -0.707107 0
vn -0.278991 -0.960294 0
vn -0.156434 -0.987688 0
vn -0.562083 -0.827081 0
vn -0.45399 -0.891007 0
vn -0.790155 -0.612907 0
vn -0.860742 -0.509042 0
vn -0.995562 -0.0941092 0
vn -0.940881 -0.338738 0
vn -0.975917 -0.218144 0
vn 0.156434 -0.987688 0
vn 0.278991 -0.960294 0
vn 0.707107 -0.707107 0
vn 0.45399 -0.891007 0
vn 0.562083 -0.827081 0
vn 0.860742 -0.509042 0
vn 0.917755 -0.397148 0
vn -0.218144 -0.975917 0
vn -0.0941092 -0.995562 0
vn -0.509042 -0.860742 0
vn -0.397148 -0.917755 0
vn -0.661312 -0.750111 0
vn -0.891007 -0.45399 0
vn -0.987688 -0.156434 0
vn -0.960294 -0.278991 0
vn 0.975917 -0.218144 0
vn 0.790155 -0.612907 0

# Mesh 'OpenSCAD_Model' with 476 faces
g OpenSCAD_Model
usemtl DefaultMaterial
f  1//1 2//1 3//1
f  2//1 1//1 4//1
f  5//1 4//1 1//1
f  6//1 1//1 7//1
f  1//1 6//1 5//1
f  4//1 8//1 9//1
f  4//1 10//1 8//1
f  4//1 5//1 10//1
f  5//1 11//1 10//1
f  11//1 5//1 12//1
f  11//1 13//1 14//1
f  13//1 11//1 12//1
f  13//1 15//1 14//1
f  15//1 13//1 16//1
f  17//1 16//1 13//1
f  15//1 8//1 14//1
f  8//1 15//1 9//1
f  16//1 18//1 15//1
f  18//1 16//1 19//1
f  16//1 17//1 20//1
f  21//2 3//2 22//2
f  3//2 21//2 1//2
f  3//3 23//3 22//3
f  23//3 3//3 2//3
f  4//4 23//4 2//4
f  23//4 4//4 24//4
f  9//5 24//5 4//5
f  24//5 9//5 25//5
f  15//6 25//6 9//6
f  25//6 15//6 26//6
f  18//7 26//7 15//7
f  26//7 18//7 27//7
f  18//8 28//8 27//8
f  28//8 18//8 19//8
f  28//9 16//9 29//9
f  16//9 28//9 19//9
f  20//10 29//10 16//10
f  29//10 20//10 30//10
f  20//11 31//11 30//11
f  31//11 20//11 17//11
f  31//12 13//12 32//12
f  13//12 31//12 17//12
f  32//13 12//13 33//13
f  12//13 32//13 13//13
f  33//14 5//14 34//14
f  5//14 33//14 12//14
f  34//15 6//15 35//15
f  6//15 34//15 5//15
f  6//16 36//16 35//16
f  36//16 6//16 7//16
f  1//17 36//17 7//17
f  36//17 1//17 21//17
f  14//18 37//18 11//18
f  37//18 14//18 38//18
f  38//19 8//19 39//19
f  8//19 38//19 14//19
f  11//20 40//20 10//20
f  40//20 11//20 37//20
f  39//21 10//21 40//21
f  10//21 39//21 8//21
f  41//22 42//22 43//22
f  42//22 41//22 44//22
f  45//23 46//23 47//23
f  46//23 45//23 48//23
f  49//24 50//24 51//24
f  50//24 49//24 52//24
f  53//25 54//25 55//25
f  54//25 53//25 56//25
f  57//26 58//26 59//26
f  58//26 57//26 60//26
f  43//27 61//27 62//27
f  61//27 43//27 42//27
f  63//28 64//28 65//28
f  64//28 63//28 66//28
f  67//29 68//29 69//29
f  68//29 67//29 70//29
f  71//30 72//30 73//30
f  72//30 71//30 74//30
f  73//31 75//31 76//31
f  75//31 73//31 72//31
f  77//32 78//32 79//32
f  78//32 77//32 80//32
f  81//33 82//33 83//33
f  82//33 81//33 84//33
f  85//34 86//34 87//34
f  86//34 85//34 88//34
f  89//35 90//35 91//35
f  90//35 89//35 92//35
f  93//36 94//36 95//36
f  94//36 93//36 96//36
f  97//37 98//37 99//37
f  98//37 97//37 100//37
f  101//38 102//38 103//38
f  102//38 101//38 104//38
f  105//39 66//39 63//39
f  66//39 105//39 106//39
f  107//40 108//40 109//40
f  108//40 107//40 110//40
f  111//41 112//41 113//41
f  112//41 111//41 114//41
f  115//42 51//42 116//42
f  51//42 115//42 49//42
f  117//43 118//43 119//43
f  118//43 117//43 120//43
f  120//44 121//44 118//44
f  121//44 120//44 122//44
f  123//45 124//45 125//45
f  124//45 123//45 126//45
f  127//46 128//46 129//46
f  128//46 127//46 130//46
f  47//47 131//47 132//47
f  131//47 47//47 46//47
f  133//48 134//48 135//48
f  134//48 133//48 136//48
f  136//49 79//49 134//49
f  79//49 136//49 77//49
f  52//50 137//50 50//50
f  137//50 52//50 138//50
f  139//51 55//51 140//51
f  55//51 139//51 53//51
f  141//52 142//52 143//52
f  142//52 141//52 144//52
f  145//53 146//53 147//53
f  146//53 145//53 148//53
f  149//54 91//54 150//54
f  91//54 149//54 89//54
f  151//55 147//55 152//55
f  147//55 151//55 145//55
f  153//56 154//56 155//56
f  154//56 153//56 156//56
f  157//57 158//57 159//57
f  158//57 157//57 160//57
f  161//58 162//58 163//58
f  162//58 161//58 164//58
f  165//59 48//59 45//59
f  48//59 165//59 166//59
f  144//60 167//60 142//60
f  94//60 167//60 144//60
f  94//60 168//60 167//60
f  96//60 168//60 94//60
f  96//60 44//60 168//60
f  169//60 44//60 96//60
f  169//60 42//60 44//60
f  170//60 42//60 169//60
f  170//60 61//60 42//60
f  171//60 61//60 170//60
f  171//60 172//60 61//60
f  82//60 172//60 171//60
f  82//60 104//60 172//60
f  84//60 104//60 82//60
f  84//60 102//60 104//60
f  173//60 102//60 84//60
f  173//60 174//60 102//60
f  175//60 174//60 173//60
f  175//60 106//60 174//60
f  176//60 106//60 175//60
f  176//60 66//60 106//60
f  177//60 66//60 176//60
f  177//60 64//60 66//60
f  92//60 64//60 177//60
f  92//60 178//60 64//60
f  89//60 178//60 92//60
f  89//60 117//60 178//60
f  149//60 117//60 89//60
f  149//60 120//60 117//60
f  179//60 120//60 149//60
f  179//60 122//60 120//60
f  180//60 122//60 179//60
f  180//60 67//60 122//60
f  181//60 67//60 180//60
f  181//60 70//60 67//60
f  182//60 70//60 181//60
f  182//60 111//60 70//60
f  183//60 111//60 182//60
f  183//60 114//60 111//60
f  88//60 114//60 183//60
f  88//60 107//60 114//60
f  85//60 107//60 88//60
f  85//60 110//60 107//60
f  184//60 110//60 85//60
f  184//60 115//60 110//60
f  148//60 115//60 184//60
f  148//60 49//60 115//60
f  145//60 49//60 148//60
f  145//60 52//60 49//60
f  151//60 52//60 145//60
f  151//60 138//60 52//60
f  185//60 138//60 151//60
f  185//60 186//60 138//60
f  187//60 186//60 185//60
f  187//60 188//60 186//60
f  189//60 188//60 187//60
f  189//60 139//60 188//60
f  100//60 139//60 189//60
f  100//60 53//60 139//60
f  97//60 53//60 100//60
f  97//60 56//60 53//60
f  190//60 56//60 97//60
f  190//60 191//60 56//60
f  192//60 191//60 190//60
f  192//60 133//60 191//60
f  193//60 133//60 192//60
f  193//60 136//60 133//60
f  156//60 136//60 193//60
f  156//60 77//60 136//60
f  153//60 77//60 156//60
f  153//60 80//60 77//60
f  194//60 80//60 153//60
f  194//60 195//60 80//60
f  157//60 195//60 194//60
f  157//60 196//60 195//60
f  159//60 196//60 157//60
f  159//60 76//60 196//60
f  57//60 76//60 159//60
f  57//60 73//60 76//60
f  59//60 73//60 57//60
f  59//60 71//60 73//60
f  197//60 71//60 59//60
f  197//60 198//60 71//60
f  161//60 198//60 197//60
f  161//60 199//60 198//60
f  163//60 199//60 161//60
f  163//60 129//60 199//60
f  200//60 129//60 163//60
f  200//60 127//60 129//60
f  201//60 127//60 200//60
f  201//60 125//60 127//60
f  202//60 125//60 201//60
f  202//60 123//60 125//60
f  203//60 123//60 202//60
f  203//60 132//60 123//60
f  165//60 132//60 203//60
f  165//60 47//60 132//60
f  47//60 165//60 45//60
f  204//61 168//61 205//61
f  168//61 204//61 167//61
f  205//62 44//62 41//62
f  44//62 205//62 168//62
f  206//63 104//63 101//63
f  104//63 206//63 172//63
f  62//64 172//64 206//64
f  172//64 62//64 61//64
f  65//65 178//65 207//65
f  178//65 65//65 64//65
f  103//66 174//66 208//66
f  174//66 103//66 102//66
f  208//67 106//67 105//67
f  106//67 208//67 174//67
f  114//68 109//68 112//68
f  109//68 114//68 107//68
f  110//69 116//69 108//69
f  116//69 110//69 115//69
f  70//70 113//70 68//70
f  113//70 70//70 111//70
f  122//71 69//71 121//71
f  69//71 122//71 67//71
f  178//72 119//72 207//72
f  119//72 178//72 117//72
f  196//73 209//73 195//73
f  209//73 196//73 210//73
f  76//74 210//74 196//74
f  210//74 76//74 75//74
f  198//75 74//75 71//75
f  74//75 198//75 211//75
f  129//76 212//76 199//76
f  212//76 129//76 128//76
f  199//77 211//77 198//77
f  211//77 199//77 212//77
f  34//1 35//1 33//1
f  36//1 135//1 35//1
f  134//1 35//1 135//1
f  79//1 35//1 134//1
f  78//1 35//1 79//1
f  209//1 35//1 78//1
f  210//1 35//1 209//1
f  75//1 35//1 210//1
f  72//1 35//1 75//1
f  74//1 35//1 72//1
f  211//1 35//1 74//1
f  35//1 211//1 33//1
f  212//1 33//1 211//1
f  128//1 33//1 212//1
f  130//1 33//1 128//1
f  124//1 33//1 130//1
f  126//1 33//1 124//1
f  131//1 33//1 126//1
f  46//1 33//1 131//1
f  48//1 33//1 46//1
f  33//1 48//1 166//1
f  33//1 166//1 213//1
f  33//1 213//1 214//1
f  33//1 214//1 215//1
f  33//1 215//1 216//1
f  32//1 33//1 31//1
f  217//1 31//1 33//1
f  33//1 164//1 217//1
f  33//1 162//1 164//1
f  33//1 216//1 162//1
f  31//1 217//1 58//1
f  31//1 58//1 60//1
f  31//1 60//1 158//1
f  31//1 158//1 160//1
f  31//1 160//1 218//1
f  31//1 218//1 155//1
f  31//1 155//1 154//1
f  31//1 154//1 219//1
f  31//1 219//1 220//1
f  220//1 30//1 31//1
f  30//1 220//1 221//1
f  30//1 221//1 99//1
f  30//1 99//1 98//1
f  30//1 98//1 222//1
f  223//1 30//1 222//1
f  224//1 30//1 223//1
f  152//1 30//1 224//1
f  147//1 30//1 152//1
f  28//1 147//1 146//1
f  28//1 30//1 147//1
f  28//1 146//1 225//1
f  28//1 225//1 87//1
f  28//1 87//1 86//1
f  28//1 86//1 226//1
f  227//1 28//1 226//1
f  228//1 28//1 227//1
f  229//1 28//1 228//1
f  230//1 27//1 229//1
f  28//1 229//1 27//1
f  150//1 27//1 230//1
f  91//1 27//1 150//1
f  90//1 27//1 91//1
f  231//1 27//1 90//1
f  232//1 27//1 231//1
f  233//1 27//1 232//1
f  234//1 27//1 233//1
f  81//1 27//1 234//1
f  83//1 25//1 81//1
f  27//1 81//1 25//1
f  235//1 25//1 83//1
f  236//1 25//1 235//1
f  237//1 25//1 236//1
f  93//1 25//1 237//1
f  95//1 25//1 93//1
f  141//1 25//1 95//1
f  143//1 25//1 141//1
f  25//1 143//1 204//1
f  25//1 204//1 205//1
f  25//1 205//1 41//1
f  25//1 41//1 43//1
f  25//1 43//1 62//1
f  25//1 62//1 206//1
f  25//1 26//1 27//1
f  25//1 206//1 101//1
f  25//1 101//1 103//1
f  103//1 23//1 25//1
f  25//1 23//1 24//1
f  23//1 103//1 208//1
f  23//1 208//1 105//1
f  23//1 105//1 63//1
f  23//1 63//1 65//1
f  23//1 65//1 207//1
f  23//1 207//1 119//1
f  23//1 119//1 118//1
f  23//1 118//1 121//1
f  23//1 121//1 69//1
f  22//1 69//1 68//1
f  69//1 22//1 23//1
f  22//1 68//1 113//1
f  22//1 113//1 112//1
f  109//1 22//1 112//1
f  108//1 22//1 109//1
f  116//1 22//1 108//1
f  51//1 22//1 116//1
f  50//1 22//1 51//1
f  36//1 22//1 50//1
f  36//1 50//1 137//1
f  36//1 137//1 238//1
f  36//1 238//1 239//1
f  36//1 239//1 140//1
f  55//1 36//1 140//1
f  54//1 36//1 55//1
f  240//1 36//1 54//1
f  22//1 36//1 21//1
f  135//1 36//1 240//1
f  30//1 28//1 29//1
f  37//1 39//1 40//1
f  39//1 37//1 38//1
f  125//78 130//78 127//78
f  130//78 125//78 124//78
f  132//79 126//79 123//79
f  126//79 132//79 131//79
f  80//80 209//80 78//80
f  209//80 80//80 195//80
f  56//81 240//81 54//81
f  240//81 56//81 191//81
f  191//82 135//82 240//82
f  135//82 191//82 133//82
f  188//83 140//83 239//83
f  140//83 188//83 139//83
f  138//84 238//84 137//84
f  238//84 138//84 186//84
f  186//85 239//85 238//85
f  239//85 186//85 188//85
f  143//86 167//86 204//86
f  167//86 143//86 142//86
f  95//87 144//87 141//87
f  144//87 95//87 94//87
f  148//88 225//88 146//88
f  225//88 148//88 184//88
f  183//89 227//89 226//89
f  227//89 183//89 182//89
f  180//90 230//90 229//90
f  230//90 180//90 179//90
f  182//91 228//91 227//91
f  228//91 182//91 181//91
f  231//92 176//92 232//92
f  176//92 231//92 177//92
f  233//93 173//93 234//93
f  173//93 233//93 175//93
f  235//94 170//94 236//94
f  170//94 235//94 171//94
f  236//95 169//95 237//95
f  169//95 236//95 170//95
f  194//96 160//96 157//96
f  160//96 194//96 218//96
f  100//97 222//97 98//97
f  222//97 100//97 189//97
f  187//98 224//98 223//98
f  224//98 187//98 185//98
f  156//99 219//99 154//99
f  219//99 156//99 193//99
f  192//100 221//100 220//100
f  221//100 192//100 190//100
f  159//101 60//101 57//101
f  60//101 159//101 158//101
f  59//102 217//102 197//102
f  217//102 59//102 58//102
f  203//103 166//103 165//103
f  166//103 203//103 213//103
f  163//104 216//104 200//104
f  216//104 163//104 162//104
f  201//105 214//105 202//105
f  214//105 201//105 215//105
f  184//106 87//106 225//106
f  87//106 184//106 85//106
f  88//107 226//107 86//107
f  226//107 88//107 183//107
f  90//108 177//108 231//108
f  177//108 90//108 92//108
f  181//109 229//109 228//109
f  229//109 181//109 180//109
f  179//110 150//110 230//110
f  150//110 179//110 149//110
f  234//111 84//111 81//111
f  84//111 234//111 173//111
f  83//112 171//112 235//112
f  171//112 83//112 82//112
f  189//113 223//113 222//113
f  223//113 189//113 187//113
f  185//114 152//114 224//114
f  152//114 185//114 151//114
f  193//115 220//115 219//115
f  220//115 193//115 192//115
f  190//116 99//116 221//116
f  99//116 190//116 97//116
f  194//117 155//117 218//117
f  155//117 194//117 153//117
f  197//118 164//118 161//118
f  164//118 197//118 217//118
f  202//119 213//119 203//119
f  213//119 202//119 214//119
f  200//120 215//120 201//120
f  215//120 200//120 216//120
f  237//121 96//121 93//121
f  96//121 237//121 169//121
f  232//122 175//122 233//122
f  175//122 232//122 176//122

