# File produced by Open Asset Import Library (http://www.assimp.sf.net)
# (assimp v3.1.187496374)

mtllib R-Raido.obj.mtl

# 228 vertex positions
v  3.10132 5.09212 2.1
v  1.65814 4.62129 2.1
v  3.0911 4.09928 2.1
v  -2.13921 9.67758 2.1
v  -2.56908 8.31627 2.1
v  -2.0266 -0.117706 2.1
v  -2.56908 1.13101 2.1
v  -2.56909 9.84135 2.1
v  -3.87921 9.84135 2.1
v  -3.87921 -9.81064 2.1
v  -2.56908 -1.68372 2.1
v  3.87923 -9.12487 2.1
v  -2.56908 -9.81064 2.1
v  2.7738 -9.84135 2.1
v  3.10132 5.09212 5
v  -2.13921 9.67758 5
v  3.0911 4.09928 5
v  -2.0266 -0.117706 5
v  3.87923 -9.12487 5
v  2.7738 -9.84135 5
v  -2.56908 -1.68372 5
v  -2.56908 -9.81064 5
v  -3.87921 -9.81064 5
v  -3.87921 9.84135 5
v  -2.56909 9.84135 5
v  -2.56908 8.31627 5
v  1.65814 4.62129 5
v  -2.56908 1.13101 5
v  15 0 5
v  14.9704 0.941857 0
v  14.9704 0.941857 5
v  15 0 0
v  -15 0 0
v  -14.9704 0.941857 5
v  -14.9704 0.941857 0
v  -15 0 5
v  0.941857 14.9704 0
v  0 15 5
v  0.941857 14.9704 5
v  0 15 0
v  -0.941857 -14.9704 0
v  0 -15 5
v  -0.941857 -14.9704 5
v  0 -15 0
v  -10.9345 -10.2682 0
v  -11.5577 -9.56136 5
v  -11.5577 -9.56136 0
v  -10.9345 -10.2682 5
v  10.9345 10.2682 5
v  10.2682 10.9345 0
v  10.2682 10.9345 5
v  10.9345 10.2682 0
v  -9.56136 11.5577 0
v  -10.2682 10.9345 5
v  -9.56136 11.5577 5
v  -10.2682 10.9345 0
v  -4.63525 14.2658 0
v  -5.52187 13.9466 5
v  -4.63525 14.2658 5
v  -5.52187 13.9466 0
v  13.9466 5.52187 5
v  13.5724 6.38669 0
v  13.5724 6.38669 5
v  13.9466 5.52187 0
v  6.38669 13.5724 0
v  5.52187 13.9466 5
v  6.38669 13.5724 5
v  5.52187 13.9466 0
v  8.81678 12.1353 0
v  8.0374 12.6649 5
v  8.81678 12.1353 5
v  8.0374 12.6649 0
v  -13.9466 5.52187 0
v  -13.5724 6.38669 5
v  -13.5724 6.38669 0
v  -13.9466 5.52187 5
v  -1.88 14.8817 0
v  -2.81072 14.7343 5
v  -1.88 14.8817 5
v  -2.81072 14.7343 0
v  14.9704 -0.941857 0
v  14.8817 -1.88 0
v  14.8817 1.88 0
v  14.7343 -2.81072 0
v  14.7343 2.81072 0
v  14.5287 -3.73035 0
v  14.5287 3.73035 0
v  14.2658 -4.63525 0
v  14.2658 4.63525 0
v  13.9466 -5.52187 0
v  13.5724 -6.38669 0
v  13.1446 -7.22631 0
v  13.1446 7.22631 0
v  12.6649 -8.0374 0
v  12.6649 8.0374 0
v  12.1353 -8.81678 0
v  12.1353 8.81678 0
v  11.5577 -9.56136 0
v  11.5577 9.56136 0
v  10.9345 -10.2682 0
v  10.2682 -10.9345 0
v  9.56136 -11.5577 0
v  9.56136 11.5577 0
v  8.81678 -12.1353 0
v  8.0374 -12.6649 0
v  7.22631 -13.1446 0
v  7.22631 13.1446 0
v  6.38669 -13.5724 0
v  5.52187 -13.9466 0
v  4.63525 -14.2658 0
v  4.63525 14.2658 0
v  3.73035 -14.5287 0
v  3.73035 14.5287 0
v  2.81072 -14.7343 0
v  2.81072 14.7343 0
v  1.88 -14.8817 0
v  1.88 14.8817 0
v  0.941857 -14.9704 0
v  -0.941857 14.9704 0
v  -1.88 -14.8817 0
v  -2.81072 -14.7343 0
v  -3.73035 -14.5287 0
v  -3.73035 14.5287 0
v  -4.63525 -14.2658 0
v  -5.52187 -13.9466 0
v  -6.38669 -13.5724 0
v  -6.38669 13.5724 0
v  -7.22631 -13.1446 0
v  -7.22631 13.1446 0
v  -8.0374 -12.6649 0
v  -8.0374 12.6649 0
v  -8.81678 -12.1353 0
v  -8.81678 12.1353 0
v  -9.56136 -11.5577 0
v  -10.2682 -10.9345 0
v  -10.9345 10.2682 0
v  -11.5577 9.56136 0
v  -12.1353 -8.81678 0
v  -12.1353 8.81678 0
v  -12.6649 -8.0374 0
v  -12.6649 8.0374 0
v  -13.1446 -7.22631 0
v  -13.1446 7.22631 0
v  -13.5724 -6.38669 0
v  -13.9466 -5.52187 0
v  -14.2658 -4.63525 0
v  -14.2658 4.63525 0
v  -14.5287 -3.73035 0
v  -14.5287 3.73035 0
v  -14.7343 -2.81072 0
v  -14.7343 2.81072 0
v  -14.8817 -1.88 0
v  -14.8817 1.88 0
v  -14.9704 -0.941857 0
v  14.7343 2.81072 5
v  14.5287 3.73035 5
v  14.2658 4.63525 5
v  12.6649 8.0374 5
v  12.1353 8.81678 5
v  11.5577 9.56136 5
v  13.1446 7.22631 5
v  2.81072 14.7343 5
v  3.73035 14.5287 5
v  4.63525 14.2658 5
v  7.22631 13.1446 5
v  9.56136 11.5577 5
v  -14.5287 3.73035 5
v  -14.7343 2.81072 5
v  -11.5577 9.56136 5
v  -12.1353 8.81678 5
v  -14.2658 4.63525 5
v  1.88 14.8817 5
v  -0.941857 14.9704 5
v  14.8817 1.88 5
v  14.9704 -0.941857 5
v  14.8817 -1.88 5
v  14.7343 -2.81072 5
v  14.5287 -3.73035 5
v  14.2658 -4.63525 5
v  13.9466 -5.52187 5
v  13.5724 -6.38669 5
v  13.1446 -7.22631 5
v  12.6649 -8.0374 5
v  12.1353 -8.81678 5
v  11.5577 -9.56136 5
v  10.9345 -10.2682 5
v  10.2682 -10.9345 5
v  9.56136 -11.5577 5
v  8.81678 -12.1353 5
v  8.0374 -12.6649 5
v  7.22631 -13.1446 5
v  6.38669 -13.5724 5
v  5.52187 -13.9466 5
v  4.63525 -14.2658 5
v  3.73035 -14.5287 5
v  2.81072 -14.7343 5
v  1.88 -14.8817 5
v  0.941857 -14.9704 5
v  -1.88 -14.8817 5
v  -2.81072 -14.7343 5
v  -3.73035 -14.5287 5
v  -4.63525 -14.2658 5
v  -5.52187 -13.9466 5
v  -6.38669 -13.5724 5
v  -7.22631 -13.1446 5
v  -8.0374 -12.6649 5
v  -8.81678 -12.1353 5
v  -9.56136 -11.5577 5
v  -10.2682 -10.9345 5
v  -12.1353 -8.81678 5
v  -12.6649 -8.0374 5
v  -13.1446 -7.22631 5
v  -13.5724 -6.38669 5
v  -13.9466 -5.52187 5
v  -14.2658 -4.63525 5
v  -14.5287 -3.73035 5
v  -14.7343 -2.81072 5
v  -14.8817 -1.88 5
v  -14.9704 -0.941857 5
v  -14.8817 1.88 5
v  -13.1446 7.22631 5
v  -12.6649 8.0374 5
v  -10.9345 10.2682 5
v  -8.81678 12.1353 5
v  -8.0374 12.6649 5
v  -7.22631 13.1446 5
v  -6.38669 13.5724 5
v  -3.73035 14.5287 5

# 0 UV coordinates

# 115 vertex normals
vn 0 0 1
vn -0.658505 -0.752576 0
vn -0.999947 0.0102923 0
vn -0.635924 0.771752 0
vn -0.836266 -0.548324 0
vn -0.543896 0.839153 0
vn 0.836545 0.547899 0
vn -1 0 0
vn 0 1 0
vn 1 0 0
vn 0 -1 0
vn -0.355996 -0.934488 0
vn 0.658118 0.752915 0
vn 0.636689 -0.771121 0
vn 0.999507 0.0314109 0
vn -0.999507 0.0314109 0
vn 0.0314109 0.999507 0
vn -0.0314109 -0.999507 0
vn -0.750111 -0.661312 0
vn 0.707107 0.707107 0
vn -0.661312 0.750111 0
vn -0.338738 0.940881 0
vn 0.917755 0.397148 0
vn 0.397148 0.917755 0
vn 0.562083 0.827081 0
vn -0.917755 0.397148 0
vn -0.156434 0.987688 0
vn 0 0 -1
vn 0.975917 0.218144 0
vn 0.960294 0.278991 0
vn 0.827081 0.562083 0
vn 0.790155 0.612907 0
vn 0.891007 0.45399 0
vn 0.218144 0.975917 0
vn 0.338738 0.940881 0
vn 0.509042 0.860742 0
vn 0.612907 0.790155 0
vn -0.975917 0.218144 0
vn -0.790155 0.612907 0
vn -0.940881 0.338738 0
vn -0.509042 0.860742 0
vn -0.562083 0.827081 0
vn -0.0314109 0.999507 0
vn 0.0314109 -0.999507 0
vn 0.562083 -0.827081 0
vn 0.612907 -0.790155 0
vn 0.995562 -0.0941092 0
vn -0.338738 -0.940881 0
vn -0.827081 -0.562083 0
vn -0.999507 -0.0314109 0
vn 0.987688 0.156434 0
vn 0.995562 0.0941092 0
vn 0.940881 0.338738 0
vn 0.750111 0.661312 0
vn 0.860742 0.509042 0
vn 0.278991 0.960294 0
vn 0.156434 0.987688 0
vn 0.0941092 0.995562 0
vn 0.45399 0.891007 0
vn 0.661312 0.750111 0
vn -0.750111 0.661312 0
vn -0.707107 0.707107 0
vn -0.860742 0.509042 0
vn -0.891007 0.45399 0
vn -0.827081 0.562083 0
vn -0.960294 0.278991 0
vn -0.987688 0.156434 0
vn -0.995562 0.0941092 0
vn -0.45399 0.891007 0
vn -0.397148 0.917755 0
vn -0.612907 0.790155 0
vn -0.218144 0.975917 0
vn -0.278991 0.960294 0
vn -0.0941092 0.995562 0
vn 0.999507 -0.0314109 0
vn 0.0941092 -0.995562 0
vn 0.338738 -0.940881 0
vn 0.218144 -0.975917 0
vn 0.661312 -0.750111 0
vn 0.509042 -0.860742 0
vn 0.397148 -0.917755 0
vn 0.750111 -0.661312 0
vn 0.827081 -0.562083 0
vn 0.940881 -0.338738 0
vn 0.891007 -0.45399 0
vn 0.960294 -0.278991 0
vn -0.707107 -0.707107 0
vn -0.612907 -0.790155 0
vn -0.45399 -0.891007 0
vn -0.562083 -0.827081 0
vn -0.218144 -0.975917 0
vn -0.278991 -0.960294 0
vn -0.0941092 -0.995562 0
vn -0.156434 -0.987688 0
vn -0.860742 -0.509042 0
vn -0.917755 -0.397148 0
vn -0.891007 -0.45399 0
vn -0.790155 -0.612907 0
vn -0.940881 -0.338738 0
vn -0.975917 -0.218144 0
vn -0.960294 -0.278991 0
vn -0.995562 -0.0941092 0
vn -0.987688 -0.156434 0
vn 0.987688 -0.156434 0
vn 0.156434 -0.987688 0
vn 0.278991 -0.960294 0
vn 0.707107 -0.707107 0
vn 0.45399 -0.891007 0
vn 0.790155 -0.612907 0
vn 0.860742 -0.509042 0
vn 0.917755 -0.397148 0
vn -0.661312 -0.750111 0
vn -0.397148 -0.917755 0
vn -0.509042 -0.860742 0
vn 0.975917 -0.218144 0

# Mesh 'OpenSCAD_Model' with 452 faces
g OpenSCAD_Model
usemtl DefaultMaterial
f  1//1 2//1 3//1
f  4//1 2//1 1//1
f  4//1 5//1 2//1
f  2//1 6//1 3//1
f  6//1 2//1 7//1
f  8//1 5//1 4//1
f  9//1 7//1 5//1
f  9//1 5//1 8//1
f  10//1 7//1 9//1
f  7//1 10//1 11//1
f  11//1 6//1 7//1
f  11//1 12//1 6//1
f  11//1 10//1 13//1
f  12//1 11//1 14//1
f  4//2 15//2 16//2
f  15//2 4//2 1//2
f  3//3 15//3 1//3
f  15//3 3//3 17//3
f  3//4 18//4 17//4
f  18//4 3//4 6//4
f  12//5 18//5 6//5
f  18//5 12//5 19//5
f  12//6 20//6 19//6
f  20//6 12//6 14//6
f  20//7 11//7 21//7
f  11//7 20//7 14//7
f  13//8 21//8 11//8
f  21//8 13//8 22//8
f  13//9 23//9 22//9
f  23//9 13//9 10//9
f  23//10 9//10 24//10
f  9//10 23//10 10//10
f  9//11 25//11 24//11
f  25//11 9//11 8//11
f  8//12 16//12 25//12
f  16//12 8//12 4//12
f  2//13 26//13 27//13
f  26//13 2//13 5//13
f  7//8 26//8 5//8
f  26//8 7//8 28//8
f  7//14 27//14 28//14
f  27//14 7//14 2//14
f  29//15 30//15 31//15
f  30//15 29//15 32//15
f  33//16 34//16 35//16
f  34//16 33//16 36//16
f  37//17 38//17 39//17
f  38//17 37//17 40//17
f  41//18 42//18 43//18
f  42//18 41//18 44//18
f  45//19 46//19 47//19
f  46//19 45//19 48//19
f  49//20 50//20 51//20
f  50//20 49//20 52//20
f  53//21 54//21 55//21
f  54//21 53//21 56//21
f  57//22 58//22 59//22
f  58//22 57//22 60//22
f  61//23 62//23 63//23
f  62//23 61//23 64//23
f  65//24 66//24 67//24
f  66//24 65//24 68//24
f  69//25 70//25 71//25
f  70//25 69//25 72//25
f  73//26 74//26 75//26
f  74//26 73//26 76//26
f  77//27 78//27 79//27
f  78//27 77//27 80//27
f  81//28 30//28 32//28
f  82//28 30//28 81//28
f  82//28 83//28 30//28
f  84//28 83//28 82//28
f  84//28 85//28 83//28
f  86//28 85//28 84//28
f  86//28 87//28 85//28
f  88//28 87//28 86//28
f  88//28 89//28 87//28
f  90//28 89//28 88//28
f  90//28 64//28 89//28
f  91//28 64//28 90//28
f  91//28 62//28 64//28
f  92//28 62//28 91//28
f  92//28 93//28 62//28
f  94//28 93//28 92//28
f  94//28 95//28 93//28
f  96//28 95//28 94//28
f  96//28 97//28 95//28
f  98//28 97//28 96//28
f  98//28 99//28 97//28
f  100//28 99//28 98//28
f  100//28 52//28 99//28
f  101//28 52//28 100//28
f  101//28 50//28 52//28
f  102//28 50//28 101//28
f  102//28 103//28 50//28
f  104//28 103//28 102//28
f  104//28 69//28 103//28
f  105//28 69//28 104//28
f  105//28 72//28 69//28
f  106//28 72//28 105//28
f  106//28 107//28 72//28
f  108//28 107//28 106//28
f  108//28 65//28 107//28
f  109//28 65//28 108//28
f  109//28 68//28 65//28
f  110//28 68//28 109//28
f  110//28 111//28 68//28
f  112//28 111//28 110//28
f  112//28 113//28 111//28
f  114//28 113//28 112//28
f  114//28 115//28 113//28
f  116//28 115//28 114//28
f  116//28 117//28 115//28
f  118//28 117//28 116//28
f  118//28 37//28 117//28
f  44//28 37//28 118//28
f  44//28 40//28 37//28
f  41//28 40//28 44//28
f  41//28 119//28 40//28
f  120//28 119//28 41//28
f  120//28 77//28 119//28
f  121//28 77//28 120//28
f  121//28 80//28 77//28
f  122//28 80//28 121//28
f  122//28 123//28 80//28
f  124//28 123//28 122//28
f  124//28 57//28 123//28
f  125//28 57//28 124//28
f  125//28 60//28 57//28
f  126//28 60//28 125//28
f  126//28 127//28 60//28
f  128//28 127//28 126//28
f  128//28 129//28 127//28
f  130//28 129//28 128//28
f  130//28 131//28 129//28
f  132//28 131//28 130//28
f  132//28 133//28 131//28
f  134//28 133//28 132//28
f  134//28 53//28 133//28
f  135//28 53//28 134//28
f  135//28 56//28 53//28
f  45//28 56//28 135//28
f  45//28 136//28 56//28
f  47//28 136//28 45//28
f  47//28 137//28 136//28
f  138//28 137//28 47//28
f  138//28 139//28 137//28
f  140//28 139//28 138//28
f  140//28 141//28 139//28
f  142//28 141//28 140//28
f  142//28 143//28 141//28
f  144//28 143//28 142//28
f  144//28 75//28 143//28
f  145//28 75//28 144//28
f  145//28 73//28 75//28
f  146//28 73//28 145//28
f  146//28 147//28 73//28
f  148//28 147//28 146//28
f  148//28 149//28 147//28
f  150//28 149//28 148//28
f  150//28 151//28 149//28
f  152//28 151//28 150//28
f  152//28 153//28 151//28
f  154//28 153//28 152//28
f  154//28 35//28 153//28
f  35//28 154//28 33//28
f  155//29 87//29 156//29
f  87//29 155//29 85//29
f  156//30 89//30 157//30
f  89//30 156//30 87//30
f  158//31 97//31 159//31
f  97//31 158//31 95//31
f  159//32 99//32 160//32
f  99//32 159//32 97//32
f  63//33 93//33 161//33
f  93//33 63//33 62//33
f  113//34 162//34 163//34
f  162//34 113//34 115//34
f  68//35 164//35 66//35
f  164//35 68//35 111//35
f  72//36 165//36 70//36
f  165//36 72//36 107//36
f  103//37 71//37 166//37
f  71//37 103//37 69//37
f  151//38 167//38 149//38
f  167//38 151//38 168//38
f  139//39 169//39 137//39
f  169//39 139//39 170//39
f  147//40 76//40 73//40
f  76//40 147//40 171//40
f  16//1 163//1 162//1
f  16//1 162//1 172//1
f  16//1 172//1 39//1
f  16//1 39//1 38//1
f  16//1 38//1 173//1
f  16//1 173//1 79//1
f  163//1 16//1 15//1
f  79//1 25//1 16//1
f  15//1 164//1 163//1
f  15//1 66//1 164//1
f  15//1 67//1 66//1
f  15//1 165//1 67//1
f  15//1 70//1 165//1
f  15//1 71//1 70//1
f  15//1 166//1 71//1
f  15//1 51//1 166//1
f  15//1 49//1 51//1
f  15//1 160//1 49//1
f  15//1 159//1 160//1
f  15//1 158//1 159//1
f  15//1 161//1 158//1
f  161//1 15//1 17//1
f  17//1 63//1 161//1
f  17//1 61//1 63//1
f  17//1 157//1 61//1
f  17//1 156//1 157//1
f  17//1 155//1 156//1
f  17//1 174//1 155//1
f  17//1 31//1 174//1
f  17//1 29//1 31//1
f  29//1 17//1 175//1
f  175//1 17//1 176//1
f  176//1 17//1 177//1
f  177//1 17//1 178//1
f  178//1 17//1 179//1
f  19//1 179//1 17//1
f  19//1 17//1 18//1
f  179//1 19//1 180//1
f  180//1 19//1 181//1
f  181//1 19//1 182//1
f  182//1 19//1 183//1
f  183//1 19//1 184//1
f  184//1 19//1 185//1
f  185//1 19//1 186//1
f  186//1 19//1 187//1
f  187//1 19//1 188//1
f  188//1 19//1 189//1
f  189//1 19//1 190//1
f  190//1 19//1 191//1
f  191//1 19//1 192//1
f  20//1 193//1 19//1
f  192//1 19//1 193//1
f  193//1 20//1 194//1
f  194//1 20//1 195//1
f  195//1 20//1 196//1
f  20//1 197//1 196//1
f  20//1 198//1 197//1
f  20//1 42//1 198//1
f  22//1 42//1 20//1
f  22//1 20//1 21//1
f  42//1 22//1 43//1
f  43//1 22//1 199//1
f  22//1 200//1 199//1
f  22//1 201//1 200//1
f  23//1 201//1 22//1
f  23//1 202//1 201//1
f  23//1 203//1 202//1
f  23//1 204//1 203//1
f  23//1 205//1 204//1
f  23//1 206//1 205//1
f  23//1 207//1 206//1
f  23//1 208//1 207//1
f  23//1 209//1 208//1
f  23//1 48//1 209//1
f  23//1 46//1 48//1
f  23//1 210//1 46//1
f  23//1 211//1 210//1
f  23//1 212//1 211//1
f  23//1 213//1 212//1
f  23//1 214//1 213//1
f  23//1 215//1 214//1
f  23//1 216//1 215//1
f  23//1 217//1 216//1
f  23//1 218//1 217//1
f  23//1 219//1 218//1
f  23//1 36//1 219//1
f  24//1 36//1 23//1
f  36//1 24//1 34//1
f  34//1 24//1 220//1
f  220//1 24//1 168//1
f  168//1 24//1 167//1
f  167//1 24//1 171//1
f  171//1 24//1 76//1
f  76//1 24//1 74//1
f  74//1 24//1 221//1
f  221//1 24//1 222//1
f  222//1 24//1 170//1
f  170//1 24//1 169//1
f  169//1 24//1 223//1
f  223//1 24//1 54//1
f  54//1 24//1 55//1
f  55//1 24//1 224//1
f  224//1 24//1 225//1
f  225//1 24//1 226//1
f  226//1 24//1 227//1
f  227//1 24//1 58//1
f  58//1 24//1 59//1
f  59//1 24//1 228//1
f  228//1 24//1 25//1
f  228//1 25//1 78//1
f  78//1 25//1 79//1
f  26//1 28//1 27//1
f  129//41 225//41 226//41
f  225//41 129//41 131//41
f  131//42 224//42 225//42
f  224//42 131//42 133//42
f  40//43 173//43 38//43
f  173//43 40//43 119//43
f  44//44 198//44 42//44
f  198//44 44//44 118//44
f  105//45 189//45 190//45
f  189//45 105//45 104//45
f  104//46 188//46 189//46
f  188//46 104//46 102//46
f  176//47 81//47 175//47
f  81//47 176//47 82//47
f  125//48 202//48 203//48
f  202//48 125//48 124//48
f  138//49 211//49 140//49
f  211//49 138//49 210//49
f  154//50 36//50 33//50
f  36//50 154//50 219//50
f  174//51 85//51 155//51
f  85//51 174//51 83//51
f  31//52 83//52 174//52
f  83//52 31//52 30//52
f  157//53 64//53 61//53
f  64//53 157//53 89//53
f  160//54 52//54 49//54
f  52//54 160//54 99//54
f  161//55 95//55 158//55
f  95//55 161//55 93//55
f  111//56 163//56 164//56
f  163//56 111//56 113//56
f  115//57 172//57 162//57
f  172//57 115//57 117//57
f  117//58 39//58 172//58
f  39//58 117//58 37//58
f  107//59 67//59 165//59
f  67//59 107//59 65//59
f  50//60 166//60 51//60
f  166//60 50//60 103//60
f  137//61 223//61 136//61
f  223//61 137//61 169//61
f  136//62 54//62 56//62
f  54//62 136//62 223//62
f  143//63 222//63 141//63
f  222//63 143//63 221//63
f  75//64 221//64 143//64
f  221//64 75//64 74//64
f  141//65 170//65 139//65
f  170//65 141//65 222//65
f  149//66 171//66 147//66
f  171//66 149//66 167//66
f  153//67 168//67 151//67
f  168//67 153//67 220//67
f  35//68 220//68 153//68
f  220//68 35//68 34//68
f  127//69 226//69 227//69
f  226//69 127//69 129//69
f  60//70 227//70 58//70
f  227//70 60//70 127//70
f  133//71 55//71 224//71
f  55//71 133//71 53//71
f  80//72 228//72 78//72
f  228//72 80//72 123//72
f  123//73 59//73 228//73
f  59//73 123//73 57//73
f  119//74 79//74 173//74
f  79//74 119//74 77//74
f  175//75 32//75 29//75
f  32//75 175//75 81//75
f  118//76 197//76 198//76
f  197//76 118//76 116//76
f  110//77 193//77 194//77
f  193//77 110//77 109//77
f  114//78 195//78 196//78
f  195//78 114//78 112//78
f  102//79 187//79 188//79
f  187//79 102//79 101//79
f  106//80 190//80 191//80
f  190//80 106//80 105//80
f  109//81 192//81 193//81
f  192//81 109//81 108//81
f  186//82 98//82 185//82
f  98//82 186//82 100//82
f  184//83 94//83 183//83
f  94//83 184//83 96//83
f  180//84 88//84 179//84
f  88//84 180//84 90//84
f  182//85 91//85 181//85
f  91//85 182//85 92//85
f  179//86 86//86 178//86
f  86//86 179//86 88//86
f  135//87 48//87 45//87
f  48//87 135//87 209//87
f  134//88 207//88 208//88
f  207//88 134//88 132//88
f  128//89 204//89 205//89
f  204//89 128//89 126//89
f  132//90 206//90 207//90
f  206//90 132//90 130//90
f  122//91 200//91 201//91
f  200//91 122//91 121//91
f  124//92 201//92 202//92
f  201//92 124//92 122//92
f  120//93 43//93 199//93
f  43//93 120//93 41//93
f  121//94 199//94 200//94
f  199//94 121//94 120//94
f  140//95 212//95 142//95
f  212//95 140//95 211//95
f  144//96 214//96 145//96
f  214//96 144//96 213//96
f  142//97 213//97 144//97
f  213//97 142//97 212//97
f  47//98 210//98 138//98
f  210//98 47//98 46//98
f  145//99 215//99 146//99
f  215//99 145//99 214//99
f  148//100 217//100 150//100
f  217//100 148//100 216//100
f  146//101 216//101 148//101
f  216//101 146//101 215//101
f  152//102 219//102 154//102
f  219//102 152//102 218//102
f  150//103 218//103 152//103
f  218//103 150//103 217//103
f  177//104 82//104 176//104
f  82//104 177//104 84//104
f  116//105 196//105 197//105
f  196//105 116//105 114//105
f  112//106 194//106 195//106
f  194//106 112//106 110//106
f  187//107 100//107 186//107
f  100//107 187//107 101//107
f  108//108 191//108 192//108
f  191//108 108//108 106//108
f  185//109 96//109 184//109
f  96//109 185//109 98//109
f  183//110 92//110 182//110
f  92//110 183//110 94//110
f  181//111 90//111 180//111
f  90//111 181//111 91//111
f  135//112 208//112 209//112
f  208//112 135//112 134//112
f  126//113 203//113 204//113
f  203//113 126//113 125//113
f  130//114 205//114 206//114
f  205//114 130//114 128//114
f  178//115 84//115 177//115
f  84//115 178//115 86//115

