# File produced by Open Asset Import Library (http://www.assimp.sf.net)
# (assimp v3.1.187496374)

mtllib S1-Sowulo.obj.mtl

# 226 vertex positions
v  14.8817 1.88 5
v  14.7343 2.81072 0
v  14.7343 2.81072 5
v  14.8817 1.88 0
v  15 0 5
v  14.9704 0.941857 0
v  14.9704 0.941857 5
v  15 0 0
v  -15 0 0
v  -14.9704 0.941857 5
v  -14.9704 0.941857 0
v  -15 0 5
v  0.941857 14.9704 0
v  0 15 5
v  0.941857 14.9704 5
v  0 15 0
v  -0.941857 -14.9704 0
v  0 -15 5
v  -0.941857 -14.9704 5
v  0 -15 0
v  10.9345 10.2682 5
v  10.2682 10.9345 0
v  10.2682 10.9345 5
v  10.9345 10.2682 0
v  -9.56136 11.5577 0
v  -10.2682 10.9345 5
v  -9.56136 11.5577 5
v  -10.2682 10.9345 0
v  -4.63525 14.2658 0
v  -5.52187 13.9466 5
v  -4.63525 14.2658 5
v  -5.52187 13.9466 0
v  13.9466 5.52187 5
v  13.5724 6.38669 0
v  13.5724 6.38669 5
v  13.9466 5.52187 0
v  -12.6649 8.0374 0
v  -12.1353 8.81678 5
v  -12.1353 8.81678 0
v  -12.6649 8.0374 5
v  -11.5577 9.56136 5
v  -11.5577 9.56136 0
v  13.1446 -7.22631 5
v  13.5724 -6.38669 0
v  13.5724 -6.38669 5
v  13.1446 -7.22631 0
v  2.81072 -14.7343 0
v  3.73035 -14.5287 5
v  2.81072 -14.7343 5
v  3.73035 -14.5287 0
v  10.2682 -10.9345 5
v  10.9345 -10.2682 0
v  10.9345 -10.2682 5
v  10.2682 -10.9345 0
v  14.5287 -3.73035 5
v  14.7343 -2.81072 0
v  14.7343 -2.81072 5
v  14.5287 -3.73035 0
v  -5.52187 -13.9466 0
v  -4.63525 -14.2658 5
v  -5.52187 -13.9466 5
v  -4.63525 -14.2658 0
v  -11.5577 -9.56136 0
v  -12.1353 -8.81678 5
v  -12.1353 -8.81678 0
v  -11.5577 -9.56136 5
v  -13.9466 -5.52187 0
v  -14.2658 -4.63525 5
v  -14.2658 -4.63525 0
v  -13.9466 -5.52187 5
v  14.5287 3.73035 0
v  14.5287 3.73035 5
v  14.2658 4.63525 0
v  14.2658 4.63525 5
v  12.1353 8.81678 5
v  11.5577 9.56136 0
v  11.5577 9.56136 5
v  12.1353 8.81678 0
v  13.1446 7.22631 0
v  13.1446 7.22631 5
v  4.63525 14.2658 0
v  3.73035 14.5287 5
v  4.63525 14.2658 5
v  3.73035 14.5287 0
v  1.88 14.8817 0
v  1.88 14.8817 5
v  8.81678 12.1353 0
v  8.0374 12.6649 5
v  8.81678 12.1353 5
v  8.0374 12.6649 0
v  7.22631 13.1446 5
v  7.22631 13.1446 0
v  -14.5287 3.73035 0
v  -14.2658 4.63525 5
v  -14.2658 4.63525 0
v  -14.5287 3.73035 5
v  -10.9345 10.2682 5
v  -10.9345 10.2682 0
v  -13.1446 7.22631 0
v  -13.1446 7.22631 5
v  -13.9466 5.52187 5
v  -13.9466 5.52187 0
v  -14.8817 1.88 5
v  -14.8817 1.88 0
v  -6.38669 13.5724 0
v  -7.22631 13.1446 5
v  -6.38669 13.5724 5
v  -7.22631 13.1446 0
v  -8.0374 12.6649 5
v  -8.0374 12.6649 0
v  -8.81678 12.1353 5
v  -8.81678 12.1353 0
v  -3.73035 14.5287 0
v  -3.73035 14.5287 5
v  -0.941857 14.9704 5
v  -0.941857 14.9704 0
v  0.941857 -14.9704 0
v  1.88 -14.8817 5
v  0.941857 -14.9704 5
v  1.88 -14.8817 0
v  8.81678 -12.1353 0
v  9.56136 -11.5577 5
v  8.81678 -12.1353 5
v  9.56136 -11.5577 0
v  7.22631 -13.1446 0
v  8.0374 -12.6649 5
v  7.22631 -13.1446 5
v  8.0374 -12.6649 0
v  -3.73035 -14.5287 5
v  -3.73035 -14.5287 0
v  -6.38669 -13.5724 0
v  -6.38669 -13.5724 5
v  -12.6649 -8.0374 0
v  -13.1446 -7.22631 5
v  -13.1446 -7.22631 0
v  -12.6649 -8.0374 5
v  -14.9704 -0.941857 0
v  -14.9704 -0.941857 5
v  14.9704 -0.941857 0
v  14.8817 -1.88 0
v  14.2658 -4.63525 0
v  13.9466 -5.52187 0
v  12.6649 -8.0374 0
v  12.6649 8.0374 0
v  12.1353 -8.81678 0
v  11.5577 -9.56136 0
v  9.56136 11.5577 0
v  6.38669 -13.5724 0
v  6.38669 13.5724 0
v  5.52187 -13.9466 0
v  5.52187 13.9466 0
v  4.63525 -14.2658 0
v  2.81072 14.7343 0
v  -1.88 -14.8817 0
v  -1.88 14.8817 0
v  -2.81072 -14.7343 0
v  -2.81072 14.7343 0
v  -7.22631 -13.1446 0
v  -8.0374 -12.6649 0
v  -8.81678 -12.1353 0
v  -9.56136 -11.5577 0
v  -10.2682 -10.9345 0
v  -10.9345 -10.2682 0
v  -13.5724 -6.38669 0
v  -13.5724 6.38669 0
v  -14.5287 -3.73035 0
v  -14.7343 -2.81072 0
v  -14.7343 2.81072 0
v  -14.8817 -1.88 0
v  12.6649 8.0374 5
v  5.52187 13.9466 5
v  2.81072 14.7343 5
v  6.38669 13.5724 5
v  9.56136 11.5577 5
v  -13.5724 6.38669 5
v  -14.7343 2.81072 5
v  3.6503 -0.531694 5
v  -2.13701 -4.58078 5
v  3.6503 -8.62986 5
v  3.6503 0.531694 5
v  14.9704 -0.941857 5
v  14.8817 -1.88 5
v  14.2658 -4.63525 5
v  13.9466 -5.52187 5
v  12.6649 -8.0374 5
v  12.1353 -8.81678 5
v  11.5577 -9.56136 5
v  2.89366 -9.69325 5
v  6.38669 -13.5724 5
v  5.52187 -13.9466 5
v  4.63525 -14.2658 5
v  -1.88 -14.8817 5
v  -2.81072 -14.7343 5
v  -3.6503 -5.11247 5
v  -7.22631 -13.1446 5
v  -8.0374 -12.6649 5
v  -8.81678 -12.1353 5
v  -9.56136 -11.5577 5
v  -10.2682 -10.9345 5
v  -10.9345 -10.2682 5
v  -3.6503 -4.04908 5
v  -13.5724 -6.38669 5
v  -14.5287 -3.73035 5
v  -14.7343 -2.81072 5
v  -14.8817 -1.88 5
v  -3.6503 4.04908 5
v  -3.6503 5.11247 5
v  -2.81072 14.7343 5
v  2.89366 9.69325 5
v  -1.88 14.8817 5
v  3.6503 8.62986 5
v  -2.13701 4.58078 5
v  2.13701 0 5
v  2.89366 9.69325 2.1
v  -2.13701 4.58078 2.1
v  3.6503 8.62986 2.1
v  -3.6503 5.11247 2.1
v  2.13701 0 2.1
v  3.6503 0.531694 2.1
v  -3.6503 4.04908 2.1
v  3.6503 -0.531694 2.1
v  -2.13701 -4.58078 2.1
v  -3.6503 -4.04908 2.1
v  2.89366 -9.69325 2.1
v  3.6503 -8.62986 2.1
v  -3.6503 -5.11247 2.1

# 0 UV coordinates

# 112 vertex normals
vn 0.987688 0.156434 0
vn 0.999507 0.0314109 0
vn -0.999507 0.0314109 0
vn 0.0314109 0.999507 0
vn -0.0314109 -0.999507 0
vn 0.707107 0.707107 0
vn -0.661312 0.750111 0
vn -0.338738 0.940881 0
vn 0.917755 0.397148 0
vn -0.827081 0.562083 0
vn -0.790155 0.612907 0
vn 0.891007 -0.45399 0
vn 0.218144 -0.975917 0
vn 0.707107 -0.707107 0
vn 0.975917 -0.218144 0
vn -0.338738 -0.940881 0
vn -0.790155 -0.612907 0
vn -0.940881 -0.338738 0
vn 0.975917 0.218144 0
vn 0.960294 0.278991 0
vn 0.790155 0.612907 0
vn 0.891007 0.45399 0
vn 0.278991 0.960294 0
vn 0.0941092 0.995562 0
vn 0.562083 0.827081 0
vn 0.509042 0.860742 0
vn -0.960294 0.278991 0
vn -0.750111 0.661312 0
vn -0.860742 0.509042 0
vn -0.940881 0.338738 0
vn -0.995562 0.0941092 0
vn -0.45399 0.891007 0
vn -0.509042 0.860742 0
vn -0.562083 0.827081 0
vn -0.278991 0.960294 0
vn -0.0314109 0.999507 0
vn 0.0941092 -0.995562 0
vn 0.0314109 -0.999507 0
vn 0.612907 -0.790155 0
vn 0.509042 -0.860742 0
vn -0.278991 -0.960294 0
vn -0.397148 -0.917755 0
vn -0.860742 -0.509042 0
vn -0.827081 -0.562083 0
vn -0.999507 -0.0314109 0
vn 0 0 -1
vn 0.995562 0.0941092 0
vn 0.827081 0.562083 0
vn 0.338738 0.940881 0
vn 0.218144 0.975917 0
vn 0.156434 0.987688 0
vn 0.397148 0.917755 0
vn 0.661312 0.750111 0
vn 0.612907 0.790155 0
vn -0.707107 0.707107 0
vn -0.891007 0.45399 0
vn -0.917755 0.397148 0
vn -0.975917 0.218144 0
vn -0.987688 0.156434 0
vn 0 0 1
vn -0.397148 0.917755 0
vn -0.218144 0.975917 0
vn -0.156434 0.987688 0
vn -0.0941092 0.995562 0
vn 0.999507 -0.0314109 0
vn 0.338738 -0.940881 0
vn 0.278991 -0.960294 0
vn 0.661312 -0.750111 0
vn 0.397148 -0.917755 0
vn 0.827081 -0.562083 0
vn 0.750111 -0.661312 0
vn 0.940881 -0.338738 0
vn 0.917755 -0.397148 0
vn 0.960294 -0.278991 0
vn -0.612907 -0.790155 0
vn -0.707107 -0.707107 0
vn -0.661312 -0.750111 0
vn -0.562083 -0.827081 0
vn -0.45399 -0.891007 0
vn -0.509042 -0.860742 0
vn -0.156434 -0.987688 0
vn -0.750111 -0.661312 0
vn -0.917755 -0.397148 0
vn -0.975917 -0.218144 0
vn -0.995562 -0.0941092 0
vn -0.987688 -0.156434 0
vn 0.940881 0.338738 0
vn 0.750111 0.661312 0
vn 0.860742 0.509042 0
vn 0.45399 0.891007 0
vn -0.612907 0.790155 0
vn 0.987688 -0.156434 0
vn 0.156434 -0.987688 0
vn 0.45399 -0.891007 0
vn 0.562083 -0.827081 0
vn 0.860742 -0.509042 0
vn 0.790155 -0.612907 0
vn -0.218144 -0.975917 0
vn -0.0941092 -0.995562 0
vn -0.891007 -0.45399 0
vn -0.960294 -0.278991 0
vn 0.995562 -0.0941092 0
vn -0.573268 0.819368 0
vn -0.573268 -0.819368 0
vn -1 0 0
vn -0.814791 0.579755 0
vn 0.573463 0.819232 0
vn 1 0 0
vn 0.573268 -0.819368 0
vn 0.573268 0.819368 0
vn 0.573463 -0.819232 0
vn -0.814791 -0.579755 0

# Mesh 'OpenSCAD_Model' with 448 faces
g OpenSCAD_Model
usemtl DefaultMaterial
f  1//1 2//1 3//1
f  2//1 1//1 4//1
f  5//2 6//2 7//2
f  6//2 5//2 8//2
f  9//3 10//3 11//3
f  10//3 9//3 12//3
f  13//4 14//4 15//4
f  14//4 13//4 16//4
f  17//5 18//5 19//5
f  18//5 17//5 20//5
f  21//6 22//6 23//6
f  22//6 21//6 24//6
f  25//7 26//7 27//7
f  26//7 25//7 28//7
f  29//8 30//8 31//8
f  30//8 29//8 32//8
f  33//9 34//9 35//9
f  34//9 33//9 36//9
f  37//10 38//10 39//10
f  38//10 37//10 40//10
f  39//11 41//11 42//11
f  41//11 39//11 38//11
f  43//12 44//12 45//12
f  44//12 43//12 46//12
f  47//13 48//13 49//13
f  48//13 47//13 50//13
f  51//14 52//14 53//14
f  52//14 51//14 54//14
f  55//15 56//15 57//15
f  56//15 55//15 58//15
f  59//16 60//16 61//16
f  60//16 59//16 62//16
f  63//17 64//17 65//17
f  64//17 63//17 66//17
f  67//18 68//18 69//18
f  68//18 67//18 70//18
f  3//19 71//19 72//19
f  71//19 3//19 2//19
f  72//20 73//20 74//20
f  73//20 72//20 71//20
f  75//21 76//21 77//21
f  76//21 75//21 78//21
f  35//22 79//22 80//22
f  79//22 35//22 34//22
f  81//23 82//23 83//23
f  82//23 81//23 84//23
f  85//24 15//24 86//24
f  15//24 85//24 13//24
f  87//25 88//25 89//25
f  88//25 87//25 90//25
f  90//26 91//26 88//26
f  91//26 90//26 92//26
f  93//27 94//27 95//27
f  94//27 93//27 96//27
f  42//28 97//28 98//28
f  97//28 42//28 41//28
f  99//29 40//29 37//29
f  40//29 99//29 100//29
f  95//30 101//30 102//30
f  101//30 95//30 94//30
f  11//31 103//31 104//31
f  103//31 11//31 10//31
f  105//32 106//32 107//32
f  106//32 105//32 108//32
f  108//33 109//33 106//33
f  109//33 108//33 110//33
f  110//34 111//34 109//34
f  111//34 110//34 112//34
f  113//35 31//35 114//35
f  31//35 113//35 29//35
f  16//36 115//36 14//36
f  115//36 16//36 116//36
f  117//37 118//37 119//37
f  118//37 117//37 120//37
f  20//38 119//38 18//38
f  119//38 20//38 117//38
f  121//39 122//39 123//39
f  122//39 121//39 124//39
f  125//40 126//40 127//40
f  126//40 125//40 128//40
f  62//41 129//41 60//41
f  129//41 62//41 130//41
f  131//42 61//42 132//42
f  61//42 131//42 59//42
f  133//43 134//43 135//43
f  134//43 133//43 136//43
f  65//44 136//44 133//44
f  136//44 65//44 64//44
f  137//45 12//45 9//45
f  12//45 137//45 138//45
f  139//46 6//46 8//46
f  140//46 6//46 139//46
f  140//46 4//46 6//46
f  56//46 4//46 140//46
f  56//46 2//46 4//46
f  58//46 2//46 56//46
f  58//46 71//46 2//46
f  141//46 71//46 58//46
f  141//46 73//46 71//46
f  142//46 73//46 141//46
f  142//46 36//46 73//46
f  44//46 36//46 142//46
f  44//46 34//46 36//46
f  46//46 34//46 44//46
f  46//46 79//46 34//46
f  143//46 79//46 46//46
f  143//46 144//46 79//46
f  145//46 144//46 143//46
f  145//46 78//46 144//46
f  146//46 78//46 145//46
f  146//46 76//46 78//46
f  52//46 76//46 146//46
f  52//46 24//46 76//46
f  54//46 24//46 52//46
f  54//46 22//46 24//46
f  124//46 22//46 54//46
f  124//46 147//46 22//46
f  121//46 147//46 124//46
f  121//46 87//46 147//46
f  128//46 87//46 121//46
f  128//46 90//46 87//46
f  125//46 90//46 128//46
f  125//46 92//46 90//46
f  148//46 92//46 125//46
f  148//46 149//46 92//46
f  150//46 149//46 148//46
f  150//46 151//46 149//46
f  152//46 151//46 150//46
f  152//46 81//46 151//46
f  50//46 81//46 152//46
f  50//46 84//46 81//46
f  47//46 84//46 50//46
f  47//46 153//46 84//46
f  120//46 153//46 47//46
f  120//46 85//46 153//46
f  117//46 85//46 120//46
f  117//46 13//46 85//46
f  20//46 13//46 117//46
f  20//46 16//46 13//46
f  17//46 16//46 20//46
f  17//46 116//46 16//46
f  154//46 116//46 17//46
f  154//46 155//46 116//46
f  156//46 155//46 154//46
f  156//46 157//46 155//46
f  130//46 157//46 156//46
f  130//46 113//46 157//46
f  62//46 113//46 130//46
f  62//46 29//46 113//46
f  59//46 29//46 62//46
f  59//46 32//46 29//46
f  131//46 32//46 59//46
f  131//46 105//46 32//46
f  158//46 105//46 131//46
f  158//46 108//46 105//46
f  159//46 108//46 158//46
f  159//46 110//46 108//46
f  160//46 110//46 159//46
f  160//46 112//46 110//46
f  161//46 112//46 160//46
f  161//46 25//46 112//46
f  162//46 25//46 161//46
f  162//46 28//46 25//46
f  163//46 28//46 162//46
f  163//46 98//46 28//46
f  63//46 98//46 163//46
f  63//46 42//46 98//46
f  65//46 42//46 63//46
f  65//46 39//46 42//46
f  133//46 39//46 65//46
f  133//46 37//46 39//46
f  135//46 37//46 133//46
f  135//46 99//46 37//46
f  164//46 99//46 135//46
f  164//46 165//46 99//46
f  67//46 165//46 164//46
f  67//46 102//46 165//46
f  69//46 102//46 67//46
f  69//46 95//46 102//46
f  166//46 95//46 69//46
f  166//46 93//46 95//46
f  167//46 93//46 166//46
f  167//46 168//46 93//46
f  169//46 168//46 167//46
f  169//46 104//46 168//46
f  137//46 104//46 169//46
f  137//46 11//46 104//46
f  11//46 137//46 9//46
f  7//47 4//47 1//47
f  4//47 7//47 6//47
f  170//48 78//48 75//48
f  78//48 170//48 144//48
f  151//49 83//49 171//49
f  83//49 151//49 81//49
f  84//50 172//50 82//50
f  172//50 84//50 153//50
f  153//51 86//51 172//51
f  86//51 153//51 85//51
f  149//52 171//52 173//52
f  171//52 149//52 151//52
f  22//53 174//53 23//53
f  174//53 22//53 147//53
f  147//54 89//54 174//54
f  89//54 147//54 87//54
f  98//55 26//55 28//55
f  26//55 98//55 97//55
f  165//56 100//56 99//56
f  100//56 165//56 175//56
f  102//57 175//57 165//57
f  175//57 102//57 101//57
f  168//58 96//58 93//58
f  96//58 168//58 176//58
f  104//59 176//59 168//59
f  176//59 104//59 103//59
f  177//60 178//60 179//60
f  177//60 5//60 180//60
f  5//60 177//60 181//60
f  181//60 177//60 182//60
f  182//60 177//60 57//60
f  57//60 177//60 55//60
f  55//60 177//60 183//60
f  183//60 177//60 184//60
f  184//60 177//60 45//60
f  45//60 177//60 43//60
f  179//60 43//60 177//60
f  43//60 179//60 185//60
f  185//60 179//60 186//60
f  186//60 179//60 187//60
f  187//60 179//60 53//60
f  53//60 179//60 51//60
f  51//60 179//60 122//60
f  122//60 179//60 123//60
f  123//60 179//60 126//60
f  126//60 179//60 127//60
f  188//60 127//60 179//60
f  127//60 188//60 189//60
f  189//60 188//60 190//60
f  190//60 188//60 191//60
f  191//60 188//60 48//60
f  188//60 49//60 48//60
f  188//60 118//60 49//60
f  188//60 119//60 118//60
f  188//60 18//60 119//60
f  188//60 19//60 18//60
f  188//60 192//60 19//60
f  188//60 193//60 192//60
f  194//60 193//60 188//60
f  194//60 129//60 193//60
f  194//60 60//60 129//60
f  194//60 61//60 60//60
f  194//60 132//60 61//60
f  194//60 195//60 132//60
f  194//60 196//60 195//60
f  194//60 197//60 196//60
f  194//60 198//60 197//60
f  194//60 199//60 198//60
f  194//60 200//60 199//60
f  194//60 66//60 200//60
f  194//60 64//60 66//60
f  194//60 136//60 64//60
f  194//60 134//60 136//60
f  201//60 134//60 194//60
f  134//60 201//60 202//60
f  202//60 201//60 70//60
f  70//60 201//60 68//60
f  68//60 201//60 203//60
f  203//60 201//60 204//60
f  204//60 201//60 205//60
f  205//60 201//60 138//60
f  138//60 201//60 12//60
f  12//60 206//60 10//60
f  206//60 12//60 201//60
f  206//60 103//60 10//60
f  206//60 176//60 103//60
f  206//60 96//60 176//60
f  206//60 94//60 96//60
f  206//60 101//60 94//60
f  206//60 175//60 101//60
f  206//60 100//60 175//60
f  100//60 206//60 207//60
f  100//60 207//60 40//60
f  40//60 207//60 38//60
f  38//60 207//60 41//60
f  41//60 207//60 97//60
f  97//60 207//60 26//60
f  26//60 207//60 27//60
f  27//60 207//60 111//60
f  111//60 207//60 109//60
f  109//60 207//60 106//60
f  106//60 207//60 107//60
f  107//60 207//60 30//60
f  30//60 207//60 31//60
f  31//60 207//60 114//60
f  208//60 207//60 209//60
f  114//60 207//60 208//60
f  208//60 209//60 210//60
f  210//60 209//60 115//60
f  115//60 209//60 14//60
f  14//60 209//60 15//60
f  15//60 209//60 86//60
f  86//60 209//60 172//60
f  172//60 209//60 82//60
f  209//60 83//60 82//60
f  209//60 171//60 83//60
f  209//60 173//60 171//60
f  209//60 91//60 173//60
f  211//60 88//60 91//60
f  91//60 209//60 211//60
f  211//60 89//60 88//60
f  211//60 174//60 89//60
f  211//60 23//60 174//60
f  211//60 21//60 23//60
f  211//60 77//60 21//60
f  211//60 75//60 77//60
f  211//60 170//60 75//60
f  211//60 80//60 170//60
f  180//60 35//60 80//60
f  80//60 211//60 180//60
f  180//60 33//60 35//60
f  180//60 74//60 33//60
f  180//60 72//60 74//60
f  180//60 3//60 72//60
f  180//60 1//60 3//60
f  180//60 7//60 1//60
f  180//60 5//60 7//60
f  211//60 212//60 180//60
f  213//60 206//60 201//60
f  32//61 107//61 30//61
f  107//61 32//61 105//61
f  157//62 114//62 208//62
f  114//62 157//62 113//62
f  155//63 208//63 210//63
f  208//63 155//63 157//63
f  116//64 210//64 115//64
f  210//64 116//64 155//64
f  181//65 8//65 5//65
f  8//65 181//65 139//65
f  152//66 190//66 191//66
f  190//66 152//66 150//66
f  50//67 191//67 48//67
f  191//67 50//67 152//67
f  124//68 51//68 122//68
f  51//68 124//68 54//68
f  150//69 189//69 190//69
f  189//69 150//69 148//69
f  186//70 143//70 185//70
f  143//70 186//70 145//70
f  53//71 146//71 187//71
f  146//71 53//71 52//71
f  184//72 141//72 183//72
f  141//72 184//72 142//72
f  45//73 142//73 184//73
f  142//73 45//73 44//73
f  183//74 58//74 55//74
f  58//74 183//74 141//74
f  161//75 197//75 198//75
f  197//75 161//75 160//75
f  162//76 200//76 163//76
f  200//76 162//76 199//76
f  162//77 198//77 199//77
f  198//77 162//77 161//77
f  160//78 196//78 197//78
f  196//78 160//78 159//78
f  158//79 132//79 195//79
f  132//79 158//79 131//79
f  159//80 195//80 196//80
f  195//80 159//80 158//80
f  156//81 192//81 193//81
f  192//81 156//81 154//81
f  163//82 66//82 63//82
f  66//82 163//82 200//82
f  164//83 70//83 67//83
f  70//83 164//83 202//83
f  166//84 204//84 167//84
f  204//84 166//84 203//84
f  169//85 138//85 137//85
f  138//85 169//85 205//85
f  167//86 205//86 169//86
f  205//86 167//86 204//86
f  74//87 36//87 33//87
f  36//87 74//87 73//87
f  77//88 24//88 21//88
f  24//88 77//88 76//88
f  80//89 144//89 170//89
f  144//89 80//89 79//89
f  92//90 173//90 91//90
f  173//90 92//90 149//90
f  112//91 27//91 111//91
f  27//91 112//91 25//91
f  57//92 140//92 182//92
f  140//92 57//92 56//92
f  120//93 49//93 118//93
f  49//93 120//93 47//93
f  148//94 127//94 189//94
f  127//94 148//94 125//94
f  128//95 123//95 126//95
f  123//95 128//95 121//95
f  185//96 46//96 43//96
f  46//96 185//96 143//96
f  187//97 145//97 186//97
f  145//97 187//97 146//97
f  130//98 193//98 129//98
f  193//98 130//98 156//98
f  154//99 19//99 192//99
f  19//99 154//99 17//99
f  135//100 202//100 164//100
f  202//100 135//100 134//100
f  69//101 203//101 166//101
f  203//101 69//101 68//101
f  182//102 139//102 181//102
f  139//102 182//102 140//102
f  214//60 215//60 216//60
f  215//60 214//60 217//60
f  215//60 218//60 219//60
f  220//60 215//60 217//60
f  215//60 220//60 218//60
f  219//60 218//60 221//60
f  218//60 222//60 221//60
f  222//60 218//60 223//60
f  222//60 224//60 225//60
f  226//60 222//60 223//60
f  222//60 226//60 224//60
f  216//103 212//103 211//103
f  212//103 216//103 215//103
f  215//104 180//104 212//104
f  180//104 215//104 219//104
f  221//105 180//105 219//105
f  180//105 221//105 177//105
f  221//103 178//103 177//103
f  178//103 221//103 222//103
f  222//104 179//104 178//104
f  179//104 222//104 225//104
f  224//106 179//106 225//106
f  179//106 224//106 188//106
f  224//107 194//107 188//107
f  194//107 224//107 226//107
f  194//108 223//108 201//108
f  223//108 194//108 226//108
f  223//109 213//109 201//109
f  213//109 223//109 218//109
f  218//110 206//110 213//110
f  206//110 218//110 220//110
f  206//108 217//108 207//108
f  217//108 206//108 220//108
f  217//111 209//111 207//111
f  209//111 217//111 214//111
f  216//112 209//112 214//112
f  209//112 216//112 211//112

