# File produced by Open Asset Import Library (http://www.assimp.sf.net)
# (assimp v3.1.187496374)

mtllib S2-Sowulo.obj.mtl

# 216 vertex positions
v  15 0 5
v  14.9704 0.941857 0
v  14.9704 0.941857 5
v  15 0 0
v  -15 0 0
v  -14.9704 0.941857 5
v  -14.9704 0.941857 0
v  -15 0 5
v  0.941857 14.9704 0
v  0 15 5
v  0.941857 14.9704 5
v  0 15 0
v  10.9345 10.2682 5
v  10.2682 10.9345 0
v  10.2682 10.9345 5
v  10.9345 10.2682 0
v  -9.56136 11.5577 0
v  -10.2682 10.9345 5
v  -9.56136 11.5577 5
v  -10.2682 10.9345 0
v  -4.63525 14.2658 0
v  -5.52187 13.9466 5
v  -4.63525 14.2658 5
v  -5.52187 13.9466 0
v  13.9466 5.52187 5
v  13.5724 6.38669 0
v  13.5724 6.38669 5
v  13.9466 5.52187 0
v  -12.1353 8.81678 0
v  -11.5577 9.56136 5
v  -11.5577 9.56136 0
v  -12.1353 8.81678 5
v  -0.941857 14.9704 0
v  -1.88 14.8817 5
v  -0.941857 14.9704 5
v  -1.88 14.8817 0
v  13.1446 -7.22631 5
v  13.5724 -6.38669 0
v  13.5724 -6.38669 5
v  13.1446 -7.22631 0
v  2.81072 -14.7343 0
v  3.73035 -14.5287 5
v  2.81072 -14.7343 5
v  3.73035 -14.5287 0
v  10.2682 -10.9345 5
v  10.9345 -10.2682 0
v  10.9345 -10.2682 5
v  10.2682 -10.9345 0
v  14.5287 -3.73035 5
v  14.7343 -2.81072 0
v  14.7343 -2.81072 5
v  14.5287 -3.73035 0
v  -5.52187 -13.9466 0
v  -4.63525 -14.2658 5
v  -5.52187 -13.9466 5
v  -4.63525 -14.2658 0
v  -11.5577 -9.56136 0
v  -12.1353 -8.81678 5
v  -12.1353 -8.81678 0
v  -11.5577 -9.56136 5
v  -14.8817 -1.88 0
v  -14.9704 -0.941857 5
v  -14.9704 -0.941857 0
v  -14.8817 -1.88 5
v  14.9704 -0.941857 0
v  14.8817 -1.88 0
v  14.8817 1.88 0
v  14.7343 2.81072 0
v  14.5287 3.73035 0
v  14.2658 -4.63525 0
v  14.2658 4.63525 0
v  13.9466 -5.52187 0
v  13.1446 7.22631 0
v  12.6649 -8.0374 0
v  12.6649 8.0374 0
v  12.1353 -8.81678 0
v  12.1353 8.81678 0
v  11.5577 -9.56136 0
v  11.5577 9.56136 0
v  9.56136 -11.5577 0
v  9.56136 11.5577 0
v  8.81678 -12.1353 0
v  8.81678 12.1353 0
v  8.0374 -12.6649 0
v  8.0374 12.6649 0
v  7.22631 -13.1446 0
v  7.22631 13.1446 0
v  6.38669 -13.5724 0
v  6.38669 13.5724 0
v  5.52187 -13.9466 0
v  5.52187 13.9466 0
v  4.63525 -14.2658 0
v  4.63525 14.2658 0
v  3.73035 14.5287 0
v  2.81072 14.7343 0
v  1.88 -14.8817 0
v  1.88 14.8817 0
v  0.941857 -14.9704 0
v  0 -15 0
v  -0.941857 -14.9704 0
v  -1.88 -14.8817 0
v  -2.81072 -14.7343 0
v  -2.81072 14.7343 0
v  -3.73035 -14.5287 0
v  -3.73035 14.5287 0
v  -6.38669 -13.5724 0
v  -6.38669 13.5724 0
v  -7.22631 -13.1446 0
v  -7.22631 13.1446 0
v  -8.0374 -12.6649 0
v  -8.0374 12.6649 0
v  -8.81678 -12.1353 0
v  -8.81678 12.1353 0
v  -9.56136 -11.5577 0
v  -10.2682 -10.9345 0
v  -10.9345 -10.2682 0
v  -10.9345 10.2682 0
v  -12.6649 -8.0374 0
v  -12.6649 8.0374 0
v  -13.1446 -7.22631 0
v  -13.1446 7.22631 0
v  -13.5724 -6.38669 0
v  -13.5724 6.38669 0
v  -13.9466 -5.52187 0
v  -13.9466 5.52187 0
v  -14.2658 -4.63525 0
v  -14.2658 4.63525 0
v  -14.5287 -3.73035 0
v  -14.5287 3.73035 0
v  -14.7343 -2.81072 0
v  -14.7343 2.81072 0
v  -14.8817 1.88 0
v  14.7343 2.81072 5
v  14.5287 3.73035 5
v  14.2658 4.63525 5
v  12.1353 8.81678 5
v  11.5577 9.56136 5
v  13.1446 7.22631 5
v  3.73035 14.5287 5
v  4.63525 14.2658 5
v  8.0374 12.6649 5
v  8.81678 12.1353 5
v  7.22631 13.1446 5
v  -14.2658 4.63525 5
v  -14.5287 3.73035 5
v  -10.9345 10.2682 5
v  -12.6649 8.0374 5
v  -13.1446 7.22631 5
v  0.591928 -10 5
v  -1.88 -14.8817 5
v  -0.941857 -14.9704 5
v  -2.81072 -14.7343 5
v  7.22631 -13.1446 5
v  5.55157 -4.95067 5
v  6.38669 -13.5724 5
v  5.52187 -13.9466 5
v  4.63525 -14.2658 5
v  1.88 -14.8817 5
v  0.941857 -14.9704 5
v  0 -15 5
v  -0.224215 -9.19282 5
v  -3.73035 -14.5287 5
v  -6.38669 -13.5724 5
v  -7.22631 -13.1446 5
v  -8.0374 -12.6649 5
v  -8.81678 -12.1353 5
v  -9.56136 -11.5577 5
v  -10.2682 -10.9345 5
v  -10.9345 -10.2682 5
v  -5.55157 4.70852 5
v  3.94618 -4.95067 5
v  -13.1446 -7.22631 5
v  -12.6649 -8.0374 5
v  -13.5724 -6.38669 5
v  -13.9466 -5.52187 5
v  -14.2658 -4.63525 5
v  -14.5287 -3.73035 5
v  -14.7343 -2.81072 5
v  -14.8817 1.88 5
v  -14.7343 2.81072 5
v  -13.9466 5.52187 5
v  -13.5724 6.38669 5
v  -0.43049 10 5
v  -7.22631 13.1446 5
v  -8.0374 12.6649 5
v  -8.81678 12.1353 5
v  -6.38669 13.5724 5
v  -3.73035 14.5287 5
v  -2.81072 14.7343 5
v  0.394618 9.20179 5
v  1.88 14.8817 5
v  2.81072 14.7343 5
v  5.52187 13.9466 5
v  6.38669 13.5724 5
v  9.56136 11.5577 5
v  12.6649 8.0374 5
v  -3.94618 4.70852 5
v  14.8817 1.88 5
v  14.9704 -0.941857 5
v  14.8817 -1.88 5
v  14.2658 -4.63525 5
v  13.9466 -5.52187 5
v  12.6649 -8.0374 5
v  12.1353 -8.81678 5
v  11.5577 -9.56136 5
v  9.56136 -11.5577 5
v  8.81678 -12.1353 5
v  8.0374 -12.6649 5
v  -0.43049 10 2.1
v  -3.94618 4.70852 2.1
v  0.394618 9.20179 2.1
v  -5.55157 4.70852 2.1
v  3.94618 -4.95067 2.1
v  5.55157 -4.95067 2.1
v  0.591928 -10 2.1
v  -0.224215 -9.19282 2.1

# 0 UV coordinates

# 110 vertex normals
vn 0.999507 0.0314109 0
vn -0.999507 0.0314109 0
vn 0.0314109 0.999507 0
vn 0.707107 0.707107 0
vn -0.661312 0.750111 0
vn -0.338738 0.940881 0
vn 0.917755 0.397148 0
vn -0.790155 0.612907 0
vn -0.0941092 0.995562 0
vn 0.891007 -0.45399 0
vn 0.218144 -0.975917 0
vn 0.707107 -0.707107 0
vn 0.975917 -0.218144 0
vn -0.338738 -0.940881 0
vn -0.790155 -0.612907 0
vn -0.995562 -0.0941092 0
vn 0 0 -1
vn 0.975917 0.218144 0
vn 0.960294 0.278991 0
vn 0.790155 0.612907 0
vn 0.891007 0.45399 0
vn 0.278991 0.960294 0
vn 0.562083 0.827081 0
vn 0.509042 0.860742 0
vn -0.960294 0.278991 0
vn -0.750111 0.661312 0
vn -0.860742 0.509042 0
vn 0 0 1
vn -0.45399 0.891007 0
vn -0.509042 0.860742 0
vn -0.562083 0.827081 0
vn -0.278991 0.960294 0
vn -0.0314109 0.999507 0
vn 0.0941092 -0.995562 0
vn 0.0314109 -0.999507 0
vn 0.612907 -0.790155 0
vn 0.509042 -0.860742 0
vn -0.278991 -0.960294 0
vn -0.397148 -0.917755 0
vn -0.860742 -0.509042 0
vn -0.827081 -0.562083 0
vn -0.940881 -0.338738 0
vn -0.999507 -0.0314109 0
vn 0.987688 0.156434 0
vn 0.995562 0.0941092 0
vn 0.750111 0.661312 0
vn 0.827081 0.562083 0
vn 0.860742 0.509042 0
vn 0.338738 0.940881 0
vn 0.218144 0.975917 0
vn 0.0941092 0.995562 0
vn 0.397148 0.917755 0
vn 0.612907 0.790155 0
vn 0.661312 0.750111 0
vn -0.917755 0.397148 0
vn -0.940881 0.338738 0
vn -0.975917 0.218144 0
vn -0.995562 0.0941092 0
vn -0.612907 0.790155 0
vn -0.156434 0.987688 0
vn 0.995562 -0.0941092 0
vn 0.999507 -0.0314109 0
vn 0.338738 -0.940881 0
vn 0.278991 -0.960294 0
vn 0.661312 -0.750111 0
vn 0.397148 -0.917755 0
vn 0.827081 -0.562083 0
vn 0.750111 -0.661312 0
vn 0.940881 -0.338738 0
vn 0.917755 -0.397148 0
vn 0.960294 -0.278991 0
vn -0.612907 -0.790155 0
vn -0.707107 -0.707107 0
vn -0.661312 -0.750111 0
vn -0.562083 -0.827081 0
vn -0.45399 -0.891007 0
vn -0.509042 -0.860742 0
vn -0.156434 -0.987688 0
vn -0.0314109 -0.999507 0
vn -0.917755 -0.397148 0
vn -0.975917 -0.218144 0
vn 0.940881 0.338738 0
vn 0.156434 0.987688 0
vn 0.45399 0.891007 0
vn -0.707107 0.707107 0
vn -0.891007 0.45399 0
vn -0.827081 0.562083 0
vn -0.987688 0.156434 0
vn -0.397148 0.917755 0
vn -0.218144 0.975917 0
vn 0.987688 -0.156434 0
vn 0.156434 -0.987688 0
vn 0.45399 -0.891007 0
vn 0.562083 -0.827081 0
vn 0.860742 -0.509042 0
vn 0.790155 -0.612907 0
vn -0.218144 -0.975917 0
vn -0.0941092 -0.995562 0
vn -0.750111 -0.661312 0
vn -0.891007 -0.45399 0
vn -0.960294 -0.278991 0
vn -0.987688 -0.156434 0
vn -0.719204 0.694799 0
vn -0.71304 -0.701123 0
vn -0.713414 0.700743 0
vn 0.703189 0.711003 0
vn 0.713112 -0.70105 0
vn 0.71304 0.701123 0
vn 0.718582 -0.695442 0
vn -0.695293 -0.718726 0

# Mesh 'OpenSCAD_Model' with 428 faces
g OpenSCAD_Model
usemtl DefaultMaterial
f  1//1 2//1 3//1
f  2//1 1//1 4//1
f  5//2 6//2 7//2
f  6//2 5//2 8//2
f  9//3 10//3 11//3
f  10//3 9//3 12//3
f  13//4 14//4 15//4
f  14//4 13//4 16//4
f  17//5 18//5 19//5
f  18//5 17//5 20//5
f  21//6 22//6 23//6
f  22//6 21//6 24//6
f  25//7 26//7 27//7
f  26//7 25//7 28//7
f  29//8 30//8 31//8
f  30//8 29//8 32//8
f  33//9 34//9 35//9
f  34//9 33//9 36//9
f  37//10 38//10 39//10
f  38//10 37//10 40//10
f  41//11 42//11 43//11
f  42//11 41//11 44//11
f  45//12 46//12 47//12
f  46//12 45//12 48//12
f  49//13 50//13 51//13
f  50//13 49//13 52//13
f  53//14 54//14 55//14
f  54//14 53//14 56//14
f  57//15 58//15 59//15
f  58//15 57//15 60//15
f  61//16 62//16 63//16
f  62//16 61//16 64//16
f  65//17 2//17 4//17
f  66//17 2//17 65//17
f  66//17 67//17 2//17
f  50//17 67//17 66//17
f  50//17 68//17 67//17
f  52//17 68//17 50//17
f  52//17 69//17 68//17
f  70//17 69//17 52//17
f  70//17 71//17 69//17
f  72//17 71//17 70//17
f  72//17 28//17 71//17
f  38//17 28//17 72//17
f  38//17 26//17 28//17
f  40//17 26//17 38//17
f  40//17 73//17 26//17
f  74//17 73//17 40//17
f  74//17 75//17 73//17
f  76//17 75//17 74//17
f  76//17 77//17 75//17
f  78//17 77//17 76//17
f  78//17 79//17 77//17
f  46//17 79//17 78//17
f  46//17 16//17 79//17
f  48//17 16//17 46//17
f  48//17 14//17 16//17
f  80//17 14//17 48//17
f  80//17 81//17 14//17
f  82//17 81//17 80//17
f  82//17 83//17 81//17
f  84//17 83//17 82//17
f  84//17 85//17 83//17
f  86//17 85//17 84//17
f  86//17 87//17 85//17
f  88//17 87//17 86//17
f  88//17 89//17 87//17
f  90//17 89//17 88//17
f  90//17 91//17 89//17
f  92//17 91//17 90//17
f  92//17 93//17 91//17
f  44//17 93//17 92//17
f  44//17 94//17 93//17
f  41//17 94//17 44//17
f  41//17 95//17 94//17
f  96//17 95//17 41//17
f  96//17 97//17 95//17
f  98//17 97//17 96//17
f  98//17 9//17 97//17
f  99//17 9//17 98//17
f  99//17 12//17 9//17
f  100//17 12//17 99//17
f  100//17 33//17 12//17
f  101//17 33//17 100//17
f  101//17 36//17 33//17
f  102//17 36//17 101//17
f  102//17 103//17 36//17
f  104//17 103//17 102//17
f  104//17 105//17 103//17
f  56//17 105//17 104//17
f  56//17 21//17 105//17
f  53//17 21//17 56//17
f  53//17 24//17 21//17
f  106//17 24//17 53//17
f  106//17 107//17 24//17
f  108//17 107//17 106//17
f  108//17 109//17 107//17
f  110//17 109//17 108//17
f  110//17 111//17 109//17
f  112//17 111//17 110//17
f  112//17 113//17 111//17
f  114//17 113//17 112//17
f  114//17 17//17 113//17
f  115//17 17//17 114//17
f  115//17 20//17 17//17
f  116//17 20//17 115//17
f  116//17 117//17 20//17
f  57//17 117//17 116//17
f  57//17 31//17 117//17
f  59//17 31//17 57//17
f  59//17 29//17 31//17
f  118//17 29//17 59//17
f  118//17 119//17 29//17
f  120//17 119//17 118//17
f  120//17 121//17 119//17
f  122//17 121//17 120//17
f  122//17 123//17 121//17
f  124//17 123//17 122//17
f  124//17 125//17 123//17
f  126//17 125//17 124//17
f  126//17 127//17 125//17
f  128//17 127//17 126//17
f  128//17 129//17 127//17
f  130//17 129//17 128//17
f  130//17 131//17 129//17
f  61//17 131//17 130//17
f  61//17 132//17 131//17
f  63//17 132//17 61//17
f  63//17 7//17 132//17
f  7//17 63//17 5//17
f  133//18 69//18 134//18
f  69//18 133//18 68//18
f  134//19 71//19 135//19
f  71//19 134//19 69//19
f  136//20 79//20 137//20
f  79//20 136//20 77//20
f  27//21 73//21 138//21
f  73//21 27//21 26//21
f  93//22 139//22 140//22
f  139//22 93//22 94//22
f  83//23 141//23 142//23
f  141//23 83//23 85//23
f  85//24 143//24 141//24
f  143//24 85//24 87//24
f  129//25 144//25 127//25
f  144//25 129//25 145//25
f  31//26 146//26 117//26
f  146//26 31//26 30//26
f  121//27 147//27 119//27
f  147//27 121//27 148//27
f  149//28 150//28 151//28
f  149//28 152//28 150//28
f  149//28 153//28 154//28
f  153//28 149//28 155//28
f  155//28 149//28 156//28
f  156//28 149//28 157//28
f  157//28 149//28 42//28
f  42//28 149//28 43//28
f  43//28 149//28 158//28
f  158//28 149//28 159//28
f  149//28 160//28 159//28
f  152//28 149//28 161//28
f  149//28 151//28 160//28
f  161//28 162//28 152//28
f  161//28 54//28 162//28
f  161//28 55//28 54//28
f  161//28 163//28 55//28
f  161//28 164//28 163//28
f  161//28 165//28 164//28
f  161//28 166//28 165//28
f  161//28 167//28 166//28
f  161//28 168//28 167//28
f  161//28 169//28 168//28
f  161//28 60//28 169//28
f  170//28 161//28 171//28
f  172//28 161//28 170//28
f  161//28 58//28 60//28
f  161//28 173//28 58//28
f  161//28 172//28 173//28
f  170//28 174//28 172//28
f  170//28 175//28 174//28
f  170//28 176//28 175//28
f  170//28 177//28 176//28
f  170//28 178//28 177//28
f  170//28 64//28 178//28
f  170//28 62//28 64//28
f  170//28 8//28 62//28
f  8//28 170//28 6//28
f  6//28 170//28 179//28
f  179//28 170//28 180//28
f  180//28 170//28 145//28
f  145//28 170//28 144//28
f  144//28 170//28 181//28
f  181//28 170//28 182//28
f  182//28 170//28 148//28
f  148//28 170//28 147//28
f  147//28 170//28 32//28
f  32//28 170//28 30//28
f  30//28 170//28 146//28
f  146//28 170//28 18//28
f  183//28 184//28 170//28
f  185//28 170//28 184//28
f  186//28 170//28 185//28
f  19//28 170//28 186//28
f  18//28 170//28 19//28
f  184//28 183//28 187//28
f  187//28 183//28 22//28
f  22//28 183//28 23//28
f  23//28 183//28 188//28
f  188//28 183//28 189//28
f  189//28 183//28 34//28
f  34//28 183//28 35//28
f  35//28 183//28 10//28
f  183//28 11//28 10//28
f  11//28 183//28 190//28
f  190//28 191//28 11//28
f  190//28 192//28 191//28
f  190//28 139//28 192//28
f  190//28 140//28 139//28
f  190//28 193//28 140//28
f  190//28 194//28 193//28
f  190//28 143//28 194//28
f  190//28 141//28 143//28
f  190//28 142//28 141//28
f  190//28 195//28 142//28
f  190//28 15//28 195//28
f  190//28 13//28 15//28
f  190//28 137//28 13//28
f  190//28 138//28 196//28
f  190//28 196//28 136//28
f  190//28 136//28 137//28
f  138//28 190//28 154//28
f  154//28 190//28 197//28
f  154//28 27//28 138//28
f  154//28 25//28 27//28
f  154//28 135//28 25//28
f  154//28 134//28 135//28
f  154//28 133//28 134//28
f  154//28 198//28 133//28
f  154//28 3//28 198//28
f  154//28 1//28 3//28
f  1//28 154//28 199//28
f  199//28 154//28 200//28
f  200//28 154//28 51//28
f  51//28 154//28 49//28
f  49//28 154//28 201//28
f  201//28 154//28 202//28
f  202//28 154//28 39//28
f  39//28 154//28 37//28
f  37//28 154//28 203//28
f  203//28 154//28 204//28
f  204//28 154//28 205//28
f  205//28 154//28 47//28
f  47//28 154//28 45//28
f  45//28 154//28 206//28
f  206//28 154//28 207//28
f  207//28 154//28 208//28
f  208//28 154//28 153//28
f  107//29 184//29 187//29
f  184//29 107//29 109//29
f  109//30 185//30 184//30
f  185//30 109//30 111//30
f  111//31 186//31 185//31
f  186//31 111//31 113//31
f  105//32 23//32 188//32
f  23//32 105//32 21//32
f  12//33 35//33 10//33
f  35//33 12//33 33//33
f  98//34 158//34 159//34
f  158//34 98//34 96//34
f  99//35 159//35 160//35
f  159//35 99//35 98//35
f  82//36 206//36 207//36
f  206//36 82//36 80//36
f  86//37 208//37 153//37
f  208//37 86//37 84//37
f  56//38 162//38 54//38
f  162//38 56//38 104//38
f  106//39 55//39 163//39
f  55//39 106//39 53//39
f  118//40 172//40 120//40
f  172//40 118//40 173//40
f  59//41 173//41 118//41
f  173//41 59//41 58//41
f  124//42 176//42 126//42
f  176//42 124//42 175//42
f  63//43 8//43 5//43
f  8//43 63//43 62//43
f  198//44 68//44 133//44
f  68//44 198//44 67//44
f  3//45 67//45 198//45
f  67//45 3//45 2//45
f  137//46 16//46 13//46
f  16//46 137//46 79//46
f  196//47 77//47 136//47
f  77//47 196//47 75//47
f  138//48 75//48 196//48
f  75//48 138//48 73//48
f  91//49 140//49 193//49
f  140//49 91//49 93//49
f  94//50 192//50 139//50
f  192//50 94//50 95//50
f  97//51 11//51 191//51
f  11//51 97//51 9//51
f  89//52 193//52 194//52
f  193//52 89//52 91//52
f  81//53 142//53 195//53
f  142//53 81//53 83//53
f  14//54 195//54 15//54
f  195//54 14//54 81//54
f  125//55 182//55 123//55
f  182//55 125//55 181//55
f  127//56 181//56 125//56
f  181//56 127//56 144//56
f  131//57 145//57 129//57
f  145//57 131//57 180//57
f  7//58 179//58 132//58
f  179//58 7//58 6//58
f  113//59 19//59 186//59
f  19//59 113//59 17//59
f  36//60 189//60 34//60
f  189//60 36//60 103//60
f  200//61 65//61 199//61
f  65//61 200//61 66//61
f  199//62 4//62 1//62
f  4//62 199//62 65//62
f  92//63 156//63 157//63
f  156//63 92//63 90//63
f  44//64 157//64 42//64
f  157//64 44//64 92//64
f  80//65 45//65 206//65
f  45//65 80//65 48//65
f  90//66 155//66 156//66
f  155//66 90//66 88//66
f  204//67 74//67 203//67
f  74//67 204//67 76//67
f  47//68 78//68 205//68
f  78//68 47//68 46//68
f  202//69 70//69 201//69
f  70//69 202//69 72//69
f  39//70 72//70 202//70
f  72//70 39//70 38//70
f  201//71 52//71 49//71
f  52//71 201//71 70//71
f  114//72 166//72 167//72
f  166//72 114//72 112//72
f  115//73 169//73 116//73
f  169//73 115//73 168//73
f  115//74 167//74 168//74
f  167//74 115//74 114//74
f  112//75 165//75 166//75
f  165//75 112//75 110//75
f  108//76 163//76 164//76
f  163//76 108//76 106//76
f  110//77 164//77 165//77
f  164//77 110//77 108//77
f  102//78 150//78 152//78
f  150//78 102//78 101//78
f  100//79 160//79 151//79
f  160//79 100//79 99//79
f  122//80 175//80 124//80
f  175//80 122//80 174//80
f  128//81 178//81 130//81
f  178//81 128//81 177//81
f  135//82 28//82 25//82
f  28//82 135//82 71//82
f  95//83 191//83 192//83
f  191//83 95//83 97//83
f  87//84 194//84 143//84
f  194//84 87//84 89//84
f  117//85 18//85 20//85
f  18//85 117//85 146//85
f  123//86 148//86 121//86
f  148//86 123//86 182//86
f  119//87 32//87 29//87
f  32//87 119//87 147//87
f  132//88 180//88 131//88
f  180//88 132//88 179//88
f  24//89 187//89 22//89
f  187//89 24//89 107//89
f  103//90 188//90 189//90
f  188//90 103//90 105//90
f  51//91 66//91 200//91
f  66//91 51//91 50//91
f  96//92 43//92 158//92
f  43//92 96//92 41//92
f  88//93 153//93 155//93
f  153//93 88//93 86//93
f  84//94 207//94 208//94
f  207//94 84//94 82//94
f  203//95 40//95 37//95
f  40//95 203//95 74//95
f  205//96 76//96 204//96
f  76//96 205//96 78//96
f  104//97 152//97 162//97
f  152//97 104//97 102//97
f  101//98 151//98 150//98
f  151//98 101//98 100//98
f  116//99 60//99 57//99
f  60//99 116//99 169//99
f  120//100 174//100 122//100
f  174//100 120//100 172//100
f  126//101 177//101 128//101
f  177//101 126//101 176//101
f  130//102 64//102 61//102
f  64//102 130//102 178//102
f  209//28 210//28 211//28
f  210//28 209//28 212//28
f  210//28 213//28 214//28
f  213//28 210//28 212//28
f  213//28 215//28 214//28
f  215//28 213//28 216//28
f  210//103 190//103 211//103
f  190//103 210//103 197//103
f  214//104 197//104 210//104
f  197//104 214//104 154//104
f  215//105 154//105 214//105
f  154//105 215//105 149//105
f  215//106 161//106 149//106
f  161//106 215//106 216//106
f  161//107 213//107 171//107
f  213//107 161//107 216//107
f  171//108 212//108 170//108
f  212//108 171//108 213//108
f  170//109 209//109 183//109
f  209//109 170//109 212//109
f  209//110 190//110 183//110
f  190//110 209//110 211//110

