# File produced by Open Asset Import Library (http://www.assimp.sf.net)
# (assimp v3.1.187496374)

mtllib U1-Uruz.obj.mtl

# 214 vertex positions
v  15 0 5
v  14.9704 0.941857 0
v  14.9704 0.941857 5
v  15 0 0
v  -15 0 0
v  -14.9704 0.941857 5
v  -14.9704 0.941857 0
v  -15 0 5
v  0.941857 14.9704 0
v  0 15 5
v  0.941857 14.9704 5
v  0 15 0
v  -10.9345 -10.2682 0
v  -11.5577 -9.56136 5
v  -11.5577 -9.56136 0
v  -10.9345 -10.2682 5
v  10.9345 10.2682 5
v  10.2682 10.9345 0
v  10.2682 10.9345 5
v  10.9345 10.2682 0
v  -9.56136 11.5577 0
v  -10.2682 10.9345 5
v  -9.56136 11.5577 5
v  -10.2682 10.9345 0
v  -4.63525 14.2658 0
v  -5.52187 13.9466 5
v  -4.63525 14.2658 5
v  -5.52187 13.9466 0
v  13.9466 5.52187 5
v  13.5724 6.38669 0
v  13.5724 6.38669 5
v  13.9466 5.52187 0
v  6.38669 13.5724 0
v  5.52187 13.9466 5
v  6.38669 13.5724 5
v  5.52187 13.9466 0
v  8.81678 12.1353 0
v  8.0374 12.6649 5
v  8.81678 12.1353 5
v  8.0374 12.6649 0
v  -13.9466 5.52187 0
v  -13.5724 6.38669 5
v  -13.5724 6.38669 0
v  -13.9466 5.52187 5
v  -11.5577 9.56136 0
v  -10.9345 10.2682 5
v  -10.9345 10.2682 0
v  -11.5577 9.56136 5
v  -1.88 14.8817 0
v  -2.81072 14.7343 5
v  -1.88 14.8817 5
v  -2.81072 14.7343 0
v  14.5287 -3.73035 5
v  14.7343 -2.81072 0
v  14.7343 -2.81072 5
v  14.5287 -3.73035 0
v  -12.1353 -8.81678 5
v  -12.1353 -8.81678 0
v  -14.8817 -1.88 0
v  -14.9704 -0.941857 5
v  -14.9704 -0.941857 0
v  -14.8817 -1.88 5
v  14.9704 -0.941857 0
v  14.8817 -1.88 0
v  14.8817 1.88 0
v  14.7343 2.81072 0
v  14.5287 3.73035 0
v  14.2658 -4.63525 0
v  14.2658 4.63525 0
v  13.9466 -5.52187 0
v  13.5724 -6.38669 0
v  13.1446 -7.22631 0
v  13.1446 7.22631 0
v  12.6649 -8.0374 0
v  12.6649 8.0374 0
v  12.1353 -8.81678 0
v  12.1353 8.81678 0
v  11.5577 -9.56136 0
v  11.5577 9.56136 0
v  10.9345 -10.2682 0
v  10.2682 -10.9345 0
v  9.56136 -11.5577 0
v  9.56136 11.5577 0
v  8.81678 -12.1353 0
v  8.0374 -12.6649 0
v  7.22631 -13.1446 0
v  7.22631 13.1446 0
v  6.38669 -13.5724 0
v  5.52187 -13.9466 0
v  4.63525 -14.2658 0
v  4.63525 14.2658 0
v  3.73035 -14.5287 0
v  3.73035 14.5287 0
v  2.81072 -14.7343 0
v  2.81072 14.7343 0
v  1.88 -14.8817 0
v  1.88 14.8817 0
v  0.941857 -14.9704 0
v  0 -15 0
v  -0.941857 -14.9704 0
v  -0.941857 14.9704 0
v  -1.88 -14.8817 0
v  -2.81072 -14.7343 0
v  -3.73035 -14.5287 0
v  -3.73035 14.5287 0
v  -4.63525 -14.2658 0
v  -5.52187 -13.9466 0
v  -6.38669 -13.5724 0
v  -6.38669 13.5724 0
v  -7.22631 -13.1446 0
v  -7.22631 13.1446 0
v  -8.0374 -12.6649 0
v  -8.0374 12.6649 0
v  -8.81678 -12.1353 0
v  -8.81678 12.1353 0
v  -9.56136 -11.5577 0
v  -10.2682 -10.9345 0
v  -12.1353 8.81678 0
v  -12.6649 -8.0374 0
v  -12.6649 8.0374 0
v  -13.1446 -7.22631 0
v  -13.1446 7.22631 0
v  -13.5724 -6.38669 0
v  -13.9466 -5.52187 0
v  -14.2658 -4.63525 0
v  -14.2658 4.63525 0
v  -14.5287 -3.73035 0
v  -14.5287 3.73035 0
v  -14.7343 -2.81072 0
v  -14.7343 2.81072 0
v  -14.8817 1.88 0
v  14.7343 2.81072 5
v  14.5287 3.73035 5
v  14.2658 4.63525 5
v  12.6649 8.0374 5
v  12.1353 8.81678 5
v  11.5577 9.56136 5
v  13.1446 7.22631 5
v  3.73035 14.5287 5
v  4.63525 14.2658 5
v  7.22631 13.1446 5
v  9.56136 11.5577 5
v  -14.2658 4.63525 5
v  -14.5287 3.73035 5
v  -12.1353 8.81678 5
v  5.85466 -9.17605 5
v  14.8817 1.88 5
v  14.9704 -0.941857 5
v  14.8817 -1.88 5
v  14.2658 -4.63525 5
v  13.9466 -5.52187 5
v  13.5724 -6.38669 5
v  13.1446 -7.22631 5
v  12.6649 -8.0374 5
v  12.1353 -8.81678 5
v  11.5577 -9.56136 5
v  10.9345 -10.2682 5
v  10.2682 -10.9345 5
v  9.56136 -11.5577 5
v  8.81678 -12.1353 5
v  8.0374 -12.6649 5
v  7.22631 -13.1446 5
v  4.70829 -9.81064 5
v  -4.62641 9.82088 5
v  6.38669 -13.5724 5
v  5.52187 -13.9466 5
v  4.63525 -14.2658 5
v  3.73035 -14.5287 5
v  2.81072 -14.7343 5
v  1.88 -14.8817 5
v  0.941857 -14.9704 5
v  0 -15 5
v  -4.54452 -9.82088 5
v  -0.941857 -14.9704 5
v  -1.88 -14.8817 5
v  -2.81072 -14.7343 5
v  -3.73035 -14.5287 5
v  -4.63525 -14.2658 5
v  -5.52187 -13.9466 5
v  -6.38669 -13.5724 5
v  -4.54452 6.96519 5
v  -5.85466 -9.82088 5
v  -7.22631 -13.1446 5
v  -8.0374 -12.6649 5
v  -8.81678 -12.1353 5
v  -9.56136 -11.5577 5
v  -10.2682 -10.9345 5
v  -12.6649 -8.0374 5
v  -13.1446 -7.22631 5
v  -13.5724 -6.38669 5
v  -13.9466 -5.52187 5
v  -14.2658 -4.63525 5
v  -14.5287 -3.73035 5
v  -14.7343 -2.81072 5
v  -5.85466 9.50358 5
v  -14.8817 1.88 5
v  -14.7343 2.81072 5
v  -13.1446 7.22631 5
v  -12.6649 8.0374 5
v  -8.81678 12.1353 5
v  -8.0374 12.6649 5
v  -7.22631 13.1446 5
v  -6.38669 13.5724 5
v  -3.73035 14.5287 5
v  -0.941857 14.9704 5
v  1.88 14.8817 5
v  2.81072 14.7343 5
v  5.85466 -9.17605 2.1
v  -4.54452 6.96519 2.1
v  4.70829 -9.81064 2.1
v  -4.62641 9.82088 2.1
v  -5.85466 9.50358 2.1
v  -5.85466 -9.82088 2.1
v  -4.54452 -9.82088 2.1

# 0 UV coordinates

# 109 vertex normals
vn 0.999507 0.0314109 0
vn -0.999507 0.0314109 0
vn 0.0314109 0.999507 0
vn -0.750111 -0.661312 0
vn 0.707107 0.707107 0
vn -0.661312 0.750111 0
vn -0.338738 0.940881 0
vn 0.917755 0.397148 0
vn 0.397148 0.917755 0
vn 0.562083 0.827081 0
vn -0.917755 0.397148 0
vn -0.750111 0.661312 0
vn -0.156434 0.987688 0
vn 0.975917 -0.218144 0
vn -0.790155 -0.612907 0
vn -0.995562 -0.0941092 0
vn 0 0 -1
vn 0.975917 0.218144 0
vn 0.960294 0.278991 0
vn 0.827081 0.562083 0
vn 0.790155 0.612907 0
vn 0.891007 0.45399 0
vn 0.278991 0.960294 0
vn 0.338738 0.940881 0
vn 0.509042 0.860742 0
vn 0.612907 0.790155 0
vn -0.960294 0.278991 0
vn -0.790155 0.612907 0
vn -0.940881 0.338738 0
vn 0 0 1
vn -0.509042 0.860742 0
vn -0.45399 0.891007 0
vn -0.562083 0.827081 0
vn -0.278991 0.960294 0
vn -0.0314109 0.999507 0
vn 0.0941092 -0.995562 0
vn 0.0314109 -0.999507 0
vn 0.612907 -0.790155 0
vn 0.707107 -0.707107 0
vn 0.562083 -0.827081 0
vn 0.827081 -0.562083 0
vn -0.278991 -0.960294 0
vn -0.397148 -0.917755 0
vn -0.338738 -0.940881 0
vn -0.860742 -0.509042 0
vn -0.827081 -0.562083 0
vn -0.940881 -0.338738 0
vn -0.999507 -0.0314109 0
vn 0.987688 0.156434 0
vn 0.995562 0.0941092 0
vn 0.940881 0.338738 0
vn 0.750111 0.661312 0
vn 0.860742 0.509042 0
vn 0.218144 0.975917 0
vn 0.156434 0.987688 0
vn 0.0941092 0.995562 0
vn 0.45399 0.891007 0
vn 0.661312 0.750111 0
vn -0.707107 0.707107 0
vn -0.827081 0.562083 0
vn -0.860742 0.509042 0
vn -0.975917 0.218144 0
vn -0.987688 0.156434 0
vn -0.995562 0.0941092 0
vn -0.397148 0.917755 0
vn -0.612907 0.790155 0
vn -0.218144 0.975917 0
vn 0.999507 -0.0314109 0
vn 0.218144 -0.975917 0
vn 0.338738 -0.940881 0
vn 0.661312 -0.750111 0
vn 0.397148 -0.917755 0
vn 0.509042 -0.860742 0
vn 0.750111 -0.661312 0
vn 0.790155 -0.612907 0
vn 0.891007 -0.45399 0
vn 0.940881 -0.338738 0
vn 0.960294 -0.278991 0
vn -0.612907 -0.790155 0
vn -0.707107 -0.707107 0
vn -0.661312 -0.750111 0
vn -0.562083 -0.827081 0
vn -0.45399 -0.891007 0
vn -0.156434 -0.987688 0
vn -0.0314109 -0.999507 0
vn -0.917755 -0.397148 0
vn -0.975917 -0.218144 0
vn -0.987688 -0.156434 0
vn -0.891007 0.45399 0
vn -0.0941092 0.995562 0
vn 0.987688 -0.156434 0
vn 0.156434 -0.987688 0
vn 0.278991 -0.960294 0
vn 0.45399 -0.891007 0
vn 0.860742 -0.509042 0
vn 0.917755 -0.397148 0
vn -0.509042 -0.860742 0
vn -0.218144 -0.975917 0
vn -0.0941092 -0.995562 0
vn -0.891007 -0.45399 0
vn -0.960294 -0.278991 0
vn 0.995562 -0.0941092 0
vn -0.484315 0.874894 0
vn 0.87564 0.482964 0
vn -1 0 0
vn 0 1 0
vn 1 0 0
vn 0.250121 -0.968214 0
vn -0.875578 -0.483077 0

# Mesh 'OpenSCAD_Model' with 424 faces
g OpenSCAD_Model
usemtl DefaultMaterial
f  1//1 2//1 3//1
f  2//1 1//1 4//1
f  5//2 6//2 7//2
f  6//2 5//2 8//2
f  9//3 10//3 11//3
f  10//3 9//3 12//3
f  13//4 14//4 15//4
f  14//4 13//4 16//4
f  17//5 18//5 19//5
f  18//5 17//5 20//5
f  21//6 22//6 23//6
f  22//6 21//6 24//6
f  25//7 26//7 27//7
f  26//7 25//7 28//7
f  29//8 30//8 31//8
f  30//8 29//8 32//8
f  33//9 34//9 35//9
f  34//9 33//9 36//9
f  37//10 38//10 39//10
f  38//10 37//10 40//10
f  41//11 42//11 43//11
f  42//11 41//11 44//11
f  45//12 46//12 47//12
f  46//12 45//12 48//12
f  49//13 50//13 51//13
f  50//13 49//13 52//13
f  53//14 54//14 55//14
f  54//14 53//14 56//14
f  15//15 57//15 58//15
f  57//15 15//15 14//15
f  59//16 60//16 61//16
f  60//16 59//16 62//16
f  63//17 2//17 4//17
f  64//17 2//17 63//17
f  64//17 65//17 2//17
f  54//17 65//17 64//17
f  54//17 66//17 65//17
f  56//17 66//17 54//17
f  56//17 67//17 66//17
f  68//17 67//17 56//17
f  68//17 69//17 67//17
f  70//17 69//17 68//17
f  70//17 32//17 69//17
f  71//17 32//17 70//17
f  71//17 30//17 32//17
f  72//17 30//17 71//17
f  72//17 73//17 30//17
f  74//17 73//17 72//17
f  74//17 75//17 73//17
f  76//17 75//17 74//17
f  76//17 77//17 75//17
f  78//17 77//17 76//17
f  78//17 79//17 77//17
f  80//17 79//17 78//17
f  80//17 20//17 79//17
f  81//17 20//17 80//17
f  81//17 18//17 20//17
f  82//17 18//17 81//17
f  82//17 83//17 18//17
f  84//17 83//17 82//17
f  84//17 37//17 83//17
f  85//17 37//17 84//17
f  85//17 40//17 37//17
f  86//17 40//17 85//17
f  86//17 87//17 40//17
f  88//17 87//17 86//17
f  88//17 33//17 87//17
f  89//17 33//17 88//17
f  89//17 36//17 33//17
f  90//17 36//17 89//17
f  90//17 91//17 36//17
f  92//17 91//17 90//17
f  92//17 93//17 91//17
f  94//17 93//17 92//17
f  94//17 95//17 93//17
f  96//17 95//17 94//17
f  96//17 97//17 95//17
f  98//17 97//17 96//17
f  98//17 9//17 97//17
f  99//17 9//17 98//17
f  99//17 12//17 9//17
f  100//17 12//17 99//17
f  100//17 101//17 12//17
f  102//17 101//17 100//17
f  102//17 49//17 101//17
f  103//17 49//17 102//17
f  103//17 52//17 49//17
f  104//17 52//17 103//17
f  104//17 105//17 52//17
f  106//17 105//17 104//17
f  106//17 25//17 105//17
f  107//17 25//17 106//17
f  107//17 28//17 25//17
f  108//17 28//17 107//17
f  108//17 109//17 28//17
f  110//17 109//17 108//17
f  110//17 111//17 109//17
f  112//17 111//17 110//17
f  112//17 113//17 111//17
f  114//17 113//17 112//17
f  114//17 115//17 113//17
f  116//17 115//17 114//17
f  116//17 21//17 115//17
f  117//17 21//17 116//17
f  117//17 24//17 21//17
f  13//17 24//17 117//17
f  13//17 47//17 24//17
f  15//17 47//17 13//17
f  15//17 45//17 47//17
f  58//17 45//17 15//17
f  58//17 118//17 45//17
f  119//17 118//17 58//17
f  119//17 120//17 118//17
f  121//17 120//17 119//17
f  121//17 122//17 120//17
f  123//17 122//17 121//17
f  123//17 43//17 122//17
f  124//17 43//17 123//17
f  124//17 41//17 43//17
f  125//17 41//17 124//17
f  125//17 126//17 41//17
f  127//17 126//17 125//17
f  127//17 128//17 126//17
f  129//17 128//17 127//17
f  129//17 130//17 128//17
f  59//17 130//17 129//17
f  59//17 131//17 130//17
f  61//17 131//17 59//17
f  61//17 7//17 131//17
f  7//17 61//17 5//17
f  132//18 67//18 133//18
f  67//18 132//18 66//18
f  133//19 69//19 134//19
f  69//19 133//19 67//19
f  135//20 77//20 136//20
f  77//20 135//20 75//20
f  136//21 79//21 137//21
f  79//21 136//21 77//21
f  31//22 73//22 138//22
f  73//22 31//22 30//22
f  91//23 139//23 140//23
f  139//23 91//23 93//23
f  36//24 140//24 34//24
f  140//24 36//24 91//24
f  40//25 141//25 38//25
f  141//25 40//25 87//25
f  83//26 39//26 142//26
f  39//26 83//26 37//26
f  128//27 143//27 126//27
f  143//27 128//27 144//27
f  118//28 48//28 45//28
f  48//28 118//28 145//28
f  126//29 44//29 41//29
f  44//29 126//29 143//29
f  146//30 1//30 3//30
f  146//30 3//30 147//30
f  1//30 146//30 148//30
f  146//30 147//30 132//30
f  148//30 146//30 149//30
f  146//30 132//30 133//30
f  149//30 146//30 55//30
f  146//30 133//30 134//30
f  55//30 146//30 53//30
f  146//30 134//30 29//30
f  53//30 146//30 150//30
f  146//30 29//30 31//30
f  150//30 146//30 151//30
f  146//30 31//30 138//30
f  151//30 146//30 152//30
f  152//30 146//30 153//30
f  153//30 146//30 154//30
f  154//30 146//30 155//30
f  155//30 146//30 156//30
f  156//30 146//30 157//30
f  157//30 146//30 158//30
f  158//30 146//30 159//30
f  159//30 146//30 160//30
f  160//30 146//30 161//30
f  161//30 146//30 162//30
f  163//30 162//30 146//30
f  138//30 164//30 146//30
f  162//30 163//30 165//30
f  165//30 163//30 166//30
f  163//30 167//30 166//30
f  163//30 168//30 167//30
f  163//30 169//30 168//30
f  163//30 170//30 169//30
f  163//30 171//30 170//30
f  163//30 172//30 171//30
f  173//30 172//30 163//30
f  172//30 173//30 174//30
f  174//30 173//30 175//30
f  175//30 173//30 176//30
f  176//30 173//30 177//30
f  173//30 178//30 177//30
f  173//30 179//30 178//30
f  173//30 180//30 179//30
f  173//30 163//30 181//30
f  180//30 173//30 182//30
f  182//30 183//30 180//30
f  182//30 184//30 183//30
f  182//30 185//30 184//30
f  182//30 186//30 185//30
f  182//30 187//30 186//30
f  182//30 16//30 187//30
f  182//30 14//30 16//30
f  182//30 57//30 14//30
f  182//30 188//30 57//30
f  182//30 189//30 188//30
f  182//30 190//30 189//30
f  182//30 191//30 190//30
f  182//30 192//30 191//30
f  182//30 193//30 192//30
f  182//30 194//30 193//30
f  182//30 62//30 194//30
f  195//30 8//30 182//30
f  182//30 60//30 62//30
f  182//30 8//30 60//30
f  8//30 195//30 6//30
f  6//30 195//30 196//30
f  196//30 195//30 197//30
f  197//30 195//30 144//30
f  144//30 195//30 143//30
f  143//30 195//30 44//30
f  44//30 195//30 42//30
f  42//30 195//30 198//30
f  198//30 195//30 199//30
f  199//30 195//30 145//30
f  145//30 195//30 48//30
f  48//30 195//30 46//30
f  46//30 195//30 22//30
f  22//30 195//30 23//30
f  23//30 195//30 200//30
f  200//30 195//30 201//30
f  201//30 195//30 202//30
f  202//30 195//30 203//30
f  164//30 203//30 195//30
f  203//30 164//30 26//30
f  26//30 164//30 27//30
f  27//30 164//30 204//30
f  164//30 50//30 204//30
f  164//30 51//30 50//30
f  164//30 205//30 51//30
f  164//30 10//30 205//30
f  164//30 11//30 10//30
f  164//30 206//30 11//30
f  164//30 207//30 206//30
f  164//30 139//30 207//30
f  164//30 140//30 139//30
f  164//30 34//30 140//30
f  164//30 35//30 34//30
f  164//30 141//30 35//30
f  164//30 38//30 141//30
f  164//30 39//30 38//30
f  164//30 142//30 39//30
f  164//30 19//30 142//30
f  164//30 17//30 19//30
f  164//30 137//30 17//30
f  164//30 136//30 137//30
f  164//30 135//30 136//30
f  164//30 138//30 135//30
f  111//31 201//31 202//31
f  201//31 111//31 113//31
f  109//32 202//32 203//32
f  202//32 109//32 111//32
f  113//33 200//33 201//33
f  200//33 113//33 115//33
f  105//34 27//34 204//34
f  27//34 105//34 25//34
f  12//35 205//35 10//35
f  205//35 12//35 101//35
f  98//36 170//36 171//36
f  170//36 98//36 96//36
f  99//37 171//37 172//37
f  171//37 99//37 98//37
f  84//38 159//38 160//38
f  159//38 84//38 82//38
f  158//39 80//39 157//39
f  80//39 158//39 81//39
f  85//40 160//40 161//40
f  160//40 85//40 84//40
f  155//41 74//41 154//41
f  74//41 155//41 76//41
f  106//42 177//42 178//42
f  177//42 106//42 104//42
f  108//43 179//43 180//43
f  179//43 108//43 107//43
f  107//44 178//44 179//44
f  178//44 107//44 106//44
f  119//45 189//45 121//45
f  189//45 119//45 188//45
f  58//46 188//46 119//46
f  188//46 58//46 57//46
f  124//47 192//47 125//47
f  192//47 124//47 191//47
f  61//48 8//48 5//48
f  8//48 61//48 60//48
f  147//49 66//49 132//49
f  66//49 147//49 65//49
f  3//50 65//50 147//50
f  65//50 3//50 2//50
f  134//51 32//51 29//51
f  32//51 134//51 69//51
f  137//52 20//52 17//52
f  20//52 137//52 79//52
f  138//53 75//53 135//53
f  75//53 138//53 73//53
f  93//54 207//54 139//54
f  207//54 93//54 95//54
f  95//55 206//55 207//55
f  206//55 95//55 97//55
f  97//56 11//56 206//56
f  11//56 97//56 9//56
f  87//57 35//57 141//57
f  35//57 87//57 33//57
f  18//58 142//58 19//58
f  142//58 18//58 83//58
f  47//59 22//59 24//59
f  22//59 47//59 46//59
f  120//60 145//60 118//60
f  145//60 120//60 199//60
f  122//61 199//61 120//61
f  199//61 122//61 198//61
f  130//62 144//62 128//62
f  144//62 130//62 197//62
f  131//63 197//63 130//63
f  197//63 131//63 196//63
f  7//64 196//64 131//64
f  196//64 7//64 6//64
f  28//65 203//65 26//65
f  203//65 28//65 109//65
f  115//66 23//66 200//66
f  23//66 115//66 21//66
f  52//67 204//67 50//67
f  204//67 52//67 105//67
f  148//68 4//68 1//68
f  4//68 148//68 63//68
f  94//69 168//69 169//69
f  168//69 94//69 92//69
f  90//70 166//70 167//70
f  166//70 90//70 89//70
f  82//71 158//71 159//71
f  158//71 82//71 81//71
f  89//72 165//72 166//72
f  165//72 89//72 88//72
f  86//73 161//73 162//73
f  161//73 86//73 85//73
f  157//74 78//74 156//74
f  78//74 157//74 80//74
f  156//75 76//75 155//75
f  76//75 156//75 78//75
f  153//76 71//76 152//76
f  71//76 153//76 72//76
f  151//77 68//77 150//77
f  68//77 151//77 70//77
f  150//78 56//78 53//78
f  56//78 150//78 68//78
f  116//79 185//79 186//79
f  185//79 116//79 114//79
f  117//80 16//80 13//80
f  16//80 117//80 187//80
f  117//81 186//81 187//81
f  186//81 117//81 116//81
f  114//82 184//82 185//82
f  184//82 114//82 112//82
f  110//83 180//83 183//83
f  180//83 110//83 108//83
f  103//84 175//84 176//84
f  175//84 103//84 102//84
f  100//85 172//85 174//85
f  172//85 100//85 99//85
f  123//86 191//86 124//86
f  191//86 123//86 190//86
f  127//87 194//87 129//87
f  194//87 127//87 193//87
f  129//88 62//88 59//88
f  62//88 129//88 194//88
f  43//89 198//89 122//89
f  198//89 43//89 42//89
f  101//90 51//90 205//90
f  51//90 101//90 49//90
f  55//91 64//91 149//91
f  64//91 55//91 54//91
f  96//92 169//92 170//92
f  169//92 96//92 94//92
f  92//93 167//93 168//93
f  167//93 92//93 90//93
f  88//94 162//94 165//94
f  162//94 88//94 86//94
f  154//95 72//95 153//95
f  72//95 154//95 74//95
f  152//96 70//96 151//96
f  70//96 152//96 71//96
f  112//97 183//97 184//97
f  183//97 112//97 110//97
f  104//98 176//98 177//98
f  176//98 104//98 103//98
f  102//99 174//99 175//99
f  174//99 102//99 100//99
f  121//100 190//100 123//100
f  190//100 121//100 189//100
f  125//101 193//101 127//101
f  193//101 125//101 192//101
f  149//102 63//102 148//102
f  63//102 149//102 64//102
f  208//30 209//30 210//30
f  211//30 209//30 208//30
f  212//30 209//30 211//30
f  213//30 209//30 212//30
f  209//30 213//30 214//30
f  208//103 163//103 146//103
f  163//103 208//103 210//103
f  163//104 209//104 181//104
f  209//104 163//104 210//104
f  214//105 181//105 209//105
f  181//105 214//105 173//105
f  214//106 182//106 173//106
f  182//106 214//106 213//106
f  182//107 212//107 195//107
f  212//107 182//107 213//107
f  212//108 164//108 195//108
f  164//108 212//108 211//108
f  208//109 164//109 211//109
f  164//109 208//109 146//109

