# File produced by Open Asset Import Library (http://www.assimp.sf.net)
# (assimp v3.1.187496374)

mtllib U2-Uruz.obj.mtl

# 216 vertex positions
v  14.8817 1.88 5
v  14.7343 2.81072 0
v  14.7343 2.81072 5
v  14.8817 1.88 0
v  15 0 5
v  14.9704 0.941857 0
v  14.9704 0.941857 5
v  15 0 0
v  -15 0 0
v  -14.9704 0.941857 5
v  -14.9704 0.941857 0
v  -15 0 5
v  0.941857 14.9704 0
v  0 15 5
v  0.941857 14.9704 5
v  0 15 0
v  -0.941857 -14.9704 0
v  0 -15 5
v  -0.941857 -14.9704 5
v  0 -15 0
v  10.9345 10.2682 5
v  10.2682 10.9345 0
v  10.2682 10.9345 5
v  10.9345 10.2682 0
v  -9.56136 11.5577 0
v  -10.2682 10.9345 5
v  -9.56136 11.5577 5
v  -10.2682 10.9345 0
v  -4.63525 14.2658 0
v  -5.52187 13.9466 5
v  -4.63525 14.2658 5
v  -5.52187 13.9466 0
v  13.9466 5.52187 5
v  13.5724 6.38669 0
v  13.5724 6.38669 5
v  13.9466 5.52187 0
v  6.38669 13.5724 0
v  5.52187 13.9466 5
v  6.38669 13.5724 5
v  5.52187 13.9466 0
v  8.81678 12.1353 0
v  8.0374 12.6649 5
v  8.81678 12.1353 5
v  8.0374 12.6649 0
v  -13.9466 5.52187 0
v  -13.5724 6.38669 5
v  -13.5724 6.38669 0
v  -13.9466 5.52187 5
v  -11.5577 9.56136 0
v  -10.9345 10.2682 5
v  -10.9345 10.2682 0
v  -11.5577 9.56136 5
v  -1.88 14.8817 0
v  -2.81072 14.7343 5
v  -1.88 14.8817 5
v  -2.81072 14.7343 0
v  14.5287 -3.73035 5
v  14.7343 -2.81072 0
v  14.7343 -2.81072 5
v  14.5287 -3.73035 0
v  -11.5577 -9.56136 0
v  -12.1353 -8.81678 5
v  -12.1353 -8.81678 0
v  -11.5577 -9.56136 5
v  -13.9466 -5.52187 0
v  -14.2658 -4.63525 5
v  -14.2658 -4.63525 0
v  -13.9466 -5.52187 5
v  14.5287 3.73035 0
v  14.5287 3.73035 5
v  14.2658 4.63525 0
v  14.2658 4.63525 5
v  12.6649 8.0374 5
v  12.1353 8.81678 0
v  12.1353 8.81678 5
v  12.6649 8.0374 0
v  11.5577 9.56136 0
v  11.5577 9.56136 5
v  13.1446 7.22631 0
v  13.1446 7.22631 5
v  4.63525 14.2658 0
v  3.73035 14.5287 5
v  4.63525 14.2658 5
v  3.73035 14.5287 0
v  1.88 14.8817 0
v  1.88 14.8817 5
v  7.22631 13.1446 5
v  7.22631 13.1446 0
v  9.56136 11.5577 5
v  9.56136 11.5577 0
v  -14.5287 3.73035 0
v  -14.2658 4.63525 5
v  -14.2658 4.63525 0
v  -14.5287 3.73035 5
v  -12.1353 8.81678 0
v  -12.1353 8.81678 5
v  -14.8817 1.88 5
v  -14.8817 1.88 0
v  -7.22631 13.1446 0
v  -8.0374 12.6649 5
v  -7.22631 13.1446 5
v  -8.0374 12.6649 0
v  -6.38669 13.5724 0
v  -6.38669 13.5724 5
v  -8.81678 12.1353 5
v  -8.81678 12.1353 0
v  -3.73035 14.5287 0
v  -3.73035 14.5287 5
v  -0.941857 14.9704 5
v  -0.941857 14.9704 0
v  0.941857 -14.9704 0
v  1.88 -14.8817 5
v  0.941857 -14.9704 5
v  1.88 -14.8817 0
v  8.81678 -12.1353 0
v  9.56136 -11.5577 5
v  8.81678 -12.1353 5
v  9.56136 -11.5577 0
v  10.2682 -10.9345 5
v  10.9345 -10.2682 0
v  10.9345 -10.2682 5
v  10.2682 -10.9345 0
v  8.0374 -12.6649 0
v  8.0374 -12.6649 5
v  12.1353 -8.81678 5
v  12.6649 -8.0374 0
v  12.6649 -8.0374 5
v  12.1353 -8.81678 0
v  -4.63525 -14.2658 0
v  -3.73035 -14.5287 5
v  -4.63525 -14.2658 5
v  -3.73035 -14.5287 0
v  -6.38669 -13.5724 0
v  -5.52187 -13.9466 5
v  -6.38669 -13.5724 5
v  -5.52187 -13.9466 0
v  -12.6649 -8.0374 0
v  -13.1446 -7.22631 5
v  -13.1446 -7.22631 0
v  -12.6649 -8.0374 5
v  -14.9704 -0.941857 0
v  -14.9704 -0.941857 5
v  14.9704 -0.941857 0
v  14.8817 -1.88 0
v  14.2658 -4.63525 0
v  13.9466 -5.52187 0
v  13.5724 -6.38669 0
v  13.1446 -7.22631 0
v  11.5577 -9.56136 0
v  7.22631 -13.1446 0
v  6.38669 -13.5724 0
v  5.52187 -13.9466 0
v  4.63525 -14.2658 0
v  3.73035 -14.5287 0
v  2.81072 -14.7343 0
v  2.81072 14.7343 0
v  -1.88 -14.8817 0
v  -2.81072 -14.7343 0
v  -7.22631 -13.1446 0
v  -8.0374 -12.6649 0
v  -8.81678 -12.1353 0
v  -9.56136 -11.5577 0
v  -10.2682 -10.9345 0
v  -10.9345 -10.2682 0
v  -12.6649 8.0374 0
v  -13.1446 7.22631 0
v  -13.5724 -6.38669 0
v  -14.5287 -3.73035 0
v  -14.7343 -2.81072 0
v  -14.7343 2.81072 0
v  -14.8817 -1.88 0
v  2.81072 14.7343 5
v  -12.6649 8.0374 5
v  -13.1446 7.22631 5
v  -14.7343 2.81072 5
v  5.90592 -1.98608 5
v  14.9704 -0.941857 5
v  14.8817 -1.88 5
v  14.2658 -4.63525 5
v  13.9466 -5.52187 5
v  13.5724 -6.38669 5
v  13.1446 -7.22631 5
v  5.97561 -9.99131 5
v  -5.97561 10 5
v  -5.87108 -9.86933 5
v  -14.8817 -1.88 5
v  -14.7343 -2.81072 5
v  -14.5287 -3.73035 5
v  -13.5724 -6.38669 5
v  -10.9345 -10.2682 5
v  -10.2682 -10.9345 5
v  -9.56136 -11.5577 5
v  -8.81678 -12.1353 5
v  -8.0374 -12.6649 5
v  -4.75609 -9.86933 5
v  -7.22631 -13.1446 5
v  -2.81072 -14.7343 5
v  -1.88 -14.8817 5
v  4.86062 -10 5
v  2.81072 -14.7343 5
v  3.73035 -14.5287 5
v  4.63525 -14.2658 5
v  5.52187 -13.9466 5
v  6.38669 -13.5724 5
v  4.79094 -2.44773 5
v  7.22631 -13.1446 5
v  11.5577 -9.56136 5
v  -4.8432 7.27352 5
v  4.79094 -2.44773 2.1
v  5.97561 -9.99131 2.1
v  5.90592 -1.98608 2.1
v  4.86062 -10 2.1
v  -4.8432 7.27352 2.1
v  -5.97561 10 2.1
v  -5.87108 -9.86933 2.1
v  -4.75609 -9.86933 2.1

# 0 UV coordinates

# 110 vertex normals
vn 0.987688 0.156434 0
vn 0.999507 0.0314109 0
vn -0.999507 0.0314109 0
vn 0.0314109 0.999507 0
vn -0.0314109 -0.999507 0
vn 0.707107 0.707107 0
vn -0.661312 0.750111 0
vn -0.338738 0.940881 0
vn 0.917755 0.397148 0
vn 0.397148 0.917755 0
vn 0.562083 0.827081 0
vn -0.917755 0.397148 0
vn -0.750111 0.661312 0
vn -0.156434 0.987688 0
vn 0.975917 -0.218144 0
vn -0.790155 -0.612907 0
vn -0.940881 -0.338738 0
vn 0.975917 0.218144 0
vn 0.960294 0.278991 0
vn 0.827081 0.562083 0
vn 0.790155 0.612907 0
vn 0.891007 0.45399 0
vn 0.278991 0.960294 0
vn 0.338738 0.940881 0
vn 0.0941092 0.995562 0
vn 0.509042 0.860742 0
vn 0.661312 0.750111 0
vn -0.960294 0.278991 0
vn -0.790155 0.612907 0
vn -0.940881 0.338738 0
vn -0.995562 0.0941092 0
vn -0.509042 0.860742 0
vn -0.45399 0.891007 0
vn -0.562083 0.827081 0
vn -0.278991 0.960294 0
vn -0.0314109 0.999507 0
vn 0.0941092 -0.995562 0
vn 0.0314109 -0.999507 0
vn 0.612907 -0.790155 0
vn 0.707107 -0.707107 0
vn 0.562083 -0.827081 0
vn 0.827081 -0.562083 0
vn -0.278991 -0.960294 0
vn -0.397148 -0.917755 0
vn -0.338738 -0.940881 0
vn -0.860742 -0.509042 0
vn -0.827081 -0.562083 0
vn -0.999507 -0.0314109 0
vn 0 0 -1
vn 0.995562 0.0941092 0
vn 0.218144 0.975917 0
vn 0.156434 0.987688 0
vn 0.612907 0.790155 0
vn -0.707107 0.707107 0
vn -0.827081 0.562083 0
vn -0.860742 0.509042 0
vn -0.975917 0.218144 0
vn -0.987688 0.156434 0
vn 0 0 1
vn -0.397148 0.917755 0
vn -0.218144 0.975917 0
vn 0.999507 -0.0314109 0
vn 0.218144 -0.975917 0
vn 0.338738 -0.940881 0
vn 0.278991 -0.960294 0
vn 0.661312 -0.750111 0
vn 0.397148 -0.917755 0
vn 0.509042 -0.860742 0
vn 0.45399 -0.891007 0
vn 0.750111 -0.661312 0
vn 0.790155 -0.612907 0
vn 0.891007 -0.45399 0
vn 0.940881 -0.338738 0
vn 0.917755 -0.397148 0
vn 0.960294 -0.278991 0
vn -0.612907 -0.790155 0
vn -0.707107 -0.707107 0
vn -0.661312 -0.750111 0
vn -0.562083 -0.827081 0
vn -0.45399 -0.891007 0
vn -0.509042 -0.860742 0
vn -0.156434 -0.987688 0
vn -0.750111 -0.661312 0
vn -0.917755 -0.397148 0
vn -0.975917 -0.218144 0
vn -0.995562 -0.0941092 0
vn -0.987688 -0.156434 0
vn 0.940881 0.338738 0
vn 0.750111 0.661312 0
vn 0.860742 0.509042 0
vn 0.45399 0.891007 0
vn -0.891007 0.45399 0
vn -0.612907 0.790155 0
vn -0.0941092 0.995562 0
vn 0.987688 -0.156434 0
vn 0.156434 -0.987688 0
vn 0.860742 -0.509042 0
vn -0.218144 -0.975917 0
vn -0.0941092 -0.995562 0
vn -0.891007 -0.45399 0
vn -0.960294 -0.278991 0
vn 0.995562 -0.0941092 0
vn -0.710197 -0.704003 0
vn -0.999962 -0.00870473 0
vn -0.00779349 0.99997 0
vn 0.999957 0.00922676 0
vn 0.710282 0.703917 0
vn -0.999987 -0.00508127 0
vn 0 1 0
vn 0.999986 0.00526091 0

# Mesh 'OpenSCAD_Model' with 428 faces
g OpenSCAD_Model
usemtl DefaultMaterial
f  1//1 2//1 3//1
f  2//1 1//1 4//1
f  5//2 6//2 7//2
f  6//2 5//2 8//2
f  9//3 10//3 11//3
f  10//3 9//3 12//3
f  13//4 14//4 15//4
f  14//4 13//4 16//4
f  17//5 18//5 19//5
f  18//5 17//5 20//5
f  21//6 22//6 23//6
f  22//6 21//6 24//6
f  25//7 26//7 27//7
f  26//7 25//7 28//7
f  29//8 30//8 31//8
f  30//8 29//8 32//8
f  33//9 34//9 35//9
f  34//9 33//9 36//9
f  37//10 38//10 39//10
f  38//10 37//10 40//10
f  41//11 42//11 43//11
f  42//11 41//11 44//11
f  45//12 46//12 47//12
f  46//12 45//12 48//12
f  49//13 50//13 51//13
f  50//13 49//13 52//13
f  53//14 54//14 55//14
f  54//14 53//14 56//14
f  57//15 58//15 59//15
f  58//15 57//15 60//15
f  61//16 62//16 63//16
f  62//16 61//16 64//16
f  65//17 66//17 67//17
f  66//17 65//17 68//17
f  3//18 69//18 70//18
f  69//18 3//18 2//18
f  70//19 71//19 72//19
f  71//19 70//19 69//19
f  73//20 74//20 75//20
f  74//20 73//20 76//20
f  75//21 77//21 78//21
f  77//21 75//21 74//21
f  35//22 79//22 80//22
f  79//22 35//22 34//22
f  81//23 82//23 83//23
f  82//23 81//23 84//23
f  40//24 83//24 38//24
f  83//24 40//24 81//24
f  85//25 15//25 86//25
f  15//25 85//25 13//25
f  44//26 87//26 42//26
f  87//26 44//26 88//26
f  22//27 89//27 23//27
f  89//27 22//27 90//27
f  91//28 92//28 93//28
f  92//28 91//28 94//28
f  95//29 52//29 49//29
f  52//29 95//29 96//29
f  93//30 48//30 45//30
f  48//30 93//30 92//30
f  11//31 97//31 98//31
f  97//31 11//31 10//31
f  99//32 100//32 101//32
f  100//32 99//32 102//32
f  103//33 101//33 104//33
f  101//33 103//33 99//33
f  102//34 105//34 100//34
f  105//34 102//34 106//34
f  107//35 31//35 108//35
f  31//35 107//35 29//35
f  16//36 109//36 14//36
f  109//36 16//36 110//36
f  111//37 112//37 113//37
f  112//37 111//37 114//37
f  20//38 113//38 18//38
f  113//38 20//38 111//38
f  115//39 116//39 117//39
f  116//39 115//39 118//39
f  119//40 120//40 121//40
f  120//40 119//40 122//40
f  123//41 117//41 124//41
f  117//41 123//41 115//41
f  125//42 126//42 127//42
f  126//42 125//42 128//42
f  129//43 130//43 131//43
f  130//43 129//43 132//43
f  133//44 134//44 135//44
f  134//44 133//44 136//44
f  136//45 131//45 134//45
f  131//45 136//45 129//45
f  137//46 138//46 139//46
f  138//46 137//46 140//46
f  63//47 140//47 137//47
f  140//47 63//47 62//47
f  141//48 12//48 9//48
f  12//48 141//48 142//48
f  143//49 6//49 8//49
f  144//49 6//49 143//49
f  144//49 4//49 6//49
f  58//49 4//49 144//49
f  58//49 2//49 4//49
f  60//49 2//49 58//49
f  60//49 69//49 2//49
f  145//49 69//49 60//49
f  145//49 71//49 69//49
f  146//49 71//49 145//49
f  146//49 36//49 71//49
f  147//49 36//49 146//49
f  147//49 34//49 36//49
f  148//49 34//49 147//49
f  148//49 79//49 34//49
f  126//49 79//49 148//49
f  126//49 76//49 79//49
f  128//49 76//49 126//49
f  128//49 74//49 76//49
f  149//49 74//49 128//49
f  149//49 77//49 74//49
f  120//49 77//49 149//49
f  120//49 24//49 77//49
f  122//49 24//49 120//49
f  122//49 22//49 24//49
f  118//49 22//49 122//49
f  118//49 90//49 22//49
f  115//49 90//49 118//49
f  115//49 41//49 90//49
f  123//49 41//49 115//49
f  123//49 44//49 41//49
f  150//49 44//49 123//49
f  150//49 88//49 44//49
f  151//49 88//49 150//49
f  151//49 37//49 88//49
f  152//49 37//49 151//49
f  152//49 40//49 37//49
f  153//49 40//49 152//49
f  153//49 81//49 40//49
f  154//49 81//49 153//49
f  154//49 84//49 81//49
f  155//49 84//49 154//49
f  155//49 156//49 84//49
f  114//49 156//49 155//49
f  114//49 85//49 156//49
f  111//49 85//49 114//49
f  111//49 13//49 85//49
f  20//49 13//49 111//49
f  20//49 16//49 13//49
f  17//49 16//49 20//49
f  17//49 110//49 16//49
f  157//49 110//49 17//49
f  157//49 53//49 110//49
f  158//49 53//49 157//49
f  158//49 56//49 53//49
f  132//49 56//49 158//49
f  132//49 107//49 56//49
f  129//49 107//49 132//49
f  129//49 29//49 107//49
f  136//49 29//49 129//49
f  136//49 32//49 29//49
f  133//49 32//49 136//49
f  133//49 103//49 32//49
f  159//49 103//49 133//49
f  159//49 99//49 103//49
f  160//49 99//49 159//49
f  160//49 102//49 99//49
f  161//49 102//49 160//49
f  161//49 106//49 102//49
f  162//49 106//49 161//49
f  162//49 25//49 106//49
f  163//49 25//49 162//49
f  163//49 28//49 25//49
f  164//49 28//49 163//49
f  164//49 51//49 28//49
f  61//49 51//49 164//49
f  61//49 49//49 51//49
f  63//49 49//49 61//49
f  63//49 95//49 49//49
f  137//49 95//49 63//49
f  137//49 165//49 95//49
f  139//49 165//49 137//49
f  139//49 166//49 165//49
f  167//49 166//49 139//49
f  167//49 47//49 166//49
f  65//49 47//49 167//49
f  65//49 45//49 47//49
f  67//49 45//49 65//49
f  67//49 93//49 45//49
f  168//49 93//49 67//49
f  168//49 91//49 93//49
f  169//49 91//49 168//49
f  169//49 170//49 91//49
f  171//49 170//49 169//49
f  171//49 98//49 170//49
f  141//49 98//49 171//49
f  141//49 11//49 98//49
f  11//49 141//49 9//49
f  7//50 4//50 1//50
f  4//50 7//50 6//50
f  84//51 172//51 82//51
f  172//51 84//51 156//51
f  156//52 86//52 172//52
f  86//52 156//52 85//52
f  90//53 43//53 89//53
f  43//53 90//53 41//53
f  51//54 26//54 28//54
f  26//54 51//54 50//54
f  165//55 96//55 95//55
f  96//55 165//55 173//55
f  166//56 173//56 165//56
f  173//56 166//56 174//56
f  170//57 94//57 91//57
f  94//57 170//57 175//57
f  98//58 175//58 170//58
f  175//58 98//58 97//58
f  176//59 5//59 7//59
f  176//59 7//59 1//59
f  5//59 176//59 177//59
f  176//59 1//59 3//59
f  177//59 176//59 178//59
f  176//59 3//59 70//59
f  178//59 176//59 59//59
f  176//59 70//59 72//59
f  59//59 176//59 57//59
f  176//59 72//59 33//59
f  57//59 176//59 179//59
f  176//59 33//59 35//59
f  179//59 176//59 180//59
f  176//59 35//59 80//59
f  180//59 176//59 181//59
f  176//59 80//59 73//59
f  181//59 176//59 182//59
f  176//59 73//59 75//59
f  182//59 176//59 127//59
f  176//59 75//59 78//59
f  127//59 176//59 125//59
f  176//59 78//59 21//59
f  183//59 125//59 176//59
f  176//59 21//59 23//59
f  176//59 23//59 89//59
f  176//59 89//59 43//59
f  176//59 43//59 42//59
f  176//59 42//59 87//59
f  176//59 87//59 39//59
f  38//59 176//59 39//59
f  83//59 176//59 38//59
f  83//59 184//59 176//59
f  184//59 83//59 82//59
f  184//59 82//59 172//59
f  184//59 172//59 86//59
f  184//59 86//59 15//59
f  184//59 15//59 14//59
f  184//59 14//59 109//59
f  184//59 109//59 55//59
f  184//59 55//59 54//59
f  184//59 54//59 108//59
f  184//59 108//59 31//59
f  184//59 31//59 30//59
f  184//59 30//59 104//59
f  101//59 184//59 104//59
f  100//59 184//59 101//59
f  105//59 184//59 100//59
f  27//59 184//59 105//59
f  26//59 184//59 27//59
f  50//59 184//59 26//59
f  52//59 184//59 50//59
f  96//59 184//59 52//59
f  173//59 184//59 96//59
f  174//59 184//59 173//59
f  46//59 184//59 174//59
f  48//59 184//59 46//59
f  92//59 184//59 48//59
f  94//59 184//59 92//59
f  175//59 184//59 94//59
f  97//59 184//59 175//59
f  10//59 184//59 97//59
f  184//59 10//59 185//59
f  12//59 185//59 10//59
f  185//59 12//59 142//59
f  185//59 142//59 186//59
f  185//59 186//59 187//59
f  185//59 187//59 188//59
f  185//59 188//59 66//59
f  185//59 66//59 68//59
f  185//59 68//59 189//59
f  185//59 189//59 138//59
f  185//59 138//59 140//59
f  185//59 140//59 62//59
f  185//59 62//59 64//59
f  185//59 64//59 190//59
f  185//59 190//59 191//59
f  185//59 191//59 192//59
f  185//59 192//59 193//59
f  185//59 193//59 194//59
f  135//59 195//59 185//59
f  185//59 196//59 135//59
f  185//59 194//59 196//59
f  195//59 135//59 134//59
f  195//59 134//59 131//59
f  130//59 195//59 131//59
f  197//59 195//59 130//59
f  198//59 195//59 197//59
f  19//59 195//59 198//59
f  18//59 195//59 19//59
f  18//59 199//59 195//59
f  199//59 18//59 113//59
f  199//59 113//59 112//59
f  199//59 112//59 200//59
f  199//59 200//59 201//59
f  199//59 201//59 202//59
f  199//59 202//59 203//59
f  204//59 199//59 203//59
f  199//59 204//59 183//59
f  195//59 199//59 205//59
f  206//59 183//59 204//59
f  124//59 183//59 206//59
f  117//59 183//59 124//59
f  116//59 183//59 117//59
f  119//59 183//59 116//59
f  121//59 183//59 119//59
f  207//59 183//59 121//59
f  125//59 183//59 207//59
f  195//59 205//59 208//59
f  32//60 104//60 30//60
f  104//60 32//60 103//60
f  56//61 108//61 54//61
f  108//61 56//61 107//61
f  177//62 8//62 5//62
f  8//62 177//62 143//62
f  155//63 201//63 200//63
f  201//63 155//63 154//63
f  153//64 203//64 202//64
f  203//64 153//64 152//64
f  154//65 202//65 201//65
f  202//65 154//65 153//65
f  118//66 119//66 116//66
f  119//66 118//66 122//66
f  152//67 204//67 203//67
f  204//67 152//67 151//67
f  150//68 124//68 206//68
f  124//68 150//68 123//68
f  151//69 206//69 204//69
f  206//69 151//69 150//69
f  121//70 149//70 207//70
f  149//70 121//70 120//70
f  207//71 128//71 125//71
f  128//71 207//71 149//71
f  182//72 147//72 181//72
f  147//72 182//72 148//72
f  180//73 145//73 179//73
f  145//73 180//73 146//73
f  181//74 146//74 180//74
f  146//74 181//74 147//74
f  179//75 60//75 57//75
f  60//75 179//75 145//75
f  162//76 193//76 192//76
f  193//76 162//76 161//76
f  163//77 190//77 164//77
f  190//77 163//77 191//77
f  163//78 192//78 191//78
f  192//78 163//78 162//78
f  161//79 194//79 193//79
f  194//79 161//79 160//79
f  159//80 135//80 196//80
f  135//80 159//80 133//80
f  160//81 196//81 194//81
f  196//81 160//81 159//81
f  158//82 198//82 197//82
f  198//82 158//82 157//82
f  164//83 64//83 61//83
f  64//83 164//83 190//83
f  167//84 68//84 65//84
f  68//84 167//84 189//84
f  168//85 187//85 169//85
f  187//85 168//85 188//85
f  171//86 142//86 141//86
f  142//86 171//86 186//86
f  169//87 186//87 171//87
f  186//87 169//87 187//87
f  72//88 36//88 33//88
f  36//88 72//88 71//88
f  78//89 24//89 21//89
f  24//89 78//89 77//89
f  80//90 76//90 73//90
f  76//90 80//90 79//90
f  88//91 39//91 87//91
f  39//91 88//91 37//91
f  47//92 174//92 166//92
f  174//92 47//92 46//92
f  106//93 27//93 105//93
f  27//93 106//93 25//93
f  110//94 55//94 109//94
f  55//94 110//94 53//94
f  59//95 144//95 178//95
f  144//95 59//95 58//95
f  114//96 200//96 112//96
f  200//96 114//96 155//96
f  127//97 148//97 182//97
f  148//97 127//97 126//97
f  132//98 197//98 130//98
f  197//98 132//98 158//98
f  157//99 19//99 198//99
f  19//99 157//99 17//99
f  139//100 189//100 167//100
f  189//100 139//100 138//100
f  67//101 188//101 168//101
f  188//101 67//101 66//101
f  178//102 143//102 177//102
f  143//102 178//102 144//102
f  209//59 210//59 211//59
f  210//59 209//59 212//59
f  211//59 213//59 209//59
f  214//59 213//59 211//59
f  213//59 214//59 215//59
f  216//59 213//59 215//59
f  211//103 184//103 214//103
f  184//103 211//103 176//103
f  210//104 176//104 211//104
f  176//104 210//104 183//104
f  210//105 199//105 183//105
f  199//105 210//105 212//105
f  199//106 209//106 205//106
f  209//106 199//106 212//106
f  205//107 213//107 208//107
f  213//107 205//107 209//107
f  216//108 208//108 213//108
f  208//108 216//108 195//108
f  216//109 185//109 195//109
f  185//109 216//109 215//109
f  185//110 214//110 184//110
f  214//110 185//110 215//110

