# File produced by Open Asset Import Library (http://www.assimp.sf.net)
# (assimp v3.1.187496374)

mtllib W-Wunjo.obj.mtl

# 220 vertex positions
v  3.16618 5.74146 2.1
v  1.68451 5.26521 2.1
v  3.12208 4.7184 2.1
v  -1.60514 9.82486 2.1
v  -1.85208 8.2991 2.1
v  -1.85208 2.61937 2.1
v  -1.85208 0.978958 2.1
v  -3.16618 9.82486 2.1
v  -3.16618 -9.82486 2.1
v  -1.85208 -9.82486 2.1
v  3.16618 5.74146 5
v  3.12208 4.7184 5
v  -1.85208 0.978958 5
v  -1.85208 -9.82486 5
v  -3.16618 -9.82486 5
v  -3.16618 9.82486 5
v  -1.60514 9.82486 5
v  -1.85208 8.2991 5
v  1.68451 5.26521 5
v  -1.85208 2.61937 5
v  15 0 5
v  14.9704 0.941857 0
v  14.9704 0.941857 5
v  15 0 0
v  -15 0 0
v  -14.9704 0.941857 5
v  -14.9704 0.941857 0
v  -15 0 5
v  0.941857 14.9704 0
v  0 15 5
v  0.941857 14.9704 5
v  0 15 0
v  -10.9345 -10.2682 0
v  -11.5577 -9.56136 5
v  -11.5577 -9.56136 0
v  -10.9345 -10.2682 5
v  10.9345 10.2682 5
v  10.2682 10.9345 0
v  10.2682 10.9345 5
v  10.9345 10.2682 0
v  -9.56136 11.5577 0
v  -10.2682 10.9345 5
v  -9.56136 11.5577 5
v  -10.2682 10.9345 0
v  -4.63525 14.2658 0
v  -5.52187 13.9466 5
v  -4.63525 14.2658 5
v  -5.52187 13.9466 0
v  13.9466 5.52187 5
v  13.5724 6.38669 0
v  13.5724 6.38669 5
v  13.9466 5.52187 0
v  6.38669 13.5724 0
v  5.52187 13.9466 5
v  6.38669 13.5724 5
v  5.52187 13.9466 0
v  8.81678 12.1353 0
v  8.0374 12.6649 5
v  8.81678 12.1353 5
v  8.0374 12.6649 0
v  -13.9466 5.52187 0
v  -13.5724 6.38669 5
v  -13.5724 6.38669 0
v  -13.9466 5.52187 5
v  -1.88 14.8817 0
v  -2.81072 14.7343 5
v  -1.88 14.8817 5
v  -2.81072 14.7343 0
v  -14.8817 -1.88 0
v  -14.9704 -0.941857 5
v  -14.9704 -0.941857 0
v  -14.8817 -1.88 5
v  14.9704 -0.941857 0
v  14.8817 -1.88 0
v  14.8817 1.88 0
v  14.7343 -2.81072 0
v  14.7343 2.81072 0
v  14.5287 -3.73035 0
v  14.5287 3.73035 0
v  14.2658 -4.63525 0
v  14.2658 4.63525 0
v  13.9466 -5.52187 0
v  13.5724 -6.38669 0
v  13.1446 -7.22631 0
v  13.1446 7.22631 0
v  12.6649 -8.0374 0
v  12.6649 8.0374 0
v  12.1353 -8.81678 0
v  12.1353 8.81678 0
v  11.5577 -9.56136 0
v  11.5577 9.56136 0
v  10.9345 -10.2682 0
v  10.2682 -10.9345 0
v  9.56136 -11.5577 0
v  9.56136 11.5577 0
v  8.81678 -12.1353 0
v  8.0374 -12.6649 0
v  7.22631 -13.1446 0
v  7.22631 13.1446 0
v  6.38669 -13.5724 0
v  5.52187 -13.9466 0
v  4.63525 -14.2658 0
v  4.63525 14.2658 0
v  3.73035 -14.5287 0
v  3.73035 14.5287 0
v  2.81072 -14.7343 0
v  2.81072 14.7343 0
v  1.88 -14.8817 0
v  1.88 14.8817 0
v  0.941857 -14.9704 0
v  0 -15 0
v  -0.941857 -14.9704 0
v  -0.941857 14.9704 0
v  -1.88 -14.8817 0
v  -2.81072 -14.7343 0
v  -3.73035 -14.5287 0
v  -3.73035 14.5287 0
v  -4.63525 -14.2658 0
v  -5.52187 -13.9466 0
v  -6.38669 -13.5724 0
v  -6.38669 13.5724 0
v  -7.22631 -13.1446 0
v  -7.22631 13.1446 0
v  -8.0374 -12.6649 0
v  -8.0374 12.6649 0
v  -8.81678 -12.1353 0
v  -8.81678 12.1353 0
v  -9.56136 -11.5577 0
v  -10.2682 -10.9345 0
v  -10.9345 10.2682 0
v  -11.5577 9.56136 0
v  -12.1353 -8.81678 0
v  -12.1353 8.81678 0
v  -12.6649 -8.0374 0
v  -12.6649 8.0374 0
v  -13.1446 -7.22631 0
v  -13.1446 7.22631 0
v  -13.5724 -6.38669 0
v  -13.9466 -5.52187 0
v  -14.2658 -4.63525 0
v  -14.2658 4.63525 0
v  -14.5287 -3.73035 0
v  -14.5287 3.73035 0
v  -14.7343 -2.81072 0
v  -14.7343 2.81072 0
v  -14.8817 1.88 0
v  14.7343 2.81072 5
v  14.5287 3.73035 5
v  14.2658 4.63525 5
v  12.6649 8.0374 5
v  12.1353 8.81678 5
v  11.5577 9.56136 5
v  13.1446 7.22631 5
v  2.81072 14.7343 5
v  3.73035 14.5287 5
v  4.63525 14.2658 5
v  7.22631 13.1446 5
v  9.56136 11.5577 5
v  -14.5287 3.73035 5
v  -14.7343 2.81072 5
v  -11.5577 9.56136 5
v  -12.1353 8.81678 5
v  -14.2658 4.63525 5
v  14.8817 1.88 5
v  14.9704 -0.941857 5
v  14.8817 -1.88 5
v  14.7343 -2.81072 5
v  14.5287 -3.73035 5
v  14.2658 -4.63525 5
v  13.9466 -5.52187 5
v  13.5724 -6.38669 5
v  13.1446 -7.22631 5
v  12.6649 -8.0374 5
v  1.88 14.8817 5
v  -0.941857 14.9704 5
v  -3.73035 14.5287 5
v  -6.38669 13.5724 5
v  -7.22631 13.1446 5
v  -8.0374 12.6649 5
v  -8.81678 12.1353 5
v  -10.9345 10.2682 5
v  -12.6649 8.0374 5
v  -13.1446 7.22631 5
v  -14.8817 1.88 5
v  -14.7343 -2.81072 5
v  -14.5287 -3.73035 5
v  -14.2658 -4.63525 5
v  -13.9466 -5.52187 5
v  -13.5724 -6.38669 5
v  -13.1446 -7.22631 5
v  -12.6649 -8.0374 5
v  -12.1353 -8.81678 5
v  -10.2682 -10.9345 5
v  -9.56136 -11.5577 5
v  -8.81678 -12.1353 5
v  -8.0374 -12.6649 5
v  -7.22631 -13.1446 5
v  -6.38669 -13.5724 5
v  -5.52187 -13.9466 5
v  -4.63525 -14.2658 5
v  -3.73035 -14.5287 5
v  -2.81072 -14.7343 5
v  -1.88 -14.8817 5
v  -0.941857 -14.9704 5
v  0 -15 5
v  0.941857 -14.9704 5
v  1.88 -14.8817 5
v  2.81072 -14.7343 5
v  3.73035 -14.5287 5
v  4.63525 -14.2658 5
v  5.52187 -13.9466 5
v  6.38669 -13.5724 5
v  7.22631 -13.1446 5
v  8.0374 -12.6649 5
v  10.9345 -10.2682 5
v  10.2682 -10.9345 5
v  9.56136 -11.5577 5
v  8.81678 -12.1353 5
v  11.5577 -9.56136 5
v  12.1353 -8.81678 5

# 0 UV coordinates

# 111 vertex normals
vn 0 0 1
vn -0.999072 0.0430634 0
vn -0.600907 0.799319 0
vn -1 0 0
vn 0 1 0
vn 1 0 0
vn 0 -1 0
vn -0.650213 -0.759752 0
vn 0.651103 0.758989 0
vn 0.599041 -0.800718 0
vn 0.999507 0.0314109 0
vn -0.999507 0.0314109 0
vn 0.0314109 0.999507 0
vn -0.750111 -0.661312 0
vn 0.707107 0.707107 0
vn -0.661312 0.750111 0
vn -0.338738 0.940881 0
vn 0.917755 0.397148 0
vn 0.397148 0.917755 0
vn 0.562083 0.827081 0
vn -0.917755 0.397148 0
vn -0.156434 0.987688 0
vn -0.995562 -0.0941092 0
vn 0 0 -1
vn 0.975917 0.218144 0
vn 0.960294 0.278991 0
vn 0.827081 0.562083 0
vn 0.790155 0.612907 0
vn 0.891007 0.45399 0
vn 0.218144 0.975917 0
vn 0.338738 0.940881 0
vn 0.509042 0.860742 0
vn 0.612907 0.790155 0
vn -0.975917 0.218144 0
vn -0.790155 0.612907 0
vn -0.940881 0.338738 0
vn -0.509042 0.860742 0
vn -0.562083 0.827081 0
vn -0.0314109 0.999507 0
vn 0.0314109 -0.999507 0
vn 0.612907 -0.790155 0
vn 0.995562 -0.0941092 0
vn -0.397148 -0.917755 0
vn -0.338738 -0.940881 0
vn -0.860742 -0.509042 0
vn -0.827081 -0.562083 0
vn -0.940881 -0.338738 0
vn -0.999507 -0.0314109 0
vn 0.987688 0.156434 0
vn 0.995562 0.0941092 0
vn 0.940881 0.338738 0
vn 0.750111 0.661312 0
vn 0.860742 0.509042 0
vn 0.278991 0.960294 0
vn 0.156434 0.987688 0
vn 0.0941092 0.995562 0
vn 0.45399 0.891007 0
vn 0.661312 0.750111 0
vn -0.750111 0.661312 0
vn -0.707107 0.707107 0
vn -0.860742 0.509042 0
vn -0.891007 0.45399 0
vn -0.827081 0.562083 0
vn -0.960294 0.278991 0
vn -0.987688 0.156434 0
vn -0.995562 0.0941092 0
vn -0.45399 0.891007 0
vn -0.397148 0.917755 0
vn -0.612907 0.790155 0
vn -0.218144 0.975917 0
vn -0.278991 0.960294 0
vn 0.999507 -0.0314109 0
vn 0.0941092 -0.995562 0
vn 0.338738 -0.940881 0
vn 0.218144 -0.975917 0
vn 0.661312 -0.750111 0
vn 0.509042 -0.860742 0
vn 0.562083 -0.827081 0
vn 0.397148 -0.917755 0
vn 0.750111 -0.661312 0
vn 0.827081 -0.562083 0
vn 0.940881 -0.338738 0
vn 0.891007 -0.45399 0
vn 0.960294 -0.278991 0
vn -0.707107 -0.707107 0
vn -0.612907 -0.790155 0
vn -0.562083 -0.827081 0
vn -0.45399 -0.891007 0
vn -0.509042 -0.860742 0
vn -0.278991 -0.960294 0
vn -0.156434 -0.987688 0
vn -0.0314109 -0.999507 0
vn -0.917755 -0.397148 0
vn -0.790155 -0.612907 0
vn -0.975917 -0.218144 0
vn -0.0941092 0.995562 0
vn 0.987688 -0.156434 0
vn 0.156434 -0.987688 0
vn 0.278991 -0.960294 0
vn 0.707107 -0.707107 0
vn 0.45399 -0.891007 0
vn 0.790155 -0.612907 0
vn 0.860742 -0.509042 0
vn 0.917755 -0.397148 0
vn -0.661312 -0.750111 0
vn -0.218144 -0.975917 0
vn -0.0941092 -0.995562 0
vn -0.891007 -0.45399 0
vn -0.960294 -0.278991 0
vn -0.987688 -0.156434 0
vn 0.975917 -0.218144 0

# Mesh 'OpenSCAD_Model' with 436 faces
g OpenSCAD_Model
usemtl DefaultMaterial
f  1//1 2//1 3//1
f  4//1 2//1 1//1
f  4//1 5//1 2//1
f  6//1 3//1 2//1
f  3//1 6//1 7//1
f  8//1 6//1 5//1
f  6//1 8//1 7//1
f  8//1 5//1 4//1
f  7//1 8//1 9//1
f  7//1 9//1 10//1
f  3//2 11//2 1//2
f  11//2 3//2 12//2
f  3//3 13//3 12//3
f  13//3 3//3 7//3
f  10//4 13//4 7//4
f  13//4 10//4 14//4
f  10//5 15//5 14//5
f  15//5 10//5 9//5
f  15//6 8//6 16//6
f  8//6 15//6 9//6
f  8//7 17//7 16//7
f  17//7 8//7 4//7
f  4//8 11//8 17//8
f  11//8 4//8 1//8
f  2//9 18//9 19//9
f  18//9 2//9 5//9
f  6//4 18//4 5//4
f  18//4 6//4 20//4
f  6//10 19//10 20//10
f  19//10 6//10 2//10
f  21//11 22//11 23//11
f  22//11 21//11 24//11
f  25//12 26//12 27//12
f  26//12 25//12 28//12
f  29//13 30//13 31//13
f  30//13 29//13 32//13
f  33//14 34//14 35//14
f  34//14 33//14 36//14
f  37//15 38//15 39//15
f  38//15 37//15 40//15
f  41//16 42//16 43//16
f  42//16 41//16 44//16
f  45//17 46//17 47//17
f  46//17 45//17 48//17
f  49//18 50//18 51//18
f  50//18 49//18 52//18
f  53//19 54//19 55//19
f  54//19 53//19 56//19
f  57//20 58//20 59//20
f  58//20 57//20 60//20
f  61//21 62//21 63//21
f  62//21 61//21 64//21
f  65//22 66//22 67//22
f  66//22 65//22 68//22
f  69//23 70//23 71//23
f  70//23 69//23 72//23
f  73//24 22//24 24//24
f  74//24 22//24 73//24
f  74//24 75//24 22//24
f  76//24 75//24 74//24
f  76//24 77//24 75//24
f  78//24 77//24 76//24
f  78//24 79//24 77//24
f  80//24 79//24 78//24
f  80//24 81//24 79//24
f  82//24 81//24 80//24
f  82//24 52//24 81//24
f  83//24 52//24 82//24
f  83//24 50//24 52//24
f  84//24 50//24 83//24
f  84//24 85//24 50//24
f  86//24 85//24 84//24
f  86//24 87//24 85//24
f  88//24 87//24 86//24
f  88//24 89//24 87//24
f  90//24 89//24 88//24
f  90//24 91//24 89//24
f  92//24 91//24 90//24
f  92//24 40//24 91//24
f  93//24 40//24 92//24
f  93//24 38//24 40//24
f  94//24 38//24 93//24
f  94//24 95//24 38//24
f  96//24 95//24 94//24
f  96//24 57//24 95//24
f  97//24 57//24 96//24
f  97//24 60//24 57//24
f  98//24 60//24 97//24
f  98//24 99//24 60//24
f  100//24 99//24 98//24
f  100//24 53//24 99//24
f  101//24 53//24 100//24
f  101//24 56//24 53//24
f  102//24 56//24 101//24
f  102//24 103//24 56//24
f  104//24 103//24 102//24
f  104//24 105//24 103//24
f  106//24 105//24 104//24
f  106//24 107//24 105//24
f  108//24 107//24 106//24
f  108//24 109//24 107//24
f  110//24 109//24 108//24
f  110//24 29//24 109//24
f  111//24 29//24 110//24
f  111//24 32//24 29//24
f  112//24 32//24 111//24
f  112//24 113//24 32//24
f  114//24 113//24 112//24
f  114//24 65//24 113//24
f  115//24 65//24 114//24
f  115//24 68//24 65//24
f  116//24 68//24 115//24
f  116//24 117//24 68//24
f  118//24 117//24 116//24
f  118//24 45//24 117//24
f  119//24 45//24 118//24
f  119//24 48//24 45//24
f  120//24 48//24 119//24
f  120//24 121//24 48//24
f  122//24 121//24 120//24
f  122//24 123//24 121//24
f  124//24 123//24 122//24
f  124//24 125//24 123//24
f  126//24 125//24 124//24
f  126//24 127//24 125//24
f  128//24 127//24 126//24
f  128//24 41//24 127//24
f  129//24 41//24 128//24
f  129//24 44//24 41//24
f  33//24 44//24 129//24
f  33//24 130//24 44//24
f  35//24 130//24 33//24
f  35//24 131//24 130//24
f  132//24 131//24 35//24
f  132//24 133//24 131//24
f  134//24 133//24 132//24
f  134//24 135//24 133//24
f  136//24 135//24 134//24
f  136//24 137//24 135//24
f  138//24 137//24 136//24
f  138//24 63//24 137//24
f  139//24 63//24 138//24
f  139//24 61//24 63//24
f  140//24 61//24 139//24
f  140//24 141//24 61//24
f  142//24 141//24 140//24
f  142//24 143//24 141//24
f  144//24 143//24 142//24
f  144//24 145//24 143//24
f  69//24 145//24 144//24
f  69//24 146//24 145//24
f  71//24 146//24 69//24
f  71//24 27//24 146//24
f  27//24 71//24 25//24
f  147//25 79//25 148//25
f  79//25 147//25 77//25
f  148//26 81//26 149//26
f  81//26 148//26 79//26
f  150//27 89//27 151//27
f  89//27 150//27 87//27
f  151//28 91//28 152//28
f  91//28 151//28 89//28
f  51//29 85//29 153//29
f  85//29 51//29 50//29
f  105//30 154//30 155//30
f  154//30 105//30 107//30
f  56//31 156//31 54//31
f  156//31 56//31 103//31
f  60//32 157//32 58//32
f  157//32 60//32 99//32
f  95//33 59//33 158//33
f  59//33 95//33 57//33
f  145//34 159//34 143//34
f  159//34 145//34 160//34
f  133//35 161//35 131//35
f  161//35 133//35 162//35
f  141//36 64//36 61//36
f  64//36 141//36 163//36
f  12//1 21//1 23//1
f  12//1 23//1 164//1
f  21//1 12//1 165//1
f  12//1 164//1 147//1
f  165//1 12//1 166//1
f  12//1 147//1 148//1
f  166//1 12//1 167//1
f  12//1 148//1 149//1
f  167//1 12//1 168//1
f  12//1 149//1 49//1
f  168//1 12//1 169//1
f  12//1 49//1 51//1
f  169//1 12//1 170//1
f  12//1 51//1 153//1
f  170//1 12//1 171//1
f  12//1 153//1 150//1
f  171//1 12//1 172//1
f  172//1 12//1 173//1
f  13//1 173//1 12//1
f  150//1 11//1 12//1
f  11//1 150//1 151//1
f  11//1 151//1 152//1
f  11//1 152//1 37//1
f  11//1 37//1 39//1
f  11//1 39//1 158//1
f  11//1 158//1 59//1
f  11//1 59//1 58//1
f  11//1 58//1 157//1
f  11//1 157//1 55//1
f  11//1 55//1 54//1
f  11//1 54//1 156//1
f  11//1 156//1 155//1
f  17//1 155//1 154//1
f  155//1 17//1 11//1
f  17//1 154//1 174//1
f  17//1 174//1 31//1
f  17//1 31//1 30//1
f  17//1 30//1 175//1
f  67//1 17//1 175//1
f  66//1 17//1 67//1
f  66//1 16//1 17//1
f  176//1 16//1 66//1
f  47//1 16//1 176//1
f  46//1 16//1 47//1
f  177//1 16//1 46//1
f  178//1 16//1 177//1
f  179//1 16//1 178//1
f  180//1 16//1 179//1
f  43//1 16//1 180//1
f  42//1 16//1 43//1
f  181//1 16//1 42//1
f  161//1 16//1 181//1
f  162//1 16//1 161//1
f  182//1 16//1 162//1
f  183//1 16//1 182//1
f  62//1 16//1 183//1
f  64//1 16//1 62//1
f  163//1 16//1 64//1
f  159//1 16//1 163//1
f  160//1 16//1 159//1
f  184//1 16//1 160//1
f  26//1 16//1 184//1
f  28//1 16//1 26//1
f  16//1 28//1 15//1
f  15//1 28//1 70//1
f  15//1 70//1 72//1
f  15//1 72//1 185//1
f  15//1 185//1 186//1
f  15//1 186//1 187//1
f  15//1 187//1 188//1
f  15//1 188//1 189//1
f  15//1 189//1 190//1
f  15//1 190//1 191//1
f  15//1 191//1 192//1
f  15//1 192//1 34//1
f  15//1 34//1 36//1
f  15//1 36//1 193//1
f  15//1 193//1 194//1
f  15//1 194//1 195//1
f  15//1 195//1 196//1
f  15//1 196//1 197//1
f  15//1 197//1 198//1
f  15//1 198//1 199//1
f  15//1 199//1 200//1
f  15//1 200//1 201//1
f  15//1 201//1 202//1
f  14//1 202//1 203//1
f  15//1 202//1 14//1
f  14//1 203//1 204//1
f  205//1 14//1 204//1
f  206//1 14//1 205//1
f  207//1 14//1 206//1
f  208//1 14//1 207//1
f  209//1 14//1 208//1
f  210//1 14//1 209//1
f  211//1 14//1 210//1
f  212//1 14//1 211//1
f  213//1 14//1 212//1
f  214//1 14//1 213//1
f  14//1 215//1 13//1
f  215//1 14//1 216//1
f  216//1 14//1 217//1
f  217//1 14//1 218//1
f  218//1 14//1 214//1
f  219//1 13//1 215//1
f  173//1 13//1 220//1
f  220//1 13//1 219//1
f  18//1 20//1 19//1
f  123//37 179//37 178//37
f  179//37 123//37 125//37
f  125//38 180//38 179//38
f  180//38 125//38 127//38
f  32//39 175//39 30//39
f  175//39 32//39 113//39
f  111//40 206//40 205//40
f  206//40 111//40 110//40
f  96//41 217//41 218//41
f  217//41 96//41 94//41
f  166//42 73//42 165//42
f  73//42 166//42 74//42
f  120//43 199//43 198//43
f  199//43 120//43 119//43
f  119//44 200//44 199//44
f  200//44 119//44 118//44
f  134//45 190//45 136//45
f  190//45 134//45 191//45
f  132//46 191//46 134//46
f  191//46 132//46 192//46
f  139//47 187//47 140//47
f  187//47 139//47 188//47
f  71//48 28//48 25//48
f  28//48 71//48 70//48
f  164//49 77//49 147//49
f  77//49 164//49 75//49
f  23//50 75//50 164//50
f  75//50 23//50 22//50
f  149//51 52//51 49//51
f  52//51 149//51 81//51
f  152//52 40//52 37//52
f  40//52 152//52 91//52
f  153//53 87//53 150//53
f  87//53 153//53 85//53
f  103//54 155//54 156//54
f  155//54 103//54 105//54
f  107//55 174//55 154//55
f  174//55 107//55 109//55
f  109//56 31//56 174//56
f  31//56 109//56 29//56
f  99//57 55//57 157//57
f  55//57 99//57 53//57
f  38//58 158//58 39//58
f  158//58 38//58 95//58
f  131//59 181//59 130//59
f  181//59 131//59 161//59
f  130//60 42//60 44//60
f  42//60 130//60 181//60
f  137//61 182//61 135//61
f  182//61 137//61 183//61
f  63//62 183//62 137//62
f  183//62 63//62 62//62
f  135//63 162//63 133//63
f  162//63 135//63 182//63
f  143//64 163//64 141//64
f  163//64 143//64 159//64
f  146//65 160//65 145//65
f  160//65 146//65 184//65
f  27//66 184//66 146//66
f  184//66 27//66 26//66
f  121//67 178//67 177//67
f  178//67 121//67 123//67
f  48//68 177//68 46//68
f  177//68 48//68 121//68
f  127//69 43//69 180//69
f  43//69 127//69 41//69
f  68//70 176//70 66//70
f  176//70 68//70 117//70
f  117//71 47//71 176//71
f  47//71 117//71 45//71
f  165//72 24//72 21//72
f  24//72 165//72 73//72
f  110//73 207//73 206//73
f  207//73 110//73 108//73
f  102//74 211//74 210//74
f  211//74 102//74 101//74
f  106//75 209//75 208//75
f  209//75 106//75 104//75
f  94//76 216//76 217//76
f  216//76 94//76 93//76
f  98//77 214//77 213//77
f  214//77 98//77 97//77
f  97//78 218//78 214//78
f  218//78 97//78 96//78
f  101//79 212//79 211//79
f  212//79 101//79 100//79
f  215//80 90//80 219//80
f  90//80 215//80 92//80
f  220//81 86//81 173//81
f  86//81 220//81 88//81
f  170//82 80//82 169//82
f  80//82 170//82 82//82
f  172//83 83//83 171//83
f  83//83 172//83 84//83
f  169//84 78//84 168//84
f  78//84 169//84 80//84
f  129//85 36//85 33//85
f  36//85 129//85 193//85
f  128//86 195//86 194//86
f  195//86 128//86 126//86
f  126//87 196//87 195//87
f  196//87 126//87 124//87
f  122//88 198//88 197//88
f  198//88 122//88 120//88
f  124//89 197//89 196//89
f  197//89 124//89 122//89
f  118//90 201//90 200//90
f  201//90 118//90 116//90
f  115//91 203//91 202//91
f  203//91 115//91 114//91
f  112//92 205//92 204//92
f  205//92 112//92 111//92
f  138//93 188//93 139//93
f  188//93 138//93 189//93
f  35//94 192//94 132//94
f  192//94 35//94 34//94
f  142//95 185//95 144//95
f  185//95 142//95 186//95
f  113//96 67//96 175//96
f  67//96 113//96 65//96
f  167//97 74//97 166//97
f  74//97 167//97 76//97
f  108//98 208//98 207//98
f  208//98 108//98 106//98
f  104//99 210//99 209//99
f  210//99 104//99 102//99
f  216//100 92//100 215//100
f  92//100 216//100 93//100
f  100//101 213//101 212//101
f  213//101 100//101 98//101
f  219//102 88//102 220//102
f  88//102 219//102 90//102
f  173//103 84//103 172//103
f  84//103 173//103 86//103
f  171//104 82//104 170//104
f  82//104 171//104 83//104
f  129//105 194//105 193//105
f  194//105 129//105 128//105
f  116//106 202//106 201//106
f  202//106 116//106 115//106
f  114//107 204//107 203//107
f  204//107 114//107 112//107
f  136//108 189//108 138//108
f  189//108 136//108 190//108
f  140//109 186//109 142//109
f  186//109 140//109 187//109
f  144//110 72//110 69//110
f  72//110 144//110 185//110
f  168//111 76//111 167//111
f  76//111 168//111 78//111

